<?xml version="1.0" encoding="UTF-8" standalone="no"?>
<!-- Created with Inkscape (http://www.inkscape.org/) -->

<svg
   xmlns:dc="http://purl.org/dc/elements/1.1/"
   xmlns:cc="http://creativecommons.org/ns#"
   xmlns:rdf="http://www.w3.org/1999/02/22-rdf-syntax-ns#"
   xmlns:svg="http://www.w3.org/2000/svg"
   xmlns="http://www.w3.org/2000/svg"
   xmlns:sodipodi="http://sodipodi.sourceforge.net/DTD/sodipodi-0.dtd"
   xmlns:inkscape="http://www.inkscape.org/namespaces/inkscape"
   width="43.812546mm"
   height="27.753992mm"
   viewBox="0 0 155.2413 98.340915"
   id="svg2"
   version="1.1"
   inkscape:version="0.91 r13725"
   sodipodi:docname="a.svg">
  <defs
     id="defs4">
    <inkscape:path-effect
       effect="powerstroke"
       id="path-effect5176"
       is_visible="true"
       offset_points="0,0.5"
       sort_points="true"
       interpolator_type="Linear"
       interpolator_beta="0.2"
       start_linecap_type="zerowidth"
       linejoin_type="round"
       miter_limit="4"
       end_linecap_type="zerowidth"
       cusp_linecap_type="round" />
    <inkscape:path-effect
       effect="spiro"
       id="path-effect5174"
       is_visible="true" />
    <inkscape:path-effect
       effect="powerstroke"
       id="path-effect3344"
       is_visible="true"
       offset_points="0,0.5"
       sort_points="true"
       interpolator_type="Linear"
       interpolator_beta="0.2"
       start_linecap_type="zerowidth"
       linejoin_type="round"
       miter_limit="4"
       end_linecap_type="zerowidth"
       cusp_linecap_type="round" />
    <inkscape:path-effect
       effect="spiro"
       id="path-effect3342"
       is_visible="true" />
  </defs>
  <sodipodi:namedview
     id="base"
     pagecolor="#ffffff"
     bordercolor="#666666"
     borderopacity="1.0"
     inkscape:pageopacity="0.0"
     inkscape:pageshadow="2"
     inkscape:zoom="1"
     inkscape:cx="144.34588"
     inkscape:cy="44.445364"
     inkscape:document-units="px"
     inkscape:current-layer="layer1"
     showgrid="false"
     inkscape:snap-global="false"
     showguides="true"
     inkscape:guide-bbox="true"
     inkscape:window-width="1680"
     inkscape:window-height="1008"
     inkscape:window-x="0"
     inkscape:window-y="0"
     inkscape:window-maximized="1"
     fit-margin-top="0"
     fit-margin-left="0"
     fit-margin-right="0"
     fit-margin-bottom="0"
     showborder="false" />
  <metadata
     id="metadata7">
    <rdf:RDF>
      <cc:Work
         rdf:about="">
        <dc:format>image/svg+xml</dc:format>
        <dc:type
           rdf:resource="http://purl.org/dc/dcmitype/StillImage" />
        <dc:title></dc:title>
      </cc:Work>
    </rdf:RDF>
  </metadata>
  <g
     inkscape:label="Layer 1"
     inkscape:groupmode="layer"
     id="layer1"
     transform="translate(-13.87127,833.2625)">
    <g
       id="g4230">
      <path
         id="ellipse4212"
         transform="translate(180.76385,14.298051)"
         d="m -166.89258,-847.56055 0,49.60352 3.2832,0 a 12.878875,8.5625 0 0 0 9.72461,2.96484 12.878875,8.5625 0 0 0 7.67969,-1.70117 9.8093309,6.0625 0 0 0 8.63867,3.20117 9.8093309,6.0625 0 0 0 4.95508,-0.83789 9.8093309,6.0625 0 0 0 9.56641,4.75586 9.8093309,6.0625 0 0 0 9.74609,-5.39258 9.8093309,6.0625 0 0 0 4.98242,0.84961 9.8093309,6.0625 0 0 0 2.40235,-0.18945 16.703623,6.0625 0 0 0 16.249998,4.68945 16.703623,6.0625 0 0 0 13.345703,-2.42773 9.8093309,6.0625 0 0 0 9.376953,4.30273 9.8093309,6.0625 0 0 0 9.753906,-5.42187 9.8093309,6.0625 0 0 0 6.746094,1.67187 9.8093309,6.0625 0 0 0 2.830078,-0.26367 11.184331,6.0625 0 0 0 11.044922,5.13867 11.184331,6.0625 0 0 0 11.185547,-6.0625 11.184331,6.0625 0 0 0 -1.876953,-3.35351 12.121831,12.1875 0 0 0 6.52539,-10.80274 12.121831,12.1875 0 0 0 -0.152344,-1.86523 16.793785,13.700193 0 0 0 2.740235,-3.21485 8.8545237,11.110023 81.586052 0 0 5.658203,-4.99414 8.8545237,11.110023 81.586052 0 0 -0.931641,-8.15625 5.4311942,5.7698524 44.616406 0 0 1.060547,-2.25781 5.4311942,5.7698524 44.616406 0 0 -4.191406,-6.46094 5.4311942,5.7698524 44.616406 0 0 -4.617188,1.24805 3.0935922,3.6239221 11.194649 0 0 -0.333984,-1.12305 2.5386253,3.232083 7.184683 0 0 2.404297,-2.67187 2.5386253,3.232083 7.184683 0 0 -1.908203,-3.71289 2.5386253,3.232083 7.184683 0 0 -1.550782,0.2832 9.2903576,5.8375501 65.412351 0 0 -0.490234,-1.66797 9.2903576,5.8375501 65.412351 0 0 -4.433594,-6.13086 l -139.414064,0 z m 148.078127,0.57617 a 2.0065665,2.350549 11.194649 0 0 -2.082031,1.94922 2.0065665,2.350549 11.194649 0 0 1.511718,2.69532 2.0065665,2.350549 11.194649 0 0 2.423828,-1.91602 2.0065665,2.350549 11.194649 0 0 -1.511718,-2.69531 2.0065665,2.350549 11.194649 0 0 -0.341797,-0.0332 z m 3.691406,5.2129 a 3.0935922,3.6239221 11.194649 0 0 -3.210937,3.0039 3.0935922,3.6239221 11.194649 0 0 2.330078,4.15625 3.0935922,3.6239221 11.194649 0 0 3.738281,-2.95508 3.0935922,3.6239221 11.194649 0 0 -2.330078,-4.15625 3.0935922,3.6239221 11.194649 0 0 -0.527344,-0.0488 z m -2.521484,31.97851 a 2.0065665,2.350549 11.194649 0 0 -2.083985,1.94922 2.0065665,2.350549 11.194649 0 0 1.513672,2.69531 2.0065665,2.350549 11.194649 0 0 2.423828,-1.91601 2.0065665,2.350549 11.194649 0 0 -1.511718,-2.69532 2.0065665,2.350549 11.194649 0 0 -0.341797,-0.0332 z m -0.226563,6.0957 a 3.0523231,3.5755775 11.194649 0 0 -3.169922,2.96485 3.0523231,3.5755775 11.194649 0 0 2.300782,4.09961 3.0523231,3.5755775 11.194649 0 0 3.6875,-2.91602 3.0523231,3.5755775 11.194649 0 0 -2.300782,-4.09961 3.0523231,3.5755775 11.194649 0 0 -0.517578,-0.0488 z m -5.121094,6.5 a 1.4702812,1.7223291 11.194649 0 0 -1.527343,1.42774 1.4702812,1.7223291 11.194649 0 0 1.107422,1.97461 1.4702812,1.7223291 11.194649 0 0 1.777343,-1.4043 1.4702812,1.7223291 11.194649 0 0 -1.107422,-1.97461 1.4702812,1.7223291 11.194649 0 0 -0.25,-0.0234 z"
         style="color:#000000;clip-rule:nonzero;display:inline;overflow:visible;visibility:visible;opacity:1;isolation:auto;mix-blend-mode:normal;color-interpolation:sRGB;color-interpolation-filters:linearRGB;solid-color:#000000;solid-opacity:1;fill:#729fcf;fill-opacity:1;fill-rule:nonzero;stroke:none;stroke-width:1;stroke-linecap:butt;stroke-linejoin:miter;stroke-miterlimit:4;stroke-dasharray:none;stroke-dashoffset:0;stroke-opacity:1;marker:none;color-rendering:auto;image-rendering:auto;shape-rendering:auto;text-rendering:auto;enable-background:accumulate"
         inkscape:connector-curvature="0" />
      <g
         id="g4089"
         transform="matrix(0.88110257,0,0,0.88110257,-570.18013,-800.2708)">
        <g
           transform="translate(-83.003569,172.12341)"
           id="g4091">
          <path
             sodipodi:nodetypes="ssss"
             inkscape:connector-curvature="0"
             id="path4093"
             d="m 834.41799,-115.39683 c -4.69077,12.36163 -18.6223,3.43259 -19.38292,3.43259 0,0 -13.29426,-21.62162 3.13779,-25.36746 9.3928,-2.14117 18.20451,16.77132 16.24513,21.93487 z"
             style="color:#000000;clip-rule:nonzero;display:inline;overflow:visible;visibility:visible;opacity:1;isolation:auto;mix-blend-mode:normal;color-interpolation:sRGB;color-interpolation-filters:linearRGB;solid-color:#000000;solid-opacity:1;fill:#ffffff;fill-opacity:1;fill-rule:nonzero;stroke:none;stroke-width:1;stroke-linecap:butt;stroke-linejoin:miter;stroke-miterlimit:4;stroke-dasharray:none;stroke-dashoffset:0;stroke-opacity:1;marker:none;color-rendering:auto;image-rendering:auto;shape-rendering:auto;text-rendering:auto;enable-background:accumulate" />
        </g>
        <g
           id="g4095"
           transform="translate(-22.89949,172.12341)">
          <path
             style="color:#000000;clip-rule:nonzero;display:inline;overflow:visible;visibility:visible;opacity:1;isolation:auto;mix-blend-mode:normal;color-interpolation:sRGB;color-interpolation-filters:linearRGB;solid-color:#000000;solid-opacity:1;fill:#ffffff;fill-opacity:1;fill-rule:nonzero;stroke:none;stroke-width:1;stroke-linecap:butt;stroke-linejoin:miter;stroke-miterlimit:4;stroke-dasharray:none;stroke-dashoffset:0;stroke-opacity:1;marker:none;color-rendering:auto;image-rendering:auto;shape-rendering:auto;text-rendering:auto;enable-background:accumulate"
             d="m 834.41799,-115.39683 c -4.69077,12.36163 -18.6223,3.43259 -19.38292,3.43259 0,0 -13.29426,-21.62162 3.13779,-25.36746 9.3928,-2.14117 18.20451,16.77132 16.24513,21.93487 z"
             id="path4097"
             inkscape:connector-curvature="0"
             sodipodi:nodetypes="ssss" />
        </g>
        <g
           transform="matrix(0.84016959,0,0,0.84016959,121.59258,4.7127883)"
           id="g4099">
          <g
             transform="translate(-143.10764,172.12341)"
             id="g4101">
            <path
               sodipodi:nodetypes="ssss"
               inkscape:connector-curvature="0"
               id="path4103"
               d="m 834.41799,-115.39683 c -4.69077,12.36163 -18.6223,3.43259 -19.38292,3.43259 0,0 -13.29426,-21.62162 3.13779,-25.36746 9.3928,-2.14117 18.20451,16.77132 16.24513,21.93487 z"
               style="color:#000000;clip-rule:nonzero;display:inline;overflow:visible;visibility:visible;opacity:1;isolation:auto;mix-blend-mode:normal;color-interpolation:sRGB;color-interpolation-filters:linearRGB;solid-color:#000000;solid-opacity:1;fill:#ffffff;fill-opacity:1;fill-rule:nonzero;stroke:none;stroke-width:1;stroke-linecap:butt;stroke-linejoin:miter;stroke-miterlimit:4;stroke-dasharray:none;stroke-dashoffset:0;stroke-opacity:1;marker:none;color-rendering:auto;image-rendering:auto;shape-rendering:auto;text-rendering:auto;enable-background:accumulate" />
          </g>
          <path
             sodipodi:nodetypes="cccccccccccccsccccccccccccccccccccccccccccccccccccccccscccccccccccccccccccccccccccccccccccccccccccccccccccccccccccccccccccccc"
             inkscape:connector-curvature="0"
             id="path4105"
             d="m 682.78512,32.62068 c -5.77286,-0.11741 -11.41417,1.44933 -15.44727,3.67773 2.60617,-1.22009 5.70657,-1.01211 8.19141,0.0488 -0.0728,-0.0172 -0.14897,-0.0261 -0.22657,-0.0273 -0.564,-0.005 -1.16901,0.41515 -1.52539,1.05859 -0.4782,0.86371 -0.35764,1.84278 0.26758,2.18945 0.62514,0.34679 1.51879,-0.0705 1.99805,-0.93359 0.43469,-0.78304 0.38273,-1.67897 -0.1211,-2.0957 0.87482,0.41798 1.6519,0.94282 2.29493,1.55078 -0.58523,0.0277 -1.19495,0.46941 -1.56055,1.12891 -0.51117,0.92352 -0.38332,1.97109 0.28516,2.34179 0.66858,0.3713 1.62418,-0.0746 2.13672,-0.99805 0.17805,-0.32096 0.2846,-0.67397 0.30859,-1.01367 1.05865,1.86969 0.89095,4.15935 -1.50195,6.38867 -3.71057,3.45691 -9.37696,-0.64062 -9.37696,-0.64062 -12.44292,0.45464 -14.04057,15.20533 -6.27344,17.02539 3.30647,0.80808 6.49565,-1.88732 8.55274,-2.76172 -0.35832,0.1846 -1.14721,0.66651 -1.72852,1.56641 0,0 -1.30767,3.8382 -1.30859,3.85547 -1.806,0.2175 -3.61185,0.6111 -5.41016,0.93164 -0.89313,-0.84433 -2.40544,-0.72133 -3.40039,0.27734 -0.11633,0.11774 -0.22228,0.2496 -0.3164,0.38477 -0.2968,-0.26445 -0.79164,-0.36007 -1.28516,-0.24219 -0.72024,0.17213 -1.20774,0.72799 -1.08398,1.24609 0.12385,0.51785 0.81109,0.80103 1.53125,0.62891 0.11429,-0.0281 0.22453,-0.0658 0.33007,-0.11328 -10e-4,0.13686 0.006,0.27244 0.0273,0.40429 -0.27772,-0.10112 -0.61174,-0.11442 -0.9375,-0.0371 -0.72022,0.17218 -1.20414,0.73004 -1.08008,1.24804 0.0277,0.11617 0.0876,0.22197 0.17187,0.31641 0.2811,0.31425 0.82161,0.44116 1.35938,0.3125 0.47187,-0.11303 0.85992,-0.39872 1.01953,-0.75 0.011,0.0141 0.0244,0.0264 0.0371,0.0391 0.0605,0.0591 0.12307,0.11597 0.19141,0.16602 -0.12824,0.069 -0.24307,0.1533 -0.35352,0.2539 -0.54651,0.49985 -0.69955,1.22426 -0.33984,1.61719 0.0648,0.0716 0.14251,0.12905 0.23437,0.16992 l 0,-0.002 c 0.40087,0.18088 0.96851,0.0315 1.40235,-0.36523 0.3918,-0.35937 0.59453,-0.84912 0.51562,-1.25196 0.31059,-0.0199 0.62516,-0.098 0.92188,-0.23242 -0.011,0.20932 0.0175,0.43197 0.0879,0.64258 0.23365,0.70253 0.83237,1.13649 1.33789,0.96875 0.50576,-0.16805 0.72569,-0.88121 0.49219,-1.58399 -0.14707,-0.44067 -0.4461,-0.79209 -0.79297,-0.93359 0.26272,-0.34792 0.44274,-0.74465 0.52148,-1.1543 1.50641,-0.33001 3.00367,-0.75917 4.52149,-0.99609 -0.19745,1.98832 -0.0281,4.21803 1.04687,6.23633 l -2.69922,1.17578 -0.3457,5.04492 c -1.7073,0.0776 -5.84326,-0.30523 -7.01367,1.50195 l 9.26172,1.78125 0.10156,-6.44531 2.35742,-0.79492 c 3.94097,4.11219 11.22498,5.52296 17.42187,4.08008 3.40891,-0.79373 6.26668,-1.89806 8.64454,-3.23633 l 3.14453,4.22656 5.2207,-3.05273 c 1.21772,1.19919 3.17593,4.44276 5.29688,4.07226 l -4.05079,-8.38476 -6.10937,4.63086 -1.56836,-2.69922 c 7.98453,-5.57871 9.17793,-14.29981 6.66211,-22.39063 1.18304,0.48893 2.53964,1.28568 3.56836,1.83399 l 1.94726,1.72265 c -0.0141,0.41689 0.0676,0.84251 0.2461,1.24024 -0.36966,0.0605 -0.73885,0.34151 -0.98047,0.73828 -0.38428,0.63305 -0.32251,1.37197 0.13281,1.64844 0.45539,0.27622 1.1332,-0.0138 1.51758,-0.64649 0.11555,-0.18963 0.19391,-0.39714 0.23047,-0.60351 0.25922,0.19739 0.5493,0.34685 0.84765,0.43554 -0.16671,0.37506 -0.0816,0.89628 0.22071,1.33399 0.33451,0.48344 0.85406,0.75493 1.28515,0.66797 0.0986,-0.0193 0.19037,-0.0581 0.26953,-0.11328 0.43823,-0.30287 0.45267,-1.04518 0.0313,-1.6543 -0.0853,-0.1226 -0.18535,-0.2304 -0.29493,-0.32617 0.0776,-0.0335 0.15413,-0.0731 0.22657,-0.11719 0.0158,-0.011 0.0282,-0.0197 0.043,-0.0312 0.0771,0.37806 0.39529,0.74363 0.83008,0.95898 0.49557,0.2453 1.04658,0.24715 1.39063,0.004 0.10331,-0.0732 0.18337,-0.16646 0.23633,-0.27344 0.23641,-0.47734 -0.10569,-1.12861 -0.76954,-1.45703 -0.30028,-0.148 -0.63054,-0.21242 -0.92382,-0.17578 0.0508,-0.12354 0.09,-0.25497 0.11914,-0.38867 0.0922,0.0701 0.19169,0.13475 0.29687,0.1875 0.66366,0.32831 1.39267,0.2078 1.62891,-0.26953 0.23613,-0.47747 -0.11165,-1.1326 -0.77539,-1.46094 -0.45483,-0.22489 -0.96222,-0.24067 -1.31055,-0.0488 -0.0615,-0.15285 -0.13544,-0.30658 -0.22266,-0.44726 -0.74726,-1.19536 -2.19306,-1.64937 -3.25195,-1.02539 l -2.85937,-2.0293 c -1.37594,-0.97609 -4.79493,-2.69531 -4.79493,-2.69531 -4.01873,-9.31996 -12.68546,-17.09651 -20.92382,-17.06055 z m -8.50782,4.47266 0.006,0 c 0.009,-2.9e-4 0.018,-2.9e-4 0.0274,0 0.24906,-10e-4 0.44923,0.19821 0.44922,0.44726 1e-5,0.24906 -0.20017,0.45094 -0.44922,0.44922 -0.24783,0 -0.44922,-0.20138 -0.44922,-0.44922 -6.7e-4,-0.23513 0.18156,-0.42943 0.41601,-0.44726 z m 2.91407,1.82226 0.004,0 c 0.011,-3.9e-4 0.0219,-3.9e-4 0.0332,0 0.2649,9e-5 0.48036,0.21558 0.48046,0.48047 -10e-5,0.26489 -0.21556,0.47842 -0.48046,0.47851 -0.26488,-8e-5 -0.48037,-0.21362 -0.48047,-0.47851 -6.7e-4,-0.25103 0.19307,-0.46097 0.44336,-0.48047 z m 10.41796,14.62109 c 0.0737,-2.3e-4 0.13706,0.01 0.19141,0.0293 1.30432,0.47197 -2.85736,6.4445 -6.75781,6.71289 l -0.37891,-3.5 2.91602,-0.97656 0.47656,3.13476 0.80859,-0.66015 -0.40039,-2.93359 c 1.62892,-1.29518 2.62853,-1.80509 3.14453,-1.80665 z m -8.15234,3.63477 0.37695,3.40039 c -1.10175,0.48761 -2.20489,0.47117 -3.30664,0.41406 l -0.3789,-3.3457 z m -4.51562,0.72852 0.3789,3.07031 c 0,0 -2.44305,-0.49816 -3.69531,-2.41797 z"
             style="color:#000000;clip-rule:nonzero;display:inline;overflow:visible;visibility:visible;opacity:1;isolation:auto;mix-blend-mode:normal;color-interpolation:sRGB;color-interpolation-filters:linearRGB;solid-color:#000000;solid-opacity:1;fill:#729fcf;fill-opacity:1;fill-rule:nonzero;stroke:none;stroke-width:1;stroke-linecap:butt;stroke-linejoin:miter;stroke-miterlimit:4;stroke-dasharray:none;stroke-dashoffset:0;stroke-opacity:1;marker:none;color-rendering:auto;image-rendering:auto;shape-rendering:auto;text-rendering:auto;enable-background:accumulate" />
        </g>
        <g
           transform="matrix(0.84016959,0,0,0.84016959,173.57542,4.7127883)"
           id="g4107">
          <g
             id="g4109"
             transform="translate(-143.10764,172.12341)">
            <path
               style="color:#000000;clip-rule:nonzero;display:inline;overflow:visible;visibility:visible;opacity:1;isolation:auto;mix-blend-mode:normal;color-interpolation:sRGB;color-interpolation-filters:linearRGB;solid-color:#000000;solid-opacity:1;fill:#ffffff;fill-opacity:1;fill-rule:nonzero;stroke:none;stroke-width:1;stroke-linecap:butt;stroke-linejoin:miter;stroke-miterlimit:4;stroke-dasharray:none;stroke-dashoffset:0;stroke-opacity:1;marker:none;color-rendering:auto;image-rendering:auto;shape-rendering:auto;text-rendering:auto;enable-background:accumulate"
               d="m 834.41799,-115.39683 c -4.69077,12.36163 -18.6223,3.43259 -19.38292,3.43259 0,0 -13.29426,-21.62162 3.13779,-25.36746 9.3928,-2.14117 18.20451,16.77132 16.24513,21.93487 z"
               id="path4111"
               inkscape:connector-curvature="0"
               sodipodi:nodetypes="ssss" />
          </g>
          <path
             style="color:#000000;clip-rule:nonzero;display:inline;overflow:visible;visibility:visible;opacity:1;isolation:auto;mix-blend-mode:normal;color-interpolation:sRGB;color-interpolation-filters:linearRGB;solid-color:#000000;solid-opacity:1;fill:#729fcf;fill-opacity:1;fill-rule:nonzero;stroke:none;stroke-width:1;stroke-linecap:butt;stroke-linejoin:miter;stroke-miterlimit:4;stroke-dasharray:none;stroke-dashoffset:0;stroke-opacity:1;marker:none;color-rendering:auto;image-rendering:auto;shape-rendering:auto;text-rendering:auto;enable-background:accumulate"
             d="m 682.78512,32.62068 c -5.77286,-0.11741 -11.41417,1.44933 -15.44727,3.67773 2.60617,-1.22009 5.70657,-1.01211 8.19141,0.0488 -0.0728,-0.0172 -0.14897,-0.0261 -0.22657,-0.0273 -0.564,-0.005 -1.16901,0.41515 -1.52539,1.05859 -0.4782,0.86371 -0.35764,1.84278 0.26758,2.18945 0.62514,0.34679 1.51879,-0.0705 1.99805,-0.93359 0.43469,-0.78304 0.38273,-1.67897 -0.1211,-2.0957 0.87482,0.41798 1.6519,0.94282 2.29493,1.55078 -0.58523,0.0277 -1.19495,0.46941 -1.56055,1.12891 -0.51117,0.92352 -0.38332,1.97109 0.28516,2.34179 0.66858,0.3713 1.62418,-0.0746 2.13672,-0.99805 0.17805,-0.32096 0.2846,-0.67397 0.30859,-1.01367 1.05865,1.86969 0.89095,4.15935 -1.50195,6.38867 -3.71057,3.45691 -9.37696,-0.64062 -9.37696,-0.64062 -12.44292,0.45464 -14.04057,15.20533 -6.27344,17.02539 3.30647,0.80808 6.49565,-1.88732 8.55274,-2.76172 -0.35832,0.1846 -1.14721,0.66651 -1.72852,1.56641 0,0 -1.30767,3.8382 -1.30859,3.85547 -1.806,0.2175 -3.61185,0.6111 -5.41016,0.93164 -0.89313,-0.84433 -2.40544,-0.72133 -3.40039,0.27734 -0.11633,0.11774 -0.22228,0.2496 -0.3164,0.38477 -0.2968,-0.26445 -0.79164,-0.36007 -1.28516,-0.24219 -0.72024,0.17213 -1.20774,0.72799 -1.08398,1.24609 0.12385,0.51785 0.81109,0.80103 1.53125,0.62891 0.11429,-0.0281 0.22453,-0.0658 0.33007,-0.11328 -10e-4,0.13686 0.006,0.27244 0.0273,0.40429 -0.27772,-0.10112 -0.61174,-0.11442 -0.9375,-0.0371 -0.72022,0.17218 -1.20414,0.73004 -1.08008,1.24804 0.0277,0.11617 0.0876,0.22197 0.17187,0.31641 0.2811,0.31425 0.82161,0.44116 1.35938,0.3125 0.47187,-0.11303 0.85992,-0.39872 1.01953,-0.75 0.011,0.0141 0.0244,0.0264 0.0371,0.0391 0.0605,0.0591 0.12307,0.11597 0.19141,0.16602 -0.12824,0.069 -0.24307,0.1533 -0.35352,0.2539 -0.54651,0.49985 -0.69955,1.22426 -0.33984,1.61719 0.0648,0.0716 0.14251,0.12905 0.23437,0.16992 l 0,-0.002 c 0.40087,0.18088 0.96851,0.0315 1.40235,-0.36523 0.3918,-0.35937 0.59453,-0.84912 0.51562,-1.25196 0.31059,-0.0199 0.62516,-0.098 0.92188,-0.23242 -0.011,0.20932 0.0175,0.43197 0.0879,0.64258 0.23365,0.70253 0.83237,1.13649 1.33789,0.96875 0.50576,-0.16805 0.72569,-0.88121 0.49219,-1.58399 -0.14707,-0.44067 -0.4461,-0.79209 -0.79297,-0.93359 0.26272,-0.34792 0.44274,-0.74465 0.52148,-1.1543 1.50641,-0.33001 3.00367,-0.75917 4.52149,-0.99609 -0.19745,1.98832 -0.0281,4.21803 1.04687,6.23633 l -2.69922,1.17578 -0.3457,5.04492 c -1.7073,0.0776 -5.84326,-0.30523 -7.01367,1.50195 l 9.26172,1.78125 0.10156,-6.44531 2.35742,-0.79492 c 3.94097,4.11219 11.22498,5.52296 17.42187,4.08008 3.40891,-0.79373 6.26668,-1.89806 8.64454,-3.23633 l 3.14453,4.22656 5.2207,-3.05273 c 1.21772,1.19919 3.17593,4.44276 5.29688,4.07226 l -4.05079,-8.38476 -6.10937,4.63086 -1.56836,-2.69922 c 7.98453,-5.57871 9.17793,-14.29981 6.66211,-22.39063 1.18304,0.48893 2.53964,1.28568 3.56836,1.83399 l 1.94726,1.72265 c -0.0141,0.41689 0.0676,0.84251 0.2461,1.24024 -0.36966,0.0605 -0.73885,0.34151 -0.98047,0.73828 -0.38428,0.63305 -0.32251,1.37197 0.13281,1.64844 0.45539,0.27622 1.1332,-0.0138 1.51758,-0.64649 0.11555,-0.18963 0.19391,-0.39714 0.23047,-0.60351 0.25922,0.19739 0.5493,0.34685 0.84765,0.43554 -0.16671,0.37506 -0.0816,0.89628 0.22071,1.33399 0.33451,0.48344 0.85406,0.75493 1.28515,0.66797 0.0986,-0.0193 0.19037,-0.0581 0.26953,-0.11328 0.43823,-0.30287 0.45267,-1.04518 0.0313,-1.6543 -0.0853,-0.1226 -0.18535,-0.2304 -0.29493,-0.32617 0.0776,-0.0335 0.15413,-0.0731 0.22657,-0.11719 0.0158,-0.011 0.0282,-0.0197 0.043,-0.0312 0.0771,0.37806 0.39529,0.74363 0.83008,0.95898 0.49557,0.2453 1.04658,0.24715 1.39063,0.004 0.10331,-0.0732 0.18337,-0.16646 0.23633,-0.27344 0.23641,-0.47734 -0.10569,-1.12861 -0.76954,-1.45703 -0.30028,-0.148 -0.63054,-0.21242 -0.92382,-0.17578 0.0508,-0.12354 0.09,-0.25497 0.11914,-0.38867 0.0922,0.0701 0.19169,0.13475 0.29687,0.1875 0.66366,0.32831 1.39267,0.2078 1.62891,-0.26953 0.23613,-0.47747 -0.11165,-1.1326 -0.77539,-1.46094 -0.45483,-0.22489 -0.96222,-0.24067 -1.31055,-0.0488 -0.0615,-0.15285 -0.13544,-0.30658 -0.22266,-0.44726 -0.74726,-1.19536 -2.19306,-1.64937 -3.25195,-1.02539 l -2.85937,-2.0293 c -1.37594,-0.97609 -4.79493,-2.69531 -4.79493,-2.69531 -4.01873,-9.31996 -12.68546,-17.09651 -20.92382,-17.06055 z m -8.50782,4.47266 0.006,0 c 0.009,-2.9e-4 0.018,-2.9e-4 0.0274,0 0.24906,-10e-4 0.44923,0.19821 0.44922,0.44726 1e-5,0.24906 -0.20017,0.45094 -0.44922,0.44922 -0.24783,0 -0.44922,-0.20138 -0.44922,-0.44922 -6.7e-4,-0.23513 0.18156,-0.42943 0.41601,-0.44726 z m 2.91407,1.82226 0.004,0 c 0.011,-3.9e-4 0.0219,-3.9e-4 0.0332,0 0.2649,9e-5 0.48036,0.21558 0.48046,0.48047 -10e-5,0.26489 -0.21556,0.47842 -0.48046,0.47851 -0.26488,-8e-5 -0.48037,-0.21362 -0.48047,-0.47851 -6.7e-4,-0.25103 0.19307,-0.46097 0.44336,-0.48047 z m 10.41796,14.62109 c 0.0737,-2.3e-4 0.13706,0.01 0.19141,0.0293 1.30432,0.47197 -2.85736,6.4445 -6.75781,6.71289 l -0.37891,-3.5 2.91602,-0.97656 0.47656,3.13476 0.80859,-0.66015 -0.40039,-2.93359 c 1.62892,-1.29518 2.62853,-1.80509 3.14453,-1.80665 z m -8.15234,3.63477 0.37695,3.40039 c -1.10175,0.48761 -2.20489,0.47117 -3.30664,0.41406 l -0.3789,-3.3457 z m -4.51562,0.72852 0.3789,3.07031 c 0,0 -2.44305,-0.49816 -3.69531,-2.41797 z"
             id="path4113"
             inkscape:connector-curvature="0"
             sodipodi:nodetypes="cccccccccccccsccccccccccccccccccccccccccccccccccccccccscccccccccccccccccccccccccccccccccccccccccccccccccccccccccccccccccccccc" />
        </g>
        <g
           id="g4115"
           transform="matrix(0.84016959,0,0,0.84016959,225.26121,4.7127883)">
          <g
             transform="translate(-143.10764,172.12341)"
             id="g4117">
            <path
               sodipodi:nodetypes="ssss"
               inkscape:connector-curvature="0"
               id="path4119"
               d="m 834.41799,-115.39683 c -4.69077,12.36163 -18.6223,3.43259 -19.38292,3.43259 0,0 -13.29426,-21.62162 3.13779,-25.36746 9.3928,-2.14117 18.20451,16.77132 16.24513,21.93487 z"
               style="color:#000000;clip-rule:nonzero;display:inline;overflow:visible;visibility:visible;opacity:1;isolation:auto;mix-blend-mode:normal;color-interpolation:sRGB;color-interpolation-filters:linearRGB;solid-color:#000000;solid-opacity:1;fill:#ffffff;fill-opacity:1;fill-rule:nonzero;stroke:none;stroke-width:1;stroke-linecap:butt;stroke-linejoin:miter;stroke-miterlimit:4;stroke-dasharray:none;stroke-dashoffset:0;stroke-opacity:1;marker:none;color-rendering:auto;image-rendering:auto;shape-rendering:auto;text-rendering:auto;enable-background:accumulate" />
          </g>
          <path
             sodipodi:nodetypes="cccccccccccccsccccccccccccccccccccccccccccccccccccccccscccccccccccccccccccccccccccccccccccccccccccccccccccccccccccccccccccccc"
             inkscape:connector-curvature="0"
             id="path4121"
             d="m 682.78512,32.62068 c -5.77286,-0.11741 -11.41417,1.44933 -15.44727,3.67773 2.60617,-1.22009 5.70657,-1.01211 8.19141,0.0488 -0.0728,-0.0172 -0.14897,-0.0261 -0.22657,-0.0273 -0.564,-0.005 -1.16901,0.41515 -1.52539,1.05859 -0.4782,0.86371 -0.35764,1.84278 0.26758,2.18945 0.62514,0.34679 1.51879,-0.0705 1.99805,-0.93359 0.43469,-0.78304 0.38273,-1.67897 -0.1211,-2.0957 0.87482,0.41798 1.6519,0.94282 2.29493,1.55078 -0.58523,0.0277 -1.19495,0.46941 -1.56055,1.12891 -0.51117,0.92352 -0.38332,1.97109 0.28516,2.34179 0.66858,0.3713 1.62418,-0.0746 2.13672,-0.99805 0.17805,-0.32096 0.2846,-0.67397 0.30859,-1.01367 1.05865,1.86969 0.89095,4.15935 -1.50195,6.38867 -3.71057,3.45691 -9.37696,-0.64062 -9.37696,-0.64062 -12.44292,0.45464 -14.04057,15.20533 -6.27344,17.02539 3.30647,0.80808 6.49565,-1.88732 8.55274,-2.76172 -0.35832,0.1846 -1.14721,0.66651 -1.72852,1.56641 0,0 -1.30767,3.8382 -1.30859,3.85547 -1.806,0.2175 -3.61185,0.6111 -5.41016,0.93164 -0.89313,-0.84433 -2.40544,-0.72133 -3.40039,0.27734 -0.11633,0.11774 -0.22228,0.2496 -0.3164,0.38477 -0.2968,-0.26445 -0.79164,-0.36007 -1.28516,-0.24219 -0.72024,0.17213 -1.20774,0.72799 -1.08398,1.24609 0.12385,0.51785 0.81109,0.80103 1.53125,0.62891 0.11429,-0.0281 0.22453,-0.0658 0.33007,-0.11328 -10e-4,0.13686 0.006,0.27244 0.0273,0.40429 -0.27772,-0.10112 -0.61174,-0.11442 -0.9375,-0.0371 -0.72022,0.17218 -1.20414,0.73004 -1.08008,1.24804 0.0277,0.11617 0.0876,0.22197 0.17187,0.31641 0.2811,0.31425 0.82161,0.44116 1.35938,0.3125 0.47187,-0.11303 0.85992,-0.39872 1.01953,-0.75 0.011,0.0141 0.0244,0.0264 0.0371,0.0391 0.0605,0.0591 0.12307,0.11597 0.19141,0.16602 -0.12824,0.069 -0.24307,0.1533 -0.35352,0.2539 -0.54651,0.49985 -0.69955,1.22426 -0.33984,1.61719 0.0648,0.0716 0.14251,0.12905 0.23437,0.16992 l 0,-0.002 c 0.40087,0.18088 0.96851,0.0315 1.40235,-0.36523 0.3918,-0.35937 0.59453,-0.84912 0.51562,-1.25196 0.31059,-0.0199 0.62516,-0.098 0.92188,-0.23242 -0.011,0.20932 0.0175,0.43197 0.0879,0.64258 0.23365,0.70253 0.83237,1.13649 1.33789,0.96875 0.50576,-0.16805 0.72569,-0.88121 0.49219,-1.58399 -0.14707,-0.44067 -0.4461,-0.79209 -0.79297,-0.93359 0.26272,-0.34792 0.44274,-0.74465 0.52148,-1.1543 1.50641,-0.33001 3.00367,-0.75917 4.52149,-0.99609 -0.19745,1.98832 -0.0281,4.21803 1.04687,6.23633 l -2.69922,1.17578 -0.3457,5.04492 c -1.7073,0.0776 -5.84326,-0.30523 -7.01367,1.50195 l 9.26172,1.78125 0.10156,-6.44531 2.35742,-0.79492 c 3.94097,4.11219 11.22498,5.52296 17.42187,4.08008 3.40891,-0.79373 6.26668,-1.89806 8.64454,-3.23633 l 3.14453,4.22656 5.2207,-3.05273 c 1.21772,1.19919 3.17593,4.44276 5.29688,4.07226 l -4.05079,-8.38476 -6.10937,4.63086 -1.56836,-2.69922 c 7.98453,-5.57871 9.17793,-14.29981 6.66211,-22.39063 1.18304,0.48893 2.53964,1.28568 3.56836,1.83399 l 1.94726,1.72265 c -0.0141,0.41689 0.0676,0.84251 0.2461,1.24024 -0.36966,0.0605 -0.73885,0.34151 -0.98047,0.73828 -0.38428,0.63305 -0.32251,1.37197 0.13281,1.64844 0.45539,0.27622 1.1332,-0.0138 1.51758,-0.64649 0.11555,-0.18963 0.19391,-0.39714 0.23047,-0.60351 0.25922,0.19739 0.5493,0.34685 0.84765,0.43554 -0.16671,0.37506 -0.0816,0.89628 0.22071,1.33399 0.33451,0.48344 0.85406,0.75493 1.28515,0.66797 0.0986,-0.0193 0.19037,-0.0581 0.26953,-0.11328 0.43823,-0.30287 0.45267,-1.04518 0.0313,-1.6543 -0.0853,-0.1226 -0.18535,-0.2304 -0.29493,-0.32617 0.0776,-0.0335 0.15413,-0.0731 0.22657,-0.11719 0.0158,-0.011 0.0282,-0.0197 0.043,-0.0312 0.0771,0.37806 0.39529,0.74363 0.83008,0.95898 0.49557,0.2453 1.04658,0.24715 1.39063,0.004 0.10331,-0.0732 0.18337,-0.16646 0.23633,-0.27344 0.23641,-0.47734 -0.10569,-1.12861 -0.76954,-1.45703 -0.30028,-0.148 -0.63054,-0.21242 -0.92382,-0.17578 0.0508,-0.12354 0.09,-0.25497 0.11914,-0.38867 0.0922,0.0701 0.19169,0.13475 0.29687,0.1875 0.66366,0.32831 1.39267,0.2078 1.62891,-0.26953 0.23613,-0.47747 -0.11165,-1.1326 -0.77539,-1.46094 -0.45483,-0.22489 -0.96222,-0.24067 -1.31055,-0.0488 -0.0615,-0.15285 -0.13544,-0.30658 -0.22266,-0.44726 -0.74726,-1.19536 -2.19306,-1.64937 -3.25195,-1.02539 l -2.85937,-2.0293 c -1.37594,-0.97609 -4.79493,-2.69531 -4.79493,-2.69531 -4.01873,-9.31996 -12.68546,-17.09651 -20.92382,-17.06055 z m -8.50782,4.47266 0.006,0 c 0.009,-2.9e-4 0.018,-2.9e-4 0.0274,0 0.24906,-10e-4 0.44923,0.19821 0.44922,0.44726 1e-5,0.24906 -0.20017,0.45094 -0.44922,0.44922 -0.24783,0 -0.44922,-0.20138 -0.44922,-0.44922 -6.7e-4,-0.23513 0.18156,-0.42943 0.41601,-0.44726 z m 2.91407,1.82226 0.004,0 c 0.011,-3.9e-4 0.0219,-3.9e-4 0.0332,0 0.2649,9e-5 0.48036,0.21558 0.48046,0.48047 -10e-5,0.26489 -0.21556,0.47842 -0.48046,0.47851 -0.26488,-8e-5 -0.48037,-0.21362 -0.48047,-0.47851 -6.7e-4,-0.25103 0.19307,-0.46097 0.44336,-0.48047 z m 10.41796,14.62109 c 0.0737,-2.3e-4 0.13706,0.01 0.19141,0.0293 1.30432,0.47197 -2.85736,6.4445 -6.75781,6.71289 l -0.37891,-3.5 2.91602,-0.97656 0.47656,3.13476 0.80859,-0.66015 -0.40039,-2.93359 c 1.62892,-1.29518 2.62853,-1.80509 3.14453,-1.80665 z m -8.15234,3.63477 0.37695,3.40039 c -1.10175,0.48761 -2.20489,0.47117 -3.30664,0.41406 l -0.3789,-3.3457 z m -4.51562,0.72852 0.3789,3.07031 c 0,0 -2.44305,-0.49816 -3.69531,-2.41797 z"
             style="color:#000000;clip-rule:nonzero;display:inline;overflow:visible;visibility:visible;opacity:1;isolation:auto;mix-blend-mode:normal;color-interpolation:sRGB;color-interpolation-filters:linearRGB;solid-color:#000000;solid-opacity:1;fill:#729fcf;fill-opacity:1;fill-rule:nonzero;stroke:none;stroke-width:1;stroke-linecap:butt;stroke-linejoin:miter;stroke-miterlimit:4;stroke-dasharray:none;stroke-dashoffset:0;stroke-opacity:1;marker:none;color-rendering:auto;image-rendering:auto;shape-rendering:auto;text-rendering:auto;enable-background:accumulate" />
        </g>
      </g>
      <path
         style="color:#000000;clip-rule:nonzero;display:inline;overflow:visible;visibility:visible;opacity:1;isolation:auto;mix-blend-mode:normal;color-interpolation:sRGB;color-interpolation-filters:linearRGB;solid-color:#000000;solid-opacity:1;fill:#ffffff;fill-opacity:1;fill-rule:nonzero;stroke:none;stroke-width:1;stroke-linecap:butt;stroke-linejoin:miter;stroke-miterlimit:4;stroke-dasharray:none;stroke-dashoffset:0;stroke-opacity:1;marker:none;color-rendering:auto;image-rendering:auto;shape-rendering:auto;text-rendering:auto;enable-background:accumulate"
         d="m 104.10038,-822.77824 0,27.65045 6.90009,0 0,-9.87197 2.14923,9.87197 6.64257,0 -3.63588,-13.62756 2.80068,-9.034 -5.80737,0 -2.14923,6.62447 0,-11.61336 -6.90009,0 z m 23.12232,4.57825 c -1.51425,0 -2.8451,0.23199 -3.99501,0.69878 -1.13853,0.4668 -1.94945,1.13359 -2.42763,1.99889 -0.47818,0.8539 -0.71547,2.18474 -0.71547,3.99501 0,1.27517 0.22133,2.37934 0.66536,3.31293 0.44403,0.92222 1.67889,1.95307 3.70548,3.09161 2.4137,1.34348 3.75123,2.15159 4.0131,2.42484 0.25048,0.27324 0.37583,0.9521 0.37583,2.0337 0,0.78559 -0.0946,1.30298 -0.28814,1.55346 -0.19353,0.23909 -0.53632,0.35913 -1.02589,0.35913 -0.45542,0 -0.76349,-0.18133 -0.92289,-0.54566 -0.14801,-0.36433 -0.22272,-1.15648 -0.22272,-2.37473 l 0,-1.43654 -6.115,0 0,1.09411 c 0,1.88996 0.23617,3.30221 0.70295,4.23582 0.46681,0.93359 1.31886,1.6751 2.55987,2.22161 1.25238,0.54649 2.75533,0.81849 4.50865,0.81849 1.58259,0 2.93212,-0.25074 4.0479,-0.75168 1.12713,-0.51236 1.93135,-1.23511 2.40953,-2.16871 0.47817,-0.94497 0.71548,-2.34127 0.71548,-4.18571 0,-1.65088 -0.31199,-2.90839 -0.9382,-3.77368 -0.62618,-0.86529 -1.94106,-1.78674 -3.94489,-2.76588 -1.50287,-0.74005 -2.49902,-1.30416 -2.9886,-1.69127 -0.47818,-0.3871 -0.76753,-0.7405 -0.86999,-1.0593 -0.0911,-0.33016 -0.13781,-0.84086 -0.13781,-1.53536 0,-0.51236 0.0973,-0.89374 0.29093,-1.14421 0.19357,-0.26187 0.48567,-0.39533 0.87277,-0.39533 0.47819,0 0.77146,0.1441 0.88531,0.42873 0.12523,0.27325 0.18792,0.93334 0.18792,1.9808 l 0,1.23052 6.115,0 0,-1.31822 c 0,-1.13853 -0.0626,-1.97326 -0.18792,-2.50836 -0.11386,-0.53511 -0.45384,-1.1138 -1.02311,-1.73999 -0.55789,-0.62621 -1.36879,-1.12763 -2.42763,-1.50334 -1.04746,-0.38711 -2.32232,-0.58046 -3.82518,-0.58046 z m -76.417365,0.007 c -1.946905,0 -3.528439,0.36125 -4.746675,1.08992 -1.218236,0.72865 -2.033085,1.57149 -2.442943,2.52786 -0.398491,0.94498 -0.598553,2.29454 -0.598553,4.0479 l 0,1.52144 6.472744,0 0,-2.37473 c 0,-1.26379 0.05602,-2.04391 0.169822,-2.33993 0.113854,-0.30741 0.404599,-0.46214 0.871387,-0.46214 0.409873,0 0.701994,0.18411 0.872777,0.54844 0.182166,0.35295 0.272828,1.12245 0.272828,2.30653 0,0.94498 -0.07858,1.56899 -0.238027,1.87639 -0.159402,0.30741 -1.374366,0.90622 -3.640054,1.79428 -2.117675,0.81975 -3.443187,1.53581 -3.978302,2.15062 -0.535115,0.61481 -0.803175,1.77103 -0.803175,3.46744 l 0,1.86248 c 0,2.28846 0.501433,3.7754 1.503344,4.45854 1.013307,0.67172 2.124189,1.00502 3.331029,1.00502 0.922217,0 1.712984,-0.19868 2.373341,-0.59717 0.671725,-0.40987 1.218514,-1.01794 1.639761,-1.82629 l 0,2.0156 6.712168,0 0,-11.37393 c 0,-3.74579 -0.121429,-6.21965 -0.360525,-7.41512 -0.239089,-1.20685 -0.949834,-2.21758 -2.133918,-3.03732 -1.184076,-0.83114 -2.943036,-1.24583 -5.277029,-1.24583 z m 16.756754,0 c -1.946905,0 -3.528439,0.36125 -4.746675,1.08992 -1.218236,0.72865 -2.033085,1.57149 -2.442943,2.52786 -0.398491,0.94498 -0.598552,2.29454 -0.598552,4.0479 l 0,1.52144 6.472744,0 0,-2.37473 c 0,-1.26379 0.05602,-2.04391 0.169821,-2.33993 0.113854,-0.30741 0.404599,-0.46214 0.871388,-0.46214 0.409872,0 0.701993,0.18411 0.872777,0.54844 0.182165,0.35295 0.272828,1.12245 0.272828,2.30653 0,0.94498 -0.07859,1.56899 -0.238027,1.87639 -0.159402,0.30741 -1.374367,0.90622 -3.640055,1.79428 -2.117675,0.81975 -3.443186,1.53581 -3.978301,2.15062 -0.535115,0.61481 -0.803175,1.77103 -0.803175,3.46744 l 0,1.86248 c 0,2.28846 0.501425,3.7754 1.503343,4.45854 1.0133,0.67172 2.124189,1.00502 3.331029,1.00502 0.922217,0 1.712984,-0.19868 2.373341,-0.59717 0.671725,-0.40987 1.218514,-1.01794 1.639762,-1.82629 l 0,2.0156 6.712167,0 0,-11.37393 c 0,-3.74579 -0.121429,-6.21965 -0.360525,-7.41512 -0.239089,-1.20685 -0.949834,-2.21758 -2.133917,-3.03732 -1.184077,-0.83114 -2.943037,-1.24583 -5.27703,-1.24583 z m 21.279322,0 c -0.944988,0 -1.786392,0.21463 -2.526457,0.64727 -0.740052,0.42127 -1.377474,1.05869 -1.912589,1.91259 l 0.118315,-2.15061 -6.815174,0 0,22.66295 6.696859,0 0,-15.71415 c 0,-1.093 0.0104,-1.80376 0.03342,-2.13392 0.02281,-0.34156 0.1442,-0.62558 0.360526,-0.85329 0.216311,-0.23909 0.474899,-0.36052 0.7823,-0.36052 0.489566,0 0.785614,0.22133 0.888085,0.66536 0.113854,0.44403 0.171219,1.77766 0.171219,3.9978 l 0,14.39872 6.694072,0 0,-14.77317 c 0,-1.94689 0.06942,-3.14984 0.206013,-3.60525 0.147999,-0.45542 0.468128,-0.68346 0.957688,-0.68346 0.478199,0 0.778159,0.23615 0.903401,0.70295 0.136624,0.45543 0.204623,1.65026 0.204623,3.58576 l 0,14.77317 6.695458,0 0,-16.1053 c 0,-1.85583 -0.10805,-3.19475 -0.32433,-4.01449 -0.21634,-0.83113 -0.71244,-1.52984 -1.48665,-2.09912 -0.762819,-0.56926 -1.729592,-0.85329 -2.902287,-0.85329 -0.88805,0 -1.696171,0.21463 -2.424848,0.64727 -0.728662,0.42127 -1.384836,1.05869 -1.965485,1.91259 -1.058848,-1.70781 -2.509716,-2.55986 -4.354143,-2.55986 z m -37.164689,12.29404 0,4.66316 c 0,1.13854 -0.06949,1.84397 -0.206012,2.11721 -0.125235,0.26186 -0.402546,0.39254 -0.835197,0.39254 -0.455399,0 -0.766278,-0.1693 -0.925666,-0.51086 -0.148013,-0.34156 -0.219939,-1.09903 -0.219939,-2.27172 0,-1.02468 0.08671,-1.81152 0.25752,-2.35803 0.182179,-0.54649 0.824905,-1.22394 1.929294,-2.0323 z m 16.756755,0 0,4.66316 c 0,1.13854 -0.06949,1.84397 -0.206013,2.11721 -0.125235,0.26186 -0.402546,0.39254 -0.835196,0.39254 -0.4554,0 -0.766279,-0.1693 -0.925674,-0.51086 -0.148013,-0.34156 -0.219931,-1.09903 -0.219931,-2.27172 0,-1.02468 0.08671,-1.81152 0.257519,-2.35803 0.18218,-0.54649 0.824905,-1.22394 1.929295,-2.0323 z"
         id="path4087"
         inkscape:connector-curvature="0" />
    </g>
  </g>
</svg>
