<?xml version="1.0" encoding="UTF-8" standalone="no"?>
<!-- Created with Inkscape (http://www.inkscape.org/) -->

<svg
   xmlns:dc="http://purl.org/dc/elements/1.1/"
   xmlns:cc="http://creativecommons.org/ns#"
   xmlns:rdf="http://www.w3.org/1999/02/22-rdf-syntax-ns#"
   xmlns:svg="http://www.w3.org/2000/svg"
   xmlns="http://www.w3.org/2000/svg"
   xmlns:sodipodi="http://sodipodi.sourceforge.net/DTD/sodipodi-0.dtd"
   xmlns:inkscape="http://www.inkscape.org/namespaces/inkscape"
   width="43.812546mm"
   height="27.753992mm"
   viewBox="0 0 155.2413 98.340915"
   id="svg2"
   version="1.1"
   inkscape:version="0.91 r13725"
   sodipodi:docname="logo_aamks.svg">
  <defs
     id="defs4">
    <inkscape:path-effect
       effect="powerstroke"
       id="path-effect5176"
       is_visible="true"
       offset_points="0,0.5"
       sort_points="true"
       interpolator_type="Linear"
       interpolator_beta="0.2"
       start_linecap_type="zerowidth"
       linejoin_type="round"
       miter_limit="4"
       end_linecap_type="zerowidth"
       cusp_linecap_type="round" />
    <inkscape:path-effect
       effect="spiro"
       id="path-effect5174"
       is_visible="true" />
    <inkscape:path-effect
       effect="powerstroke"
       id="path-effect3344"
       is_visible="true"
       offset_points="0,0.5"
       sort_points="true"
       interpolator_type="Linear"
       interpolator_beta="0.2"
       start_linecap_type="zerowidth"
       linejoin_type="round"
       miter_limit="4"
       end_linecap_type="zerowidth"
       cusp_linecap_type="round" />
    <inkscape:path-effect
       effect="spiro"
       id="path-effect3342"
       is_visible="true" />
  </defs>
  <sodipodi:namedview
     id="base"
     pagecolor="#ffffff"
     bordercolor="#666666"
     borderopacity="1.0"
     inkscape:pageopacity="0.0"
     inkscape:pageshadow="2"
     inkscape:zoom="0.70710678"
     inkscape:cx="-519.30415"
     inkscape:cy="-312.70949"
     inkscape:document-units="px"
     inkscape:current-layer="layer1"
     showgrid="false"
     inkscape:snap-global="false"
     showguides="true"
     inkscape:guide-bbox="true"
     inkscape:window-width="1680"
     inkscape:window-height="1008"
     inkscape:window-x="0"
     inkscape:window-y="0"
     inkscape:window-maximized="1"
     fit-margin-top="0"
     fit-margin-left="0"
     fit-margin-right="0"
     fit-margin-bottom="0"
     showborder="false" />
  <metadata
     id="metadata7">
    <rdf:RDF>
      <cc:Work
         rdf:about="">
        <dc:format>image/svg+xml</dc:format>
        <dc:type
           rdf:resource="http://purl.org/dc/dcmitype/StillImage" />
        <dc:title />
      </cc:Work>
    </rdf:RDF>
  </metadata>
  <g
     inkscape:label="Layer 1"
     inkscape:groupmode="layer"
     id="layer1"
     transform="translate(-13.87127,833.2625)">
    <g
       id="g3379"
       transform="matrix(1.4797332,0,0,1.4797332,-59.276417,366.72883)">
      <rect
         y="-814.47107"
         x="45.584488"
         height="100.05561"
         width="155.95345"
         id="rect3377"
         style="color:#000000;clip-rule:nonzero;display:inline;overflow:visible;visibility:visible;opacity:1;isolation:auto;mix-blend-mode:normal;color-interpolation:sRGB;color-interpolation-filters:linearRGB;solid-color:#000000;solid-opacity:1;fill:#ffffff;fill-opacity:1;fill-rule:nonzero;stroke:none;stroke-width:1;stroke-linecap:butt;stroke-linejoin:miter;stroke-miterlimit:4;stroke-dasharray:none;stroke-dashoffset:0;stroke-opacity:1;marker:none;color-rendering:auto;image-rendering:auto;shape-rendering:auto;text-rendering:auto;enable-background:accumulate" />
      <g
         transform="matrix(0.97637825,0,0,0.97637825,33.969639,1.1011244)"
         id="g4230">
        <g
           transform="matrix(0.88110257,0,0,0.88110257,-570.18013,-800.2708)"
           id="g4089">
          <g
             id="g4091"
             transform="translate(-83.003569,172.12341)" />
          <g
             transform="translate(-22.89949,172.12341)"
             id="g4095">
            <path
               sodipodi:nodetypes="ssss"
               inkscape:connector-curvature="0"
               id="path4097"
               d="m 834.41799,-115.39683 c -4.69077,12.36163 -18.6223,3.43259 -19.38292,3.43259 0,0 -13.29426,-21.62162 3.13779,-25.36746 9.3928,-2.14117 18.20451,16.77132 16.24513,21.93487 z"
               style="color:#000000;clip-rule:nonzero;display:inline;overflow:visible;visibility:visible;opacity:1;isolation:auto;mix-blend-mode:normal;color-interpolation:sRGB;color-interpolation-filters:linearRGB;solid-color:#000000;solid-opacity:1;fill:#ffffff;fill-opacity:1;fill-rule:nonzero;stroke:none;stroke-width:1;stroke-linecap:butt;stroke-linejoin:miter;stroke-miterlimit:4;stroke-dasharray:none;stroke-dashoffset:0;stroke-opacity:1;marker:none;color-rendering:auto;image-rendering:auto;shape-rendering:auto;text-rendering:auto;enable-background:accumulate" />
          </g>
          <g
             id="g4099"
             transform="matrix(0.84016959,0,0,0.84016959,121.59258,4.7127883)">
            <g
               id="g4101"
               transform="translate(-143.10764,172.12341)">
              <path
                 style="color:#000000;clip-rule:nonzero;display:inline;overflow:visible;visibility:visible;opacity:1;isolation:auto;mix-blend-mode:normal;color-interpolation:sRGB;color-interpolation-filters:linearRGB;solid-color:#000000;solid-opacity:1;fill:#ffffff;fill-opacity:1;fill-rule:nonzero;stroke:none;stroke-width:1;stroke-linecap:butt;stroke-linejoin:miter;stroke-miterlimit:4;stroke-dasharray:none;stroke-dashoffset:0;stroke-opacity:1;marker:none;color-rendering:auto;image-rendering:auto;shape-rendering:auto;text-rendering:auto;enable-background:accumulate"
                 d="m 834.41799,-115.39683 c -4.69077,12.36163 -18.6223,3.43259 -19.38292,3.43259 0,0 -13.29426,-21.62162 3.13779,-25.36746 9.3928,-2.14117 18.20451,16.77132 16.24513,21.93487 z"
                 id="path4103"
                 inkscape:connector-curvature="0"
                 sodipodi:nodetypes="ssss" />
            </g>
          </g>
          <g
             id="g4107"
             transform="matrix(0.84016959,0,0,0.84016959,173.57542,4.7127883)">
            <g
               transform="translate(-143.10764,172.12341)"
               id="g4109">
              <path
                 sodipodi:nodetypes="ssss"
                 inkscape:connector-curvature="0"
                 id="path4111"
                 d="m 834.41799,-115.39683 c -4.69077,12.36163 -18.6223,3.43259 -19.38292,3.43259 0,0 -13.29426,-21.62162 3.13779,-25.36746 9.3928,-2.14117 18.20451,16.77132 16.24513,21.93487 z"
                 style="color:#000000;clip-rule:nonzero;display:inline;overflow:visible;visibility:visible;opacity:1;isolation:auto;mix-blend-mode:normal;color-interpolation:sRGB;color-interpolation-filters:linearRGB;solid-color:#000000;solid-opacity:1;fill:#ffffff;fill-opacity:1;fill-rule:nonzero;stroke:none;stroke-width:1;stroke-linecap:butt;stroke-linejoin:miter;stroke-miterlimit:4;stroke-dasharray:none;stroke-dashoffset:0;stroke-opacity:1;marker:none;color-rendering:auto;image-rendering:auto;shape-rendering:auto;text-rendering:auto;enable-background:accumulate" />
            </g>
          </g>
          <g
             transform="matrix(0.84016959,0,0,0.84016959,225.26121,4.7127883)"
             id="g4115">
            <g
               id="g4117"
               transform="translate(-143.10764,172.12341)">
              <path
                 style="color:#000000;clip-rule:nonzero;display:inline;overflow:visible;visibility:visible;opacity:1;isolation:auto;mix-blend-mode:normal;color-interpolation:sRGB;color-interpolation-filters:linearRGB;solid-color:#000000;solid-opacity:1;fill:#ffffff;fill-opacity:1;fill-rule:nonzero;stroke:none;stroke-width:1;stroke-linecap:butt;stroke-linejoin:miter;stroke-miterlimit:4;stroke-dasharray:none;stroke-dashoffset:0;stroke-opacity:1;marker:none;color-rendering:auto;image-rendering:auto;shape-rendering:auto;text-rendering:auto;enable-background:accumulate"
                 d="m 834.41799,-115.39683 c -4.69077,12.36163 -18.6223,3.43259 -19.38292,3.43259 0,0 -13.29426,-21.62162 3.13779,-25.36746 9.3928,-2.14117 18.20451,16.77132 16.24513,21.93487 z"
                 id="path4119"
                 inkscape:connector-curvature="0"
                 sodipodi:nodetypes="ssss" />
            </g>
            <g
               id="g3366">
              <path
                 inkscape:connector-curvature="0"
                 transform="matrix(1.3508483,0,0,1.3508483,520.85085,-50.176116)"
                 id="ellipse4212"
                 d="m 0,0 0,49.603516 3.2832031,0 a 12.878875,8.5625001 0 0 0 9.7246089,2.964843 12.878875,8.5625001 0 0 0 7.679688,-1.701171 9.8093311,6.0625001 0 0 0 8.638672,3.201171 9.8093311,6.0625001 0 0 0 4.955078,-0.83789 9.8093311,6.0625001 0 0 0 9.566406,4.755859 9.8093311,6.0625001 0 0 0 9.746094,-5.392578 9.8093311,6.0625001 0 0 0 4.982422,0.849609 9.8093311,6.0625001 0 0 0 2.402344,-0.189453 16.703623,6.0625001 0 0 0 16.25,4.689453 16.703623,6.0625001 0 0 0 13.345703,-2.427734 9.8093311,6.0625001 0 0 0 9.376953,4.302734 9.8093311,6.0625001 0 0 0 9.753908,-5.421875 9.8093311,6.0625001 0 0 0 6.74609,1.671875 9.8093311,6.0625001 0 0 0 2.83008,-0.263671 11.184331,6.0625001 0 0 0 11.04492,5.138671 11.184331,6.0625001 0 0 0 11.18555,-6.0625 11.184331,6.0625001 0 0 0 -1.87695,-3.353515 12.121831,12.1875 0 0 0 6.52539,-10.802735 12.121831,12.1875 0 0 0 -0.15235,-1.865234 16.793785,13.700193 0 0 0 2.74024,-3.214844 8.8545238,11.110023 81.586052 0 0 5.6582,-4.99414 8.8545238,11.110023 81.586052 0 0 -0.93164,-8.15625 5.4311943,5.7698525 44.616406 0 0 1.06055,-2.257813 5.4311943,5.7698525 44.616406 0 0 -4.19141,-6.460937 5.4311943,5.7698525 44.616406 0 0 -4.61719,1.248047 3.0935922,3.6239222 11.194649 0 0 -0.33398,-1.123047 2.5386253,3.2320831 7.184683 0 0 2.4043,-2.671875 2.5386253,3.2320831 7.184683 0 0 -1.90821,-3.712891 2.5386253,3.2320831 7.184683 0 0 -1.55078,0.2832031 A 9.2903577,5.8375502 65.412351 0 0 143.84766,6.1308594 9.2903577,5.8375502 65.412351 0 0 139.41406,0 L 0,0 Z m 148.07812,0.57617188 a 2.0065665,2.350549 11.194649 0 0 -2.08203,1.94921872 2.0065665,2.350549 11.194649 0 0 1.51172,2.6953125 2.0065665,2.350549 11.194649 0 0 2.42383,-1.9160156 2.0065665,2.350549 11.194649 0 0 -1.51172,-2.6953125 2.0065665,2.350549 11.194649 0 0 -0.3418,-0.0332031 z m 3.69141,5.21289062 a 3.0935922,3.6239222 11.194649 0 0 -3.21094,3.0039063 3.0935922,3.6239222 11.194649 0 0 2.33008,4.1562502 3.0935922,3.6239222 11.194649 0 0 3.73828,-2.9550784 3.0935922,3.6239222 11.194649 0 0 -2.33007,-4.15625 3.0935922,3.6239222 11.194649 0 0 -0.52735,-0.048828 z m -2.52148,31.9785155 a 2.0065665,2.350549 11.194649 0 0 -2.08399,1.949219 2.0065665,2.350549 11.194649 0 0 1.51367,2.695312 2.0065665,2.350549 11.194649 0 0 2.42383,-1.916015 2.0065665,2.350549 11.194649 0 0 -1.51172,-2.695313 2.0065665,2.350549 11.194649 0 0 -0.34179,-0.0332 z m -0.22657,6.095703 a 3.0523231,3.5755776 11.194649 0 0 -3.16992,2.964844 3.0523231,3.5755776 11.194649 0 0 2.30078,4.099609 3.0523231,3.5755776 11.194649 0 0 3.6875,-2.916015 3.0523231,3.5755776 11.194649 0 0 -2.30078,-4.09961 3.0523231,3.5755776 11.194649 0 0 -0.51758,-0.04883 z m -5.12109,6.5 a 1.4702812,1.7223291 11.194649 0 0 -1.52734,1.427735 1.4702812,1.7223291 11.194649 0 0 1.10742,1.974609 1.4702812,1.7223291 11.194649 0 0 1.77734,-1.404297 1.4702812,1.7223291 11.194649 0 0 -1.10742,-1.974609 1.4702812,1.7223291 11.194649 0 0 -0.25,-0.02344 z M 28.533203,61.292969 c -4.273507,-0.08692 -8.449941,1.073026 -11.435547,2.722656 1.929284,-0.903203 4.224987,-0.75021 6.064453,0.03516 -0.05389,-0.01273 -0.110523,-0.01864 -0.167968,-0.01953 -0.417516,-0.0037 -0.865087,0.30688 -1.128907,0.783203 -0.353999,0.639384 -0.265569,1.364463 0.197266,1.621094 0.462776,0.25672 1.125684,-0.05248 1.480469,-0.691406 0.32179,-0.579666 0.283129,-1.242287 -0.08984,-1.550782 0.647608,0.309421 1.223199,0.69838 1.699219,1.148438 -0.433232,0.02051 -0.885605,0.345773 -1.15625,0.833984 -0.378407,0.68366 -0.283922,1.459955 0.210937,1.734375 0.494934,0.274865 1.202611,-0.05467 1.582031,-0.738281 0.131807,-0.237599 0.210757,-0.500482 0.228516,-0.751953 0.783693,1.384086 0.660077,3.080157 -1.111328,4.730469 -2.746844,2.559066 -6.941406,-0.47461 -6.941406,-0.47461 -9.2111901,0.336559 -10.3943482,11.25617 -4.644532,12.603516 2.4477,0.598202 4.809218,-1.397625 6.332032,-2.044922 -0.265256,0.136655 -0.850921,0.493982 -1.28125,1.160156 0,0 -0.968069,2.840731 -0.96875,2.853516 -1.336938,0.16101 -2.672662,0.452165 -4.003906,0.689453 -0.661163,-0.625037 -1.781041,-0.53226 -2.517579,0.207031 -0.08612,0.08716 -0.1647,0.18314 -0.234375,0.283203 C 10.426771,86.231968 10.060653,86.162736 9.6953125,86.25 c -0.5331761,0.127424 -0.8943509,0.538338 -0.8027344,0.921875 0.091683,0.383352 0.6016488,0.59226 1.1347659,0.464844 0.08461,-0.0208 0.166012,-0.04884 0.24414,-0.08398 -7.4e-4,0.101314 0.0038,0.203176 0.01953,0.300782 -0.20559,-0.07486 -0.4522076,-0.08458 -0.6933598,-0.02734 C 9.064495,87.953633 8.7050364,88.366537 8.796875,88.75 c 0.020506,0.086 0.06457,0.16251 0.1269531,0.232422 0.2080915,0.232631 0.6097145,0.327666 1.0078125,0.232422 0.3493134,-0.08367 0.6357504,-0.294644 0.7539064,-0.554688 0.0081,0.01044 0.01794,0.01794 0.02734,0.02734 0.04479,0.04375 0.09199,0.086 0.142578,0.123047 -0.09493,0.05108 -0.179956,0.114981 -0.261719,0.189453 -0.404568,0.370027 -0.518238,0.906389 -0.251953,1.197266 0.04797,0.053 0.105826,0.09475 0.173828,0.125 l 0,-0.002 c 0.296754,0.133902 0.715948,0.02416 1.037109,-0.269531 0.29004,-0.266033 0.441228,-0.629522 0.382813,-0.927734 0.229922,-0.01473 0.461986,-0.07237 0.681641,-0.171875 -0.0081,0.154954 0.01234,0.320653 0.06445,0.476562 0.172965,0.520066 0.61601,0.840971 0.990234,0.716797 0.374402,-0.124403 0.538089,-0.651624 0.365234,-1.171875 -0.108872,-0.326217 -0.331111,-0.586657 -0.58789,-0.691406 0.194485,-0.257557 0.328429,-0.552215 0.386719,-0.855469 1.115158,-0.244298 2.224051,-0.560942 3.347656,-0.736328 -0.146168,1.471905 -0.02038,3.121136 0.77539,4.615235 l -1.998046,0.871093 -0.25586,3.734375 c -1.263872,0.05745 -4.326933,-0.226483 -5.193359,1.111328 l 6.857422,1.320313 0.07422,-4.771485 1.746094,-0.589843 c 2.917404,3.044154 8.309078,4.089613 12.896485,3.021484 2.523532,-0.587579 4.638165,-1.405796 6.398437,-2.396484 l 2.328125,3.128906 3.865234,-2.259766 c 0.901449,0.887731 2.351788,3.289897 3.921875,3.015625 l -3,-6.207031 -4.521484,3.427735 -1.162109,-1.998047 c 5.910752,-4.129783 6.79404,-10.586736 4.93164,-16.576172 0.875776,0.361943 1.881042,0.951521 2.642578,1.357422 l 1.441407,1.27539 c -0.01044,0.308614 0.0495,0.623539 0.18164,0.917969 -0.27365,0.04479 -0.547697,0.253156 -0.726562,0.546875 -0.284473,0.468631 -0.237453,1.016039 0.09961,1.220703 0.337114,0.204479 0.8385,-0.01015 1.123047,-0.478516 0.08554,-0.140378 0.142857,-0.294494 0.169922,-0.447265 0.191894,0.146123 0.408045,0.25661 0.628906,0.322265 -0.123411,0.277648 -0.06168,0.664256 0.162109,0.988282 0.24763,0.357879 0.632047,0.558515 0.951172,0.49414 0.07299,-0.01429 0.142572,-0.04314 0.201172,-0.08398 0.324411,-0.224207 0.333415,-0.773693 0.02148,-1.224609 -0.06315,-0.09076 -0.135678,-0.171292 -0.216797,-0.242188 0.05745,-0.0248 0.114343,-0.0533 0.167968,-0.08594 0.0117,-0.0081 0.02029,-0.01493 0.03125,-0.02344 0.05708,0.279869 0.291417,0.551519 0.613282,0.710938 0.366858,0.181589 0.776558,0.181951 1.03125,0.002 0.07648,-0.05419 0.134623,-0.123931 0.173828,-0.203125 0.175008,-0.353363 -0.07888,-0.835004 -0.570313,-1.078125 -0.22229,-0.109561 -0.466485,-0.15603 -0.683593,-0.128907 0.03761,-0.09145 0.06632,-0.190087 0.08789,-0.289062 0.06825,0.05189 0.142841,0.09962 0.220703,0.138672 0.491292,0.24304 1.030196,0.154137 1.205079,-0.199219 0.174801,-0.353459 -0.08287,-0.838969 -0.574219,-1.082031 -0.3367,-0.166481 -0.71089,-0.177193 -0.96875,-0.03516 -0.04553,-0.113151 -0.101449,-0.22789 -0.166016,-0.332032 -0.553178,-0.884895 -1.622379,-1.219729 -2.40625,-0.757812 L 47.572266,75.917969 C 46.553691,75.195393 44.023438,73.921875 44.023438,73.921875 41.04847,67.022536 34.63186,61.266348 28.533203,61.292969 Z m 45.802735,0 c -4.273508,-0.08692 -8.449942,1.073026 -11.435547,2.722656 1.929284,-0.903203 4.224986,-0.75021 6.064453,0.03516 -0.05389,-0.01273 -0.110524,-0.01864 -0.167969,-0.01953 -0.417515,-0.0037 -0.865087,0.30688 -1.128906,0.783203 -0.354,0.639384 -0.26557,1.364463 0.197265,1.621094 0.462776,0.25672 1.123732,-0.05248 1.478516,-0.691406 0.32179,-0.579666 0.283129,-1.242287 -0.08984,-1.550782 0.647608,0.309421 1.2232,0.69838 1.699219,1.148438 -0.433231,0.02051 -0.883652,0.345773 -1.154297,0.833984 -0.378407,0.68366 -0.283922,1.459955 0.210938,1.734375 0.494933,0.274865 1.20261,-0.05467 1.582031,-0.738281 0.131806,-0.237599 0.210756,-0.500482 0.228515,-0.751953 0.783693,1.384086 0.658125,3.080157 -1.113281,4.730469 -2.746844,2.559066 -6.941406,-0.47461 -6.941406,-0.47461 -9.21119,0.336559 -10.392395,11.25617 -4.642578,12.603516 2.447699,0.598202 4.807264,-1.397625 6.330078,-2.044922 -0.265256,0.136655 -0.848967,0.493982 -1.279297,1.160156 0,0 -0.968069,2.840731 -0.96875,2.853516 -1.336938,0.16101 -2.672661,0.452165 -4.003906,0.689453 -0.661162,-0.625037 -1.781041,-0.53226 -2.517578,0.207031 -0.08612,0.08716 -0.164701,0.18314 -0.234375,0.283203 -0.219714,-0.195766 -0.585831,-0.264998 -0.951172,-0.177734 -0.533176,0.127424 -0.894351,0.538338 -0.802735,0.921875 0.09168,0.383352 0.599696,0.59226 1.132813,0.464844 0.08461,-0.0208 0.166012,-0.04884 0.244141,-0.08398 -7.41e-4,0.101314 0.0057,0.203176 0.02148,0.300782 -0.205589,-0.07486 -0.45416,-0.08458 -0.695312,-0.02734 -0.533162,0.127461 -0.890667,0.540365 -0.798829,0.923828 0.02051,0.086 0.06457,0.16251 0.126953,0.232422 0.208092,0.232631 0.607762,0.327666 1.00586,0.232422 0.349314,-0.08367 0.637704,-0.294644 0.755859,-0.554688 0.0081,0.01044 0.01794,0.01794 0.02734,0.02734 0.04479,0.04375 0.09004,0.086 0.140625,0.123047 -0.09493,0.05108 -0.179955,0.114981 -0.261719,0.189453 -0.404568,0.370027 -0.516284,0.906389 -0.25,1.197266 0.04797,0.053 0.103874,0.09475 0.171875,0.125 l 0,-0.002 c 0.296755,0.133902 0.717902,0.02416 1.039063,-0.269531 0.29004,-0.266033 0.439274,-0.629522 0.380859,-0.927734 0.229922,-0.01473 0.463939,-0.07237 0.683594,-0.171875 -0.0081,0.154954 0.01234,0.320653 0.06445,0.476562 0.172965,0.520066 0.61601,0.840971 0.990234,0.716797 0.374402,-0.124403 0.538089,-0.651624 0.365235,-1.171875 -0.108873,-0.326217 -0.331111,-0.586657 -0.587891,-0.691406 0.194485,-0.257557 0.32843,-0.552215 0.386719,-0.855469 1.115158,-0.244298 2.224051,-0.560942 3.347656,-0.736328 -0.146167,1.471905 -0.02234,3.121136 0.773438,4.615235 l -1.998047,0.871093 -0.25586,3.734375 c -1.263872,0.05745 -4.32498,-0.226483 -5.191406,1.111328 l 6.855469,1.320313 0.07617,-4.771485 1.74414,-0.589843 c 2.917404,3.044154 8.311032,4.089613 12.898438,3.021484 2.523533,-0.587579 4.638166,-1.405796 6.398437,-2.396484 l 2.328125,3.128906 3.865235,-2.259766 c 0.901448,0.887731 2.349834,3.289897 3.919922,3.015625 l -2.998047,-6.207031 -4.523438,3.427735 -1.160156,-1.998047 c 5.910753,-4.129783 6.794041,-10.586736 4.931641,-16.576172 0.875775,0.361943 1.881041,0.951521 2.642578,1.357422 l 1.441406,1.27539 c -0.01044,0.308614 0.0495,0.623539 0.181641,0.917969 -0.273651,0.04479 -0.547697,0.253156 -0.726563,0.546875 -0.284473,0.468631 -0.237453,1.016039 0.09961,1.220703 0.337115,0.204479 0.8385,-0.01015 1.123047,-0.478516 0.08554,-0.140378 0.142858,-0.294494 0.169922,-0.447265 0.191894,0.146123 0.406092,0.25661 0.626953,0.322265 -0.123411,0.277648 -0.05973,0.664256 0.164063,0.988282 0.247629,0.357879 0.632046,0.558515 0.951172,0.49414 0.07299,-0.01429 0.140618,-0.04314 0.199219,-0.08398 0.32441,-0.224207 0.335367,-0.773693 0.02344,-1.224609 -0.06315,-0.09076 -0.137631,-0.171292 -0.21875,-0.242188 0.05745,-0.0248 0.114343,-0.0533 0.167969,-0.08594 0.0117,-0.0081 0.02225,-0.01493 0.0332,-0.02344 0.05707,0.279869 0.291417,0.551519 0.613281,0.710938 0.366858,0.181589 0.774605,0.181951 1.029297,0.002 0.07648,-0.05419 0.136576,-0.123931 0.175781,-0.203125 0.175009,-0.353363 -0.07888,-0.835004 -0.570312,-1.078125 -0.22229,-0.109561 -0.466486,-0.15603 -0.683594,-0.128907 0.03761,-0.09145 0.06632,-0.190087 0.08789,-0.289062 0.06825,0.05189 0.142841,0.09962 0.220703,0.138672 0.491291,0.24304 1.030195,0.154137 1.205078,-0.199219 0.174801,-0.353459 -0.08287,-0.838969 -0.574219,-1.082031 -0.336699,-0.166481 -0.712843,-0.177193 -0.970703,-0.03516 -0.04553,-0.113151 -0.0995,-0.22789 -0.164062,-0.332032 -0.553179,-0.884895 -1.62238,-1.219729 -2.40625,-0.757812 L 93.375,75.917969 C 92.356425,75.195393 89.824219,73.921875 89.824219,73.921875 86.849251,67.022536 80.434594,61.266348 74.335938,61.292969 Z m 45.541012,0 c -4.2735,-0.08692 -8.44994,1.073026 -11.43554,2.722656 1.92928,-0.903203 4.22303,-0.75021 6.0625,0.03516 -0.0539,-0.01273 -0.10857,-0.01864 -0.16602,-0.01953 -0.41751,-0.0037 -0.86704,0.30688 -1.13086,0.783203 -0.354,0.639384 -0.26362,1.364463 0.19922,1.621094 0.46278,0.25672 1.12373,-0.05248 1.47852,-0.691406 0.32179,-0.579666 0.28312,-1.242287 -0.0898,-1.550782 0.64761,0.309421 1.2232,0.69838 1.69922,1.148438 -0.43323,0.02051 -0.88365,0.345773 -1.1543,0.833984 -0.3784,0.68366 -0.28392,1.459955 0.21094,1.734375 0.49493,0.274865 1.20066,-0.05467 1.58008,-0.738281 0.13181,-0.237599 0.21076,-0.500482 0.22852,-0.751953 0.78369,1.384086 0.66007,3.080157 -1.11133,4.730469 -2.74685,2.559066 -6.94141,-0.47461 -6.94141,-0.47461 -9.21119,0.336559 -10.394347,11.25617 -4.64453,12.603516 2.4477,0.598202 4.80922,-1.397625 6.33203,-2.044922 -0.26525,0.136655 -0.84897,0.493982 -1.2793,1.160156 0,0 -0.96807,2.840731 -0.96875,2.853516 -1.33693,0.16101 -2.67461,0.452165 -4.00586,0.689453 -0.66116,-0.625037 -1.78104,-0.53226 -2.51757,0.207031 -0.0861,0.08716 -0.16275,0.18314 -0.23243,0.283203 -0.21971,-0.195766 -0.58778,-0.264998 -0.95312,-0.177734 -0.53318,0.127424 -0.8924,0.538338 -0.80078,0.921875 0.0917,0.383352 0.59969,0.59226 1.13281,0.464844 0.0846,-0.0208 0.16601,-0.04884 0.24414,-0.08398 -7.4e-4,0.101314 0.004,0.203176 0.0195,0.300782 -0.20559,-0.07486 -0.4522,-0.08458 -0.69336,-0.02734 -0.53316,0.127461 -0.89066,0.540365 -0.79883,0.923828 0.0205,0.086 0.0646,0.16251 0.12696,0.232422 0.20809,0.232631 0.60776,0.327666 1.00586,0.232422 0.34931,-0.08367 0.6377,-0.294644 0.75586,-0.554688 0.008,0.01044 0.0179,0.01794 0.0273,0.02734 0.0448,0.04375 0.09,0.086 0.14063,0.123047 -0.0949,0.05108 -0.17996,0.114981 -0.26172,0.189453 -0.40457,0.370027 -0.51824,0.906389 -0.25196,1.197266 0.048,0.053 0.10583,0.09475 0.17383,0.125 l 0,-0.002 c 0.29676,0.133902 0.7179,0.02416 1.03906,-0.269531 0.29004,-0.266033 0.43928,-0.629522 0.38086,-0.927734 0.22993,-0.01473 0.46394,-0.07237 0.6836,-0.171875 -0.008,0.154954 0.0123,0.320653 0.0645,0.476562 0.17297,0.520066 0.61601,0.840971 0.99023,0.716797 0.37441,-0.124403 0.53614,-0.651624 0.36329,-1.171875 -0.10888,-0.326217 -0.32916,-0.586657 -0.58594,-0.691406 0.19448,-0.257557 0.32843,-0.552215 0.38672,-0.855469 1.11516,-0.244298 2.2221,-0.560942 3.3457,-0.736328 -0.14617,1.471905 -0.0204,3.121136 0.77539,4.615235 l -1.99805,0.871093 -0.25585,3.734375 c -1.26388,0.05745 -4.32499,-0.226483 -5.19141,1.111328 l 6.85547,1.320313 0.0762,-4.771485 1.74414,-0.589843 c 2.9174,3.044154 8.30908,4.089613 12.89648,3.021484 2.52354,-0.587579 4.64012,-1.405796 6.40039,-2.396484 l 2.32813,3.128906 3.86328,-2.259766 c 0.90145,0.887731 2.35179,3.289897 3.92188,3.015625 l -2.99805,-6.207031 -4.52344,3.427735 -1.16015,-1.998047 c 5.91075,-4.129783 6.79404,-10.586736 4.93164,-16.576172 0.87577,0.361943 1.87908,0.951521 2.64062,1.357422 l 1.44141,1.27539 c -0.0104,0.308614 0.0515,0.623539 0.18359,0.917969 -0.27365,0.04479 -0.5477,0.253156 -0.72656,0.546875 -0.28447,0.468631 -0.23941,1.016039 0.0977,1.220703 0.33712,0.204479 0.8385,-0.01015 1.12305,-0.478516 0.0855,-0.140378 0.14481,-0.294494 0.17188,-0.447265 0.19189,0.146123 0.40609,0.25661 0.62695,0.322265 -0.12341,0.277648 -0.0597,0.664256 0.16406,0.988282 0.24763,0.357879 0.63205,0.558515 0.95117,0.49414 0.073,-0.01429 0.14062,-0.04314 0.19922,-0.08398 0.32441,-0.224207 0.33537,-0.773693 0.0234,-1.224609 -0.0631,-0.09076 -0.13763,-0.171292 -0.21875,-0.242188 0.0575,-0.0248 0.11434,-0.0533 0.16797,-0.08594 0.0117,-0.0081 0.0203,-0.01493 0.0312,-0.02344 0.0571,0.279869 0.29337,0.551519 0.61523,0.710938 0.36686,0.181589 0.77461,0.181951 1.0293,0.002 0.0765,-0.05419 0.13658,-0.123931 0.17578,-0.203125 0.17501,-0.353363 -0.0789,-0.835004 -0.57031,-1.078125 -0.22229,-0.109561 -0.46649,-0.15603 -0.68359,-0.128907 0.0376,-0.09145 0.0663,-0.190087 0.0879,-0.289062 0.0683,0.05189 0.14088,0.09962 0.21875,0.138672 0.49129,0.24304 1.03214,0.154137 1.20703,-0.199219 0.1748,-0.353459 -0.0829,-0.838969 -0.57422,-1.082031 -0.3367,-0.166481 -0.71284,-0.177193 -0.9707,-0.03516 -0.0455,-0.113151 -0.0995,-0.22789 -0.16407,-0.332032 -0.55318,-0.884895 -1.62433,-1.219729 -2.4082,-0.757812 l -2.11719,-1.501953 c -1.01857,-0.722576 -3.54883,-1.996094 -3.54883,-1.996094 -2.97496,-6.899339 -9.38962,-12.655527 -15.48828,-12.628906 z m -97.642575,3.310547 0.0059,0 c 0.0067,-2.15e-4 0.01257,-2.15e-4 0.01953,0 0.184373,-7.41e-4 0.332038,0.145712 0.332031,0.330078 7e-6,0.184373 -0.147666,0.335257 -0.332031,0.333984 -0.183463,0 -0.332032,-0.150514 -0.332032,-0.333984 -4.96e-4,-0.174061 0.133083,-0.316879 0.306641,-0.330078 z m 45.802734,0 0.0039,0 c 0.0067,-2.15e-4 0.01453,-2.15e-4 0.02148,0 0.184373,-7.41e-4 0.332039,0.145712 0.332031,0.330078 8e-6,0.184373 -0.147665,0.335257 -0.332031,0.333984 -0.183462,0 -0.332031,-0.150514 -0.332031,-0.333984 -4.96e-4,-0.174061 0.133083,-0.316879 0.30664,-0.330078 z m 45.541011,0 0.004,0 c 0.007,-2.15e-4 0.0145,-2.15e-4 0.0215,0 0.18437,-7.41e-4 0.33203,0.145712 0.33203,0.330078 0,0.184373 -0.14767,0.335257 -0.33203,0.333984 -0.18347,0 -0.33399,-0.150514 -0.33399,-0.333984 -4.9e-4,-0.174061 0.13504,-0.316879 0.30859,-0.330078 z m -89.185542,1.349609 0.002,0 c 0.0081,-2.89e-4 0.01703,-2.89e-4 0.02539,0 0.196099,6.7e-5 0.355395,0.159377 0.355469,0.355469 -7.4e-5,0.196091 -0.15937,0.353449 -0.355469,0.353515 -0.196084,-5.9e-5 -0.355395,-0.157424 -0.355469,-0.353515 -4.96e-4,-0.185832 0.142842,-0.341034 0.328125,-0.355469 z m 45.802734,0 0.002,0 c 0.0081,-2.89e-4 0.01703,-2.89e-4 0.02539,0 0.196099,6.7e-5 0.355395,0.159377 0.355469,0.355469 -7.4e-5,0.196091 -0.15937,0.353449 -0.355469,0.353515 -0.196084,-5.9e-5 -0.355394,-0.157424 -0.355468,-0.353515 -4.96e-4,-0.185832 0.142841,-0.341034 0.328124,-0.355469 z m 45.539068,0 0.004,0 c 0.008,-2.89e-4 0.0151,-2.89e-4 0.0234,0 0.1961,6.7e-5 0.35735,0.159377 0.35742,0.355469 -7e-5,0.196091 -0.16132,0.353449 -0.35742,0.353515 -0.19609,-5.9e-5 -0.3554,-0.157424 -0.35547,-0.353515 -5e-4,-0.185832 0.14284,-0.341034 0.32813,-0.355469 z M 32.105469,76.775391 c 0.05456,-1.71e-4 0.100391,0.0072 0.140625,0.02148 0.965556,0.349388 -2.114545,4.772021 -5.001953,4.970703 l -0.28125,-2.591797 2.158203,-0.722656 0.353515,2.320313 0.597657,-0.488282 -0.294922,-2.171875 c 1.205849,-0.95879 1.946143,-1.336736 2.328125,-1.33789 z m 45.800781,0 c 0.05456,-1.71e-4 0.102344,0.0072 0.142578,0.02148 0.965556,0.349388 -2.116498,4.772021 -5.003906,4.970703 l -0.279297,-2.591797 2.158203,-0.722656 0.353516,2.320313 0.597656,-0.488282 -0.296875,-2.171875 c 1.20585,-0.95879 1.946143,-1.336736 2.328125,-1.33789 z m 45.54102,0 c 0.0545,-1.71e-4 0.10234,0.0072 0.14257,0.02148 0.96556,0.349388 -2.11649,4.772021 -5.0039,4.970703 l -0.2793,-2.591797 2.1582,-0.722656 0.35157,2.320313 0.59961,-0.488282 -0.29688,-2.171875 c 1.20585,-0.95879 1.94614,-1.336736 2.32813,-1.33789 z m -97.376958,2.691406 0.277344,2.517578 c -0.815598,0.360966 -1.631667,0.348918 -2.447265,0.306641 l -0.279297,-2.476563 2.449218,-0.347656 z m 45.800782,0 0.279297,2.517578 c -0.815599,0.360966 -1.631667,0.348918 -2.447266,0.306641 l -0.28125,-2.476563 2.449219,-0.347656 z m 45.541016,0 0.2793,2.517578 c -0.8156,0.360966 -1.63167,0.348918 -2.44727,0.306641 l -0.28125,-2.476563 2.44922,-0.347656 z m -94.685548,0.539062 0.28125,2.273438 c 0,0 -1.80931,-0.369827 -2.736328,-1.791016 l 2.455078,-0.482422 z m 45.802735,0 0.279297,2.273438 c 0,0 -1.807358,-0.369827 -2.734375,-1.791016 l 2.455078,-0.482422 z m 45.541013,0 0.2793,2.273438 c 0,0 -1.80736,-0.369827 -2.73438,-1.791016 l 2.45508,-0.482422 z"
                 style="color:#000000;clip-rule:nonzero;display:inline;overflow:visible;visibility:visible;opacity:1;isolation:auto;mix-blend-mode:normal;color-interpolation:sRGB;color-interpolation-filters:linearRGB;solid-color:#000000;solid-opacity:1;fill:#729fcf;fill-opacity:1;fill-rule:nonzero;stroke:none;stroke-width:1;stroke-linecap:butt;stroke-linejoin:miter;stroke-miterlimit:4;stroke-dasharray:none;stroke-dashoffset:0;stroke-opacity:1;marker:none;color-rendering:auto;image-rendering:auto;shape-rendering:auto;text-rendering:auto;enable-background:accumulate" />
            </g>
          </g>
        </g>
        <path
           inkscape:connector-curvature="0"
           id="path4087"
           d="m 104.10038,-822.77824 0,27.65045 6.90009,0 0,-9.87197 2.14923,9.87197 6.64257,0 -3.63588,-13.62756 2.80068,-9.034 -5.80737,0 -2.14923,6.62447 0,-11.61336 -6.90009,0 z m 23.12232,4.57825 c -1.51425,0 -2.8451,0.23199 -3.99501,0.69878 -1.13853,0.4668 -1.94945,1.13359 -2.42763,1.99889 -0.47818,0.8539 -0.71547,2.18474 -0.71547,3.99501 0,1.27517 0.22133,2.37934 0.66536,3.31293 0.44403,0.92222 1.67889,1.95307 3.70548,3.09161 2.4137,1.34348 3.75123,2.15159 4.0131,2.42484 0.25048,0.27324 0.37583,0.9521 0.37583,2.0337 0,0.78559 -0.0946,1.30298 -0.28814,1.55346 -0.19353,0.23909 -0.53632,0.35913 -1.02589,0.35913 -0.45542,0 -0.76349,-0.18133 -0.92289,-0.54566 -0.14801,-0.36433 -0.22272,-1.15648 -0.22272,-2.37473 l 0,-1.43654 -6.115,0 0,1.09411 c 0,1.88996 0.23617,3.30221 0.70295,4.23582 0.46681,0.93359 1.31886,1.6751 2.55987,2.22161 1.25238,0.54649 2.75533,0.81849 4.50865,0.81849 1.58259,0 2.93212,-0.25074 4.0479,-0.75168 1.12713,-0.51236 1.93135,-1.23511 2.40953,-2.16871 0.47817,-0.94497 0.71548,-2.34127 0.71548,-4.18571 0,-1.65088 -0.31199,-2.90839 -0.9382,-3.77368 -0.62618,-0.86529 -1.94106,-1.78674 -3.94489,-2.76588 -1.50287,-0.74005 -2.49902,-1.30416 -2.9886,-1.69127 -0.47818,-0.3871 -0.76753,-0.7405 -0.86999,-1.0593 -0.0911,-0.33016 -0.13781,-0.84086 -0.13781,-1.53536 0,-0.51236 0.0973,-0.89374 0.29093,-1.14421 0.19357,-0.26187 0.48567,-0.39533 0.87277,-0.39533 0.47819,0 0.77146,0.1441 0.88531,0.42873 0.12523,0.27325 0.18792,0.93334 0.18792,1.9808 l 0,1.23052 6.115,0 0,-1.31822 c 0,-1.13853 -0.0626,-1.97326 -0.18792,-2.50836 -0.11386,-0.53511 -0.45384,-1.1138 -1.02311,-1.73999 -0.55789,-0.62621 -1.36879,-1.12763 -2.42763,-1.50334 -1.04746,-0.38711 -2.32232,-0.58046 -3.82518,-0.58046 z m -76.417365,0.007 c -1.946905,0 -3.528439,0.36125 -4.746675,1.08992 -1.218236,0.72865 -2.033085,1.57149 -2.442943,2.52786 -0.398491,0.94498 -0.598553,2.29454 -0.598553,4.0479 l 0,1.52144 6.472744,0 0,-2.37473 c 0,-1.26379 0.05602,-2.04391 0.169822,-2.33993 0.113854,-0.30741 0.404599,-0.46214 0.871387,-0.46214 0.409873,0 0.701994,0.18411 0.872777,0.54844 0.182166,0.35295 0.272828,1.12245 0.272828,2.30653 0,0.94498 -0.07858,1.56899 -0.238027,1.87639 -0.159402,0.30741 -1.374366,0.90622 -3.640054,1.79428 -2.117675,0.81975 -3.443187,1.53581 -3.978302,2.15062 -0.535115,0.61481 -0.803175,1.77103 -0.803175,3.46744 l 0,1.86248 c 0,2.28846 0.501433,3.7754 1.503344,4.45854 1.013307,0.67172 2.124189,1.00502 3.331029,1.00502 0.922217,0 1.712984,-0.19868 2.373341,-0.59717 0.671725,-0.40987 1.218514,-1.01794 1.639761,-1.82629 l 0,2.0156 6.712168,0 0,-11.37393 c 0,-3.74579 -0.121429,-6.21965 -0.360525,-7.41512 -0.239089,-1.20685 -0.949834,-2.21758 -2.133918,-3.03732 -1.184076,-0.83114 -2.943036,-1.24583 -5.277029,-1.24583 z m 16.756754,0 c -1.946905,0 -3.528439,0.36125 -4.746675,1.08992 -1.218236,0.72865 -2.033085,1.57149 -2.442943,2.52786 -0.398491,0.94498 -0.598552,2.29454 -0.598552,4.0479 l 0,1.52144 6.472744,0 0,-2.37473 c 0,-1.26379 0.05602,-2.04391 0.169821,-2.33993 0.113854,-0.30741 0.404599,-0.46214 0.871388,-0.46214 0.409872,0 0.701993,0.18411 0.872777,0.54844 0.182165,0.35295 0.272828,1.12245 0.272828,2.30653 0,0.94498 -0.07859,1.56899 -0.238027,1.87639 -0.159402,0.30741 -1.374367,0.90622 -3.640055,1.79428 -2.117675,0.81975 -3.443186,1.53581 -3.978301,2.15062 -0.535115,0.61481 -0.803175,1.77103 -0.803175,3.46744 l 0,1.86248 c 0,2.28846 0.501425,3.7754 1.503343,4.45854 1.0133,0.67172 2.124189,1.00502 3.331029,1.00502 0.922217,0 1.712984,-0.19868 2.373341,-0.59717 0.671725,-0.40987 1.218514,-1.01794 1.639762,-1.82629 l 0,2.0156 6.712167,0 0,-11.37393 c 0,-3.74579 -0.121429,-6.21965 -0.360525,-7.41512 -0.239089,-1.20685 -0.949834,-2.21758 -2.133917,-3.03732 -1.184077,-0.83114 -2.943037,-1.24583 -5.27703,-1.24583 z m 21.279322,0 c -0.944988,0 -1.786392,0.21463 -2.526457,0.64727 -0.740052,0.42127 -1.377474,1.05869 -1.912589,1.91259 l 0.118315,-2.15061 -6.815174,0 0,22.66295 6.696859,0 0,-15.71415 c 0,-1.093 0.0104,-1.80376 0.03342,-2.13392 0.02281,-0.34156 0.1442,-0.62558 0.360526,-0.85329 0.216311,-0.23909 0.474899,-0.36052 0.7823,-0.36052 0.489566,0 0.785614,0.22133 0.888085,0.66536 0.113854,0.44403 0.171219,1.77766 0.171219,3.9978 l 0,14.39872 6.694072,0 0,-14.77317 c 0,-1.94689 0.06942,-3.14984 0.206013,-3.60525 0.147999,-0.45542 0.468128,-0.68346 0.957688,-0.68346 0.478199,0 0.778159,0.23615 0.903401,0.70295 0.136624,0.45543 0.204623,1.65026 0.204623,3.58576 l 0,14.77317 6.695458,0 0,-16.1053 c 0,-1.85583 -0.10805,-3.19475 -0.32433,-4.01449 -0.21634,-0.83113 -0.71244,-1.52984 -1.48665,-2.09912 -0.762819,-0.56926 -1.729592,-0.85329 -2.902287,-0.85329 -0.88805,0 -1.696171,0.21463 -2.424848,0.64727 -0.728662,0.42127 -1.384836,1.05869 -1.965485,1.91259 -1.058848,-1.70781 -2.509716,-2.55986 -4.354143,-2.55986 z m -37.164689,12.29404 0,4.66316 c 0,1.13854 -0.06949,1.84397 -0.206012,2.11721 -0.125235,0.26186 -0.402546,0.39254 -0.835197,0.39254 -0.455399,0 -0.766278,-0.1693 -0.925666,-0.51086 -0.148013,-0.34156 -0.219939,-1.09903 -0.219939,-2.27172 0,-1.02468 0.08671,-1.81152 0.25752,-2.35803 0.182179,-0.54649 0.824905,-1.22394 1.929294,-2.0323 z m 16.756755,0 0,4.66316 c 0,1.13854 -0.06949,1.84397 -0.206013,2.11721 -0.125235,0.26186 -0.402546,0.39254 -0.835196,0.39254 -0.4554,0 -0.766279,-0.1693 -0.925674,-0.51086 -0.148013,-0.34156 -0.219931,-1.09903 -0.219931,-2.27172 0,-1.02468 0.08671,-1.81152 0.257519,-2.35803 0.18218,-0.54649 0.824905,-1.22394 1.929295,-2.0323 z"
           style="color:#000000;clip-rule:nonzero;display:inline;overflow:visible;visibility:visible;opacity:1;isolation:auto;mix-blend-mode:normal;color-interpolation:sRGB;color-interpolation-filters:linearRGB;solid-color:#000000;solid-opacity:1;fill:#ffffff;fill-opacity:1;fill-rule:nonzero;stroke:none;stroke-width:1;stroke-linecap:butt;stroke-linejoin:miter;stroke-miterlimit:4;stroke-dasharray:none;stroke-dashoffset:0;stroke-opacity:1;marker:none;color-rendering:auto;image-rendering:auto;shape-rendering:auto;text-rendering:auto;enable-background:accumulate" />
      </g>
    </g>
  </g>
</svg>
