<?xml version="1.0" encoding="UTF-8" standalone="no"?>
<!-- Created with Inkscape (http://www.inkscape.org/) -->

<svg
   xmlns:dc="http://purl.org/dc/elements/1.1/"
   xmlns:cc="http://creativecommons.org/ns#"
   xmlns:rdf="http://www.w3.org/1999/02/22-rdf-syntax-ns#"
   xmlns:svg="http://www.w3.org/2000/svg"
   xmlns="http://www.w3.org/2000/svg"
   xmlns:sodipodi="http://sodipodi.sourceforge.net/DTD/sodipodi-0.dtd"
   xmlns:inkscape="http://www.inkscape.org/namespaces/inkscape"
   width="62.164955mm"
   height="41.285686mm"
   viewBox="0 0 220.26952 146.28786"
   id="svg2"
   version="1.1"
   inkscape:version="0.91 r13725"
   sodipodi:docname="logo.svg">
  <defs
     id="defs4">
    <inkscape:path-effect
       effect="powerstroke"
       id="path-effect5176"
       is_visible="true"
       offset_points="0,0.5"
       sort_points="true"
       interpolator_type="Linear"
       interpolator_beta="0.2"
       start_linecap_type="zerowidth"
       linejoin_type="round"
       miter_limit="4"
       end_linecap_type="zerowidth"
       cusp_linecap_type="round" />
    <inkscape:path-effect
       effect="spiro"
       id="path-effect5174"
       is_visible="true" />
    <inkscape:path-effect
       effect="powerstroke"
       id="path-effect3344"
       is_visible="true"
       offset_points="0,0.5"
       sort_points="true"
       interpolator_type="Linear"
       interpolator_beta="0.2"
       start_linecap_type="zerowidth"
       linejoin_type="round"
       miter_limit="4"
       end_linecap_type="zerowidth"
       cusp_linecap_type="round" />
    <inkscape:path-effect
       effect="spiro"
       id="path-effect3342"
       is_visible="true" />
  </defs>
  <sodipodi:namedview
     id="base"
     pagecolor="#ffffff"
     bordercolor="#666666"
     borderopacity="1.0"
     inkscape:pageopacity="0.0"
     inkscape:pageshadow="2"
     inkscape:zoom="2"
     inkscape:cx="89.254886"
     inkscape:cy="43.668348"
     inkscape:document-units="px"
     inkscape:current-layer="layer1"
     showgrid="false"
     inkscape:snap-global="false"
     showguides="true"
     inkscape:guide-bbox="true"
     inkscape:window-width="1680"
     inkscape:window-height="1008"
     inkscape:window-x="0"
     inkscape:window-y="0"
     inkscape:window-maximized="1"
     fit-margin-top="0"
     fit-margin-left="0"
     fit-margin-right="0"
     fit-margin-bottom="0"
     showborder="false" />
  <metadata
     id="metadata7">
    <rdf:RDF>
      <cc:Work
         rdf:about="">
        <dc:format>image/svg+xml</dc:format>
        <dc:type
           rdf:resource="http://purl.org/dc/dcmitype/StillImage" />
        <dc:title />
      </cc:Work>
    </rdf:RDF>
  </metadata>
  <g
     inkscape:label="Layer 1"
     inkscape:groupmode="layer"
     id="layer1"
     transform="translate(383.22434,485.34591)">
    <g
       id="g3685"
       transform="matrix(1.4797332,0,0,1.4797332,-450.67722,718.08622)">
      <rect
         y="-813.27643"
         x="45.584488"
         height="98.860962"
         width="148.85757"
         id="rect3687"
         style="color:#000000;clip-rule:nonzero;display:inline;overflow:visible;visibility:visible;opacity:1;isolation:auto;mix-blend-mode:normal;color-interpolation:sRGB;color-interpolation-filters:linearRGB;solid-color:#000000;solid-opacity:1;fill:#ffffff;fill-opacity:1;fill-rule:nonzero;stroke:none;stroke-width:1;stroke-linecap:butt;stroke-linejoin:miter;stroke-miterlimit:4;stroke-dasharray:none;stroke-dashoffset:0;stroke-opacity:1;marker:none;color-rendering:auto;image-rendering:auto;shape-rendering:auto;text-rendering:auto;enable-background:accumulate" />
      <g
         transform="matrix(0.97637825,0,0,0.97637825,33.969639,1.1011244)"
         id="g3689">
        <g
           transform="matrix(0.88110257,0,0,0.88110257,-570.18013,-800.2708)"
           id="g3691">
          <g
             id="g3693"
             transform="translate(-83.003569,172.12341)" />
          <g
             transform="translate(-22.89949,172.12341)"
             id="g3695">
            <path
               sodipodi:nodetypes="ssss"
               inkscape:connector-curvature="0"
               id="path3697"
               d="m 834.41799,-115.39683 c -4.69077,12.36163 -18.6223,3.43259 -19.38292,3.43259 0,0 -13.29426,-21.62162 3.13779,-25.36746 9.3928,-2.14117 18.20451,16.77132 16.24513,21.93487 z"
               style="color:#000000;clip-rule:nonzero;display:inline;overflow:visible;visibility:visible;opacity:1;isolation:auto;mix-blend-mode:normal;color-interpolation:sRGB;color-interpolation-filters:linearRGB;solid-color:#000000;solid-opacity:1;fill:#ffffff;fill-opacity:1;fill-rule:nonzero;stroke:none;stroke-width:1;stroke-linecap:butt;stroke-linejoin:miter;stroke-miterlimit:4;stroke-dasharray:none;stroke-dashoffset:0;stroke-opacity:1;marker:none;color-rendering:auto;image-rendering:auto;shape-rendering:auto;text-rendering:auto;enable-background:accumulate" />
          </g>
          <g
             id="g3699"
             transform="matrix(0.84016959,0,0,0.84016959,121.59258,4.7127883)">
            <g
               id="g3701"
               transform="translate(-143.10764,172.12341)">
              <path
                 style="color:#000000;clip-rule:nonzero;display:inline;overflow:visible;visibility:visible;opacity:1;isolation:auto;mix-blend-mode:normal;color-interpolation:sRGB;color-interpolation-filters:linearRGB;solid-color:#000000;solid-opacity:1;fill:#ffffff;fill-opacity:1;fill-rule:nonzero;stroke:none;stroke-width:1;stroke-linecap:butt;stroke-linejoin:miter;stroke-miterlimit:4;stroke-dasharray:none;stroke-dashoffset:0;stroke-opacity:1;marker:none;color-rendering:auto;image-rendering:auto;shape-rendering:auto;text-rendering:auto;enable-background:accumulate"
                 d="m 834.41799,-115.39683 c -4.69077,12.36163 -18.6223,3.43259 -19.38292,3.43259 0,0 -13.29426,-21.62162 3.13779,-25.36746 9.3928,-2.14117 18.20451,16.77132 16.24513,21.93487 z"
                 id="path3703"
                 inkscape:connector-curvature="0"
                 sodipodi:nodetypes="ssss" />
            </g>
          </g>
          <g
             id="g3705"
             transform="matrix(0.84016959,0,0,0.84016959,173.57542,4.7127883)">
            <g
               transform="translate(-143.10764,172.12341)"
               id="g3707">
              <path
                 sodipodi:nodetypes="ssss"
                 inkscape:connector-curvature="0"
                 id="path3709"
                 d="m 834.41799,-115.39683 c -4.69077,12.36163 -18.6223,3.43259 -19.38292,3.43259 0,0 -13.29426,-21.62162 3.13779,-25.36746 9.3928,-2.14117 18.20451,16.77132 16.24513,21.93487 z"
                 style="color:#000000;clip-rule:nonzero;display:inline;overflow:visible;visibility:visible;opacity:1;isolation:auto;mix-blend-mode:normal;color-interpolation:sRGB;color-interpolation-filters:linearRGB;solid-color:#000000;solid-opacity:1;fill:#ffffff;fill-opacity:1;fill-rule:nonzero;stroke:none;stroke-width:1;stroke-linecap:butt;stroke-linejoin:miter;stroke-miterlimit:4;stroke-dasharray:none;stroke-dashoffset:0;stroke-opacity:1;marker:none;color-rendering:auto;image-rendering:auto;shape-rendering:auto;text-rendering:auto;enable-background:accumulate" />
            </g>
          </g>
          <g
             transform="matrix(0.84016959,0,0,0.84016959,225.26121,4.7127883)"
             id="g3711">
            <g
               id="g3713"
               transform="translate(-143.10764,172.12341)">
              <path
                 style="color:#000000;clip-rule:nonzero;display:inline;overflow:visible;visibility:visible;opacity:1;isolation:auto;mix-blend-mode:normal;color-interpolation:sRGB;color-interpolation-filters:linearRGB;solid-color:#000000;solid-opacity:1;fill:#ffffff;fill-opacity:1;fill-rule:nonzero;stroke:none;stroke-width:1;stroke-linecap:butt;stroke-linejoin:miter;stroke-miterlimit:4;stroke-dasharray:none;stroke-dashoffset:0;stroke-opacity:1;marker:none;color-rendering:auto;image-rendering:auto;shape-rendering:auto;text-rendering:auto;enable-background:accumulate"
                 d="m 834.41799,-115.39683 c -4.69077,12.36163 -18.6223,3.43259 -19.38292,3.43259 0,0 -13.29426,-21.62162 3.13779,-25.36746 9.3928,-2.14117 18.20451,16.77132 16.24513,21.93487 z"
                 id="path3715"
                 inkscape:connector-curvature="0"
                 sodipodi:nodetypes="ssss" />
            </g>
            <g
               id="g3717">
              <path
                 style="color:#000000;clip-rule:nonzero;display:inline;overflow:visible;visibility:visible;opacity:1;isolation:auto;mix-blend-mode:normal;color-interpolation:sRGB;color-interpolation-filters:linearRGB;solid-color:#000000;solid-opacity:1;fill:#729fcf;fill-opacity:1;fill-rule:nonzero;stroke:none;stroke-width:1;stroke-linecap:butt;stroke-linejoin:miter;stroke-miterlimit:4;stroke-dasharray:none;stroke-dashoffset:0;stroke-opacity:1;marker:none;color-rendering:auto;image-rendering:auto;shape-rendering:auto;text-rendering:auto;enable-background:accumulate"
                 d="m -388.54688,355.79883 0,70.17383 c 0,0 17.13811,7.99451 29.88868,1.82617 2.46424,2.84485 7.25929,4.62191 12.48047,4.625 2.51796,-0.003 4.99019,-0.42154 7.16015,-1.21094 1.43185,4.0094 7.17685,6.86591 13.82031,6.87109 7.21937,-10e-4 13.28428,-3.35652 14.08204,-7.79101 3.7151,1.16409 7.12506,1.50277 10.66796,0.95312 15.89444,11.84247 32.01234,7.69713 33.75977,0.51758 3.33804,4.30872 17.49609,3.61759 19.30273,-3.96094 8.34294,0.8497 22.99656,-3.46217 24.08594,-10.75 l 0.0488,0.002 c 1.8134,0 3.56613,-0.12127 5.25195,-0.32813 0.58808,2.21387 3.514,3.82968 6.93555,3.83008 3.8899,-2.1e-4 7.04266,-2.07202 7.04102,-4.62695 -0.003,-1.16172 -0.67182,-2.28011 -1.87305,-3.13281 2.90028,-1.86345 4.64453,-4.1981 4.64453,-6.74219 -0.007,-1.0763 -0.329,-2.1463 -0.95703,-3.17578 3.38949,-0.61856 6.32728,-1.62827 8.66015,-2.90039 0.70113,0.94672 2.02456,1.53374 3.46094,1.53515 0.58644,-6.4e-4 1.16541,-0.0994 1.69532,-0.28906 0.0234,0.0874 0.0507,0.17337 0.082,0.25781 0.95642,2.36827 4.83791,3.0337 8.66992,1.48633 3.83141,-1.54757 6.16243,-4.72148 5.20703,-7.08984 -0.95608,-2.36919 -4.83902,-3.03471 -8.67188,-1.48633 -1.44621,0.58637 -2.74234,1.43725 -3.70703,2.43359 -0.46034,-0.50885 -1.11707,-0.89825 -1.88086,-1.11523 0.60605,-1.00748 0.93962,-2.06693 0.94141,-3.15625 -0.004,-2.50957 -1.72419,-4.94301 -4.875,-6.89649 8.76157,-1.55875 14.61654,-5.70368 14.625,-10.35351 -0.007,-1.94212 -1.03985,-3.8207 -2.92383,-5.46094 5.06125,-2.23546 7.02834,-8.73821 6.79102,-14.04492 z M -193.75,404.55469 c -2.68062,2e-4 -4.85352,1.34329 -4.85352,3 0,1.65671 2.1729,2.9998 4.85352,3 2.68062,-2e-4 4.85352,-1.34329 4.85352,-3 0,-1.65671 -2.1729,-2.9998 -4.85352,-3 z m -153.57227,38.30664 c -6.17427,-0.12558 -12.20794,1.55024 -16.52148,3.93359 2.78739,-1.30493 6.1041,-1.08392 8.76172,0.0508 -0.0779,-0.0184 -0.16115,-0.028 -0.24414,-0.0293 -0.60322,-0.005 -1.2497,0.44463 -1.63086,1.13281 -0.51145,0.92377 -0.38352,1.97102 0.28515,2.3418 0.66861,0.3709 1.62609,-0.0749 2.13868,-0.99805 0.46491,-0.83749 0.40995,-1.79648 -0.12891,-2.24219 0.93565,0.44705 1.76733,1.00992 2.45508,1.66016 -0.62593,0.0296 -1.2789,0.49972 -1.66992,1.20508 -0.54672,0.98773 -0.41028,2.10938 0.30468,2.50586 0.71507,0.39709 1.73698,-0.0787 2.28516,-1.06641 0.19043,-0.34328 0.30442,-0.72457 0.33008,-1.08789 1.13226,1.9997 0.95382,4.4516 -1.60547,6.83594 -3.96858,3.69728 -10.0293,-0.68555 -10.0293,-0.68555 -13.30814,0.48625 -15.01815,16.26237 -6.71093,18.20898 3.53638,0.86427 6.9483,-2.01989 9.14843,-2.95507 -0.38323,0.19741 -1.22788,0.7133 -1.84961,1.67578 0,0 -1.3994,4.10457 -1.40039,4.12304 -1.93158,0.23263 -3.8618,0.65327 -5.78515,0.9961 -0.95524,-0.90304 -2.57259,-0.76927 -3.63672,0.29882 -0.12443,0.12593 -0.23723,0.26559 -0.33789,0.41016 -0.31745,-0.28284 -0.84717,-0.38389 -1.375,-0.25781 -0.77032,0.1841 -1.29252,0.7779 -1.16016,1.33203 0.13246,0.55386 0.87039,0.85594 1.64063,0.67188 0.12224,-0.0301 0.23868,-0.0703 0.35156,-0.1211 -0.001,0.14638 0.007,0.29258 0.0293,0.4336 -0.29704,-0.10816 -0.65355,-0.12174 -1.00196,-0.0391 -0.77029,0.18414 -1.29089,0.78192 -1.1582,1.33594 0.0296,0.12425 0.0935,0.23493 0.18359,0.33594 0.30065,0.3361 0.88187,0.47159 1.45703,0.33398 0.50469,-0.12088 0.91721,-0.42507 1.08789,-0.80078 0.0117,0.0151 0.0274,0.0255 0.041,0.0391 0.0647,0.0632 0.13199,0.12421 0.20508,0.17774 -0.13715,0.0738 -0.25882,0.16779 -0.37695,0.27539 -0.58452,0.53461 -0.74996,1.30826 -0.36524,1.72851 0.0693,0.0766 0.15371,0.13794 0.25195,0.18164 l 0,-0.004 c 0.42875,0.19346 1.03404,0.0356 1.49805,-0.38867 0.41905,-0.38436 0.63713,-0.91095 0.55274,-1.3418 0.33218,-0.0213 0.66702,-0.10428 0.98437,-0.24805 -0.0117,0.22388 0.0186,0.4642 0.0937,0.68946 0.2499,0.75138 0.88902,1.21456 1.42969,1.03515 0.54093,-0.17973 0.77901,-0.94171 0.5293,-1.69336 -0.1573,-0.47131 -0.47863,-0.84671 -0.84961,-0.99804 0.28098,-0.37212 0.47437,-0.7982 0.55859,-1.23633 1.61116,-0.35296 3.21258,-0.81106 4.83594,-1.06446 -0.21118,2.12658 -0.0286,4.50933 1.12109,6.66797 l -2.88672,1.25977 -0.36914,5.39453 c -1.82602,0.083 -6.25211,-0.32737 -7.50391,1.60547 l 9.90626,1.9082 0.10742,-6.89453 2.52343,-0.85156 c 4.21501,4.39813 12.00503,5.90844 18.63282,4.36523 3.64594,-0.84892 6.70093,-2.03156 9.24414,-3.46289 l 3.36328,4.52149 5.58398,-3.26563 c 1.3024,1.28258 3.39759,4.75369 5.66602,4.35742 l -4.33399,-8.96875 -6.53125,4.95313 -1.67968,-2.88672 c 8.53973,-5.96663 9.81575,-15.2958 7.125,-23.94922 1.2653,0.52293 2.7181,1.3745 3.81836,1.96094 l 2.08203,1.84375 c -0.0151,0.44588 0.0708,0.90078 0.26172,1.32617 -0.39537,0.0647 -0.79041,0.3647 -1.04883,0.78906 -0.411,0.67707 -0.34245,1.46798 0.14453,1.76367 0.48705,0.29543 1.20999,-0.0147 1.62109,-0.6914 0.12359,-0.20282 0.20699,-0.42577 0.2461,-0.64649 0.27724,0.21112 0.5891,0.37194 0.9082,0.4668 -0.1783,0.40114 -0.089,0.95959 0.23437,1.42774 0.35778,0.51703 0.91396,0.80589 1.375,0.71289 0.10546,-0.0206 0.20636,-0.0621 0.29102,-0.1211 0.4687,-0.32393 0.48198,-1.11806 0.0312,-1.76953 -0.0912,-0.13113 -0.19725,-0.24718 -0.31445,-0.34961 0.083,-0.0358 0.16473,-0.0759 0.24218,-0.12305 0.0169,-0.0117 0.031,-0.0229 0.0469,-0.0351 0.0825,0.40435 0.41974,0.79702 0.88477,1.02734 0.53002,0.26236 1.12226,0.26381 1.49023,0.004 0.1105,-0.0783 0.19531,-0.17855 0.25195,-0.29297 0.25285,-0.51053 -0.1142,-1.20734 -0.82422,-1.55859 -0.32116,-0.1583 -0.6746,-0.22474 -0.98828,-0.18555 0.0543,-0.13213 0.0958,-0.27497 0.12696,-0.41797 0.0986,0.075 0.20586,0.1428 0.31836,0.19922 0.7098,0.35114 1.48952,0.22341 1.74218,-0.28711 0.25255,-0.51067 -0.1202,-1.21133 -0.83007,-1.5625 -0.48646,-0.24053 -1.02784,-0.25597 -1.4004,-0.0508 -0.0658,-0.16348 -0.14499,-0.33001 -0.23828,-0.48047 -0.79922,-1.27848 -2.34404,-1.76307 -3.47656,-1.0957 l -3.05859,-2.16993 c -1.47162,-1.04396 -5.12891,-2.88281 -5.12891,-2.88281 -4.29817,-9.96802 -13.56769,-18.28455 -22.37891,-18.24609 z m 66.17383,0 c -6.17427,-0.12558 -12.20794,1.55024 -16.52148,3.93359 2.78739,-1.30493 6.10409,-1.08392 8.76172,0.0508 -0.0779,-0.0184 -0.1592,-0.028 -0.24219,-0.0293 -0.60322,-0.005 -1.2497,0.44463 -1.63086,1.13281 -0.51145,0.92377 -0.38354,1.97102 0.28516,2.3418 0.66861,0.3709 1.62218,-0.0749 2.13476,-0.99805 0.46492,-0.83749 0.40995,-1.79648 -0.1289,-2.24219 0.93565,0.44705 1.76733,1.00992 2.45507,1.66016 -0.62592,0.0296 -1.27696,0.49972 -1.66796,1.20508 -0.54672,0.98773 -0.41028,2.10938 0.30468,2.50586 0.71507,0.39709 1.73698,-0.0787 2.28516,-1.06641 0.19043,-0.34328 0.30442,-0.72457 0.33008,-1.08789 1.13226,1.9997 0.95185,4.4516 -1.60742,6.83594 -3.96859,3.69728 -10.0293,-0.68555 -10.0293,-0.68555 -13.30814,0.48625 -15.01425,16.26237 -6.70703,18.20898 3.53638,0.86427 6.9444,-2.01989 9.14453,-2.95507 -0.38324,0.19741 -1.22593,0.7133 -1.84766,1.67578 0,0 -1.39745,4.10457 -1.39844,4.12304 -1.93158,0.23263 -3.8618,0.65327 -5.78515,0.9961 -0.95524,-0.90304 -2.57454,-0.76927 -3.63867,0.29882 -0.12443,0.12593 -0.23723,0.26559 -0.33789,0.41016 -0.31744,-0.28284 -0.84717,-0.38389 -1.375,-0.25781 -0.77033,0.1841 -1.29057,0.7779 -1.15821,1.33203 0.13246,0.55386 0.86648,0.85594 1.63672,0.67188 0.12224,-0.0301 0.23868,-0.0703 0.35156,-0.1211 -10e-4,0.14638 0.008,0.29258 0.0312,0.4336 -0.29703,-0.10816 -0.65549,-0.12174 -1.0039,-0.0391 -0.7703,0.18416 -1.28699,0.78192 -1.1543,1.33594 0.0296,0.12425 0.0935,0.23493 0.18359,0.33594 0.30065,0.3361 0.87797,0.47159 1.45313,0.33398 0.50468,-0.12088 0.92109,-0.42507 1.0918,-0.80078 0.0117,0.0151 0.0255,0.0255 0.0391,0.0391 0.0647,0.0632 0.13004,0.12421 0.20312,0.17774 -0.13715,0.0738 -0.25882,0.16779 -0.37695,0.27539 -0.58451,0.53461 -0.74605,1.30826 -0.36133,1.72851 0.0693,0.0766 0.1498,0.13794 0.24805,0.18164 l 0,-0.004 c 0.42874,0.19346 1.03599,0.0356 1.5,-0.38867 0.41904,-0.38436 0.63518,-0.909 0.55078,-1.33985 0.33219,-0.0213 0.67093,-0.10623 0.98828,-0.25 -0.0117,0.22388 0.0186,0.4642 0.0937,0.68946 0.2499,0.75138 0.88902,1.21456 1.42969,1.03515 0.54093,-0.17973 0.77708,-0.94171 0.52734,-1.69336 -0.15729,-0.47131 -0.47862,-0.84671 -0.84961,-0.99804 0.28099,-0.37212 0.47438,-0.7982 0.5586,-1.23633 1.61115,-0.35296 3.21453,-0.81106 4.83789,-1.06446 -0.21118,2.12658 -0.0325,4.50933 1.11719,6.66797 l -2.88672,1.25977 -0.36914,5.39453 c -1.82602,0.083 -6.25016,-0.32737 -7.50196,1.60547 l 9.90625,1.9082 0.10938,-6.89453 2.51953,-0.85156 c 4.215,4.39813 12.00697,5.90844 18.63477,4.36523 3.64592,-0.84892 6.70093,-2.03156 9.24414,-3.46289 l 3.36523,4.52149 5.58398,-3.26563 c 1.3024,1.28258 3.39564,4.75369 5.66407,4.35742 l -4.33203,-8.96875 -6.53516,4.95313 -1.67578,-2.88672 c 8.53973,-5.96663 9.81576,-15.2958 7.125,-23.94922 1.2653,0.52293 2.71615,1.3745 3.8164,1.96094 l 2.08399,1.84375 c -0.0151,0.44588 0.0708,0.90078 0.26172,1.32617 -0.39537,0.0647 -0.79041,0.3647 -1.04883,0.78906 -0.411,0.67707 -0.3444,1.46798 0.14258,1.76367 0.48705,0.29543 1.21194,-0.0147 1.62304,-0.6914 0.12359,-0.20282 0.207,-0.42577 0.2461,-0.64649 0.27724,0.21112 0.58522,0.37194 0.90429,0.4668 -0.17828,0.40114 -0.0851,0.95959 0.23829,1.42774 0.35777,0.51703 0.91198,0.80589 1.37304,0.71289 0.10546,-0.0206 0.2044,-0.0621 0.28907,-0.1211 0.4687,-0.32393 0.48386,-1.11806 0.0332,-1.76953 -0.0912,-0.13113 -0.19921,-0.24718 -0.31641,-0.34961 0.083,-0.0358 0.16667,-0.0759 0.24414,-0.12305 0.0169,-0.0117 0.0311,-0.0229 0.0469,-0.0351 0.0824,0.40435 0.42169,0.79702 0.88672,1.02734 0.53003,0.26236 1.11835,0.26381 1.48633,0.004 0.11047,-0.0783 0.19726,-0.17855 0.2539,-0.29297 0.25285,-0.51053 -0.11421,-1.20734 -0.82422,-1.55859 -0.32116,-0.1583 -0.67265,-0.22474 -0.98633,-0.18555 0.0543,-0.13213 0.0958,-0.27497 0.12696,-0.41797 0.0986,0.075 0.20586,0.1428 0.31836,0.19922 0.7098,0.35114 1.48756,0.22341 1.74023,-0.28711 0.25255,-0.51067 -0.11823,-1.21133 -0.82812,-1.5625 -0.48646,-0.24053 -1.0298,-0.25597 -1.40235,-0.0508 -0.0658,-0.16348 -0.145,-0.33001 -0.23828,-0.48047 -0.79922,-1.27848 -2.34404,-1.76307 -3.47656,-1.0957 l -3.05859,-2.16993 c -1.47162,-1.04396 -5.13086,-2.88281 -5.13086,-2.88281 -4.29818,-9.96802 -13.56574,-18.28455 -22.37696,-18.24609 z m 65.79688,0 c -6.17427,-0.12558 -12.20795,1.55024 -16.52149,3.93359 2.78739,-1.30493 6.10214,-1.08392 8.75977,0.0508 -0.0779,-0.0184 -0.15723,-0.028 -0.24024,-0.0293 -0.60321,-0.005 -1.2536,0.44463 -1.63476,1.13281 -0.51145,0.92377 -0.37964,1.97102 0.28906,2.3418 0.66862,0.3709 1.62217,-0.0749 2.13477,-0.99805 0.46491,-0.83749 0.40988,-1.79648 -0.12891,-2.24219 0.93565,0.44705 1.76733,1.00992 2.45508,1.66016 -0.62592,0.0296 -1.27694,0.49972 -1.66797,1.20508 -0.5467,0.98773 -0.41028,2.10938 0.30469,2.50586 0.71506,0.39709 1.73502,-0.0787 2.2832,-1.06641 0.19044,-0.34328 0.30442,-0.72457 0.33008,-1.08789 1.13226,1.9997 0.95381,4.4516 -1.60547,6.83594 -3.96859,3.69728 -10.0293,-0.68555 -10.0293,-0.68555 -13.30814,0.48625 -15.01815,16.26237 -6.71093,18.20898 3.53638,0.86427 6.94831,-2.01989 9.14843,-2.95507 -0.38322,0.19741 -1.22592,0.7133 -1.84765,1.67578 0,0 -1.39746,4.10457 -1.39844,4.12304 -1.93157,0.23263 -3.8657,0.65327 -5.78906,0.9961 -0.95523,-0.90304 -2.5726,-0.76927 -3.63672,0.29882 -0.1244,0.12593 -0.23527,0.26559 -0.33594,0.41016 -0.31743,-0.28284 -0.84912,-0.38389 -1.37695,-0.25781 -0.77033,0.1841 -1.28862,0.7779 -1.15625,1.33203 0.13248,0.55386 0.86648,0.85594 1.63672,0.67188 0.12222,-0.0301 0.23868,-0.0703 0.35156,-0.1211 -0.001,0.14638 0.007,0.29258 0.0293,0.4336 -0.29704,-0.10816 -0.65353,-0.12174 -1.00196,-0.0391 -0.7703,0.18416 -1.28697,0.78192 -1.15429,1.33594 0.0296,0.12425 0.0935,0.23493 0.18359,0.33594 0.30064,0.3361 0.87796,0.47159 1.45312,0.33398 0.50468,-0.12088 0.92109,-0.42507 1.0918,-0.80078 0.0116,0.0151 0.0255,0.0255 0.0391,0.0391 0.0647,0.0632 0.12998,0.12421 0.20313,0.17774 -0.13711,0.0738 -0.25883,0.16779 -0.37695,0.27539 -0.58452,0.53461 -0.74995,1.30826 -0.36524,1.72851 0.0693,0.0766 0.15371,0.13794 0.25195,0.18164 l 0,-0.004 c 0.42876,0.19346 1.036,0.0356 1.5,-0.38867 0.41905,-0.38436 0.63519,-0.909 0.55079,-1.33985 0.33219,-0.0213 0.67092,-0.10623 0.98828,-0.25 -0.0116,0.22388 0.0164,0.4642 0.0918,0.68946 0.24991,0.75138 0.89098,1.21456 1.43164,1.03515 0.54094,-0.17973 0.77513,-0.94171 0.52539,-1.69336 -0.15728,-0.47131 -0.47666,-0.84671 -0.84765,-0.99804 0.28098,-0.37212 0.47438,-0.7982 0.55859,-1.23633 1.61116,-0.35296 3.21063,-0.81106 4.83399,-1.06446 -0.21119,2.12658 -0.0286,4.50933 1.12109,6.66797 l -2.88672,1.25977 -0.36914,5.39453 c -1.82603,0.083 -6.25017,-0.32737 -7.50195,1.60547 l 9.90429,1.9082 0.11133,-6.89453 2.51953,-0.85156 c 4.215,4.39813 12.00504,5.90844 18.63282,4.36523 3.64596,-0.84892 6.70289,-2.03156 9.24609,-3.46289 l 3.36523,4.52149 5.58008,-3.26563 c 1.3024,1.28258 3.39954,4.75369 5.66797,4.35742 l -4.33203,-8.96875 -6.53516,4.95313 -1.67773,-2.88672 c 8.53973,-5.96663 9.81771,-15.2958 7.12695,-23.94922 1.2653,0.52293 2.7142,1.3745 3.81446,1.96094 l 2.08203,1.84375 c -0.015,0.44588 0.0748,0.90078 0.26562,1.32617 -0.39536,0.0647 -0.79237,0.3647 -1.05078,0.78906 -0.411,0.67707 -0.34447,1.46798 0.14258,1.76367 0.48706,0.29543 1.21193,-0.0147 1.62305,-0.6914 0.12352,-0.20282 0.20893,-0.42577 0.24804,-0.64649 0.27724,0.21112 0.58521,0.37194 0.9043,0.4668 -0.1783,0.40114 -0.085,0.95959 0.23828,1.42774 0.35777,0.51703 0.91199,0.80589 1.37305,0.71289 0.10547,-0.0206 0.2044,-0.0621 0.28906,-0.1211 0.4687,-0.32393 0.48393,-1.11806 0.0332,-1.76953 -0.0912,-0.13113 -0.1992,-0.24718 -0.3164,-0.34961 0.0831,-0.0358 0.16665,-0.0759 0.24414,-0.12305 0.0169,-0.0117 0.0292,-0.0229 0.0449,-0.0351 0.0825,0.40435 0.42366,0.79702 0.88867,1.02734 0.53003,0.26236 1.11836,0.26381 1.48633,0.004 0.11053,-0.0783 0.19727,-0.17855 0.25391,-0.29297 0.25285,-0.51053 -0.11424,-1.20734 -0.82422,-1.55859 -0.32116,-0.1583 -0.67267,-0.22474 -0.98633,-0.18555 0.0543,-0.13213 0.0957,-0.27497 0.12695,-0.41797 0.0987,0.075 0.20195,0.1428 0.31446,0.19922 0.7098,0.35114 1.49146,0.22341 1.74414,-0.28711 0.25254,-0.51067 -0.11828,-1.21133 -0.82813,-1.5625 -0.48646,-0.24053 -1.03174,-0.25597 -1.4043,-0.0508 -0.0657,-0.16348 -0.14303,-0.33001 -0.23632,-0.48047 -0.79923,-1.27848 -2.346,-1.76307 -3.47852,-1.0957 l -3.05859,-2.16993 c -1.47161,-1.04396 -5.12891,-2.88281 -5.12891,-2.88281 -4.29816,-9.96802 -13.56573,-18.28455 -22.37695,-18.24609 z m -141.07227,4.7832 0.01,0 c 0.01,-3.1e-4 0.0173,-3.1e-4 0.0273,0 0.26638,-10e-4 0.48048,0.2102 0.48047,0.47656 1e-5,0.26638 -0.2141,0.48426 -0.48047,0.48243 -0.26506,0 -0.47851,-0.21735 -0.47851,-0.48243 -7.2e-4,-0.25148 0.19065,-0.45749 0.4414,-0.47656 z m 66.17578,0 0.006,0 c 0.01,-3.1e-4 0.0213,-3.1e-4 0.0312,0 0.26638,-10e-4 0.47853,0.2102 0.47852,0.47656 10e-6,0.26638 -0.21215,0.48426 -0.47852,0.48243 -0.26506,0 -0.48047,-0.21735 -0.48047,-0.48243 -7.1e-4,-0.25148 0.19261,-0.45749 0.44336,-0.47656 z m 65.79688,0 0.006,0 c 0.0101,-3.1e-4 0.0212,-3.1e-4 0.0312,0 0.26637,-10e-4 0.47851,0.2102 0.47851,0.47656 0,0.26638 -0.21215,0.48426 -0.47851,0.48243 -0.26508,0 -0.48242,-0.21735 -0.48242,-0.48243 -7.1e-4,-0.25148 0.19457,-0.45749 0.44531,-0.47656 z m -128.85352,1.94922 0.002,0 c 0.0117,-4.2e-4 0.025,-4.2e-4 0.0371,0 0.28329,10e-5 0.51356,0.23036 0.51367,0.51367 -1.1e-4,0.28331 -0.23038,0.51163 -0.51367,0.51172 -0.2833,-8e-5 -0.51357,-0.22841 -0.51368,-0.51172 -7.1e-4,-0.26848 0.20692,-0.49281 0.47461,-0.51367 z m 66.17383,0 0.004,0 c 0.0117,-4.2e-4 0.025,-4.2e-4 0.0371,0 0.28332,10e-5 0.51356,0.23036 0.51367,0.51367 -1.1e-4,0.28331 -0.23035,0.51163 -0.51367,0.51172 -0.2833,-8e-5 -0.51357,-0.22841 -0.51368,-0.51172 -7.1e-4,-0.26848 0.20497,-0.49281 0.47266,-0.51367 z m 65.79492,0 0.006,0 c 0.0116,-4.2e-4 0.0212,-4.2e-4 0.0332,0 0.28333,10e-5 0.51748,0.23036 0.51758,0.51367 -1e-4,0.28331 -0.23425,0.51163 -0.51758,0.51172 -0.28328,-8e-5 -0.51357,-0.22841 -0.51367,-0.51172 -7.2e-4,-0.26848 0.20691,-0.49281 0.47461,-0.51367 z m -120.82617,15.63672 c 0.0788,-2.5e-4 0.145,0.0106 0.20313,0.0312 1.39501,0.50479 -3.0549,6.89263 -7.22657,7.17969 l -0.40625,-3.74414 3.11914,-1.04297 0.50977,3.35156 0.86328,-0.70508 -0.42578,-3.13867 c 1.74219,-1.38524 2.8114,-1.92998 3.36328,-1.93164 z m 66.17188,0 c 0.0788,-2.5e-4 0.1489,0.0106 0.20703,0.0312 1.39501,0.50479 -3.0588,6.89263 -7.23047,7.17969 l -0.40235,-3.74414 3.11719,-1.04297 0.51172,3.35156 0.86328,-0.70508 -0.42969,-3.13867 c 1.74219,-1.38524 2.81141,-1.92998 3.36329,-1.93164 z m 65.79687,0 c 0.0787,-2.5e-4 0.14891,0.0106 0.20703,0.0312 1.39502,0.50479 -3.0588,6.89263 -7.23047,7.17969 l -0.40234,-3.74414 3.11719,-1.04297 0.50781,3.35156 0.86719,-0.70508 -0.42969,-3.13867 c 1.74219,-1.38524 2.81139,-1.92998 3.36328,-1.93164 z m -140.6875,3.88867 0.40039,3.63672 c -1.17836,0.52152 -2.35682,0.50444 -3.53515,0.44336 l -0.4043,-3.57813 z m 66.17188,0 0.40429,3.63672 c -1.17836,0.52152 -2.35875,0.50444 -3.53711,0.44336 l -0.40625,-3.57813 z m 65.79687,0 0.4043,3.63672 c -1.17836,0.52152 -2.35875,0.50444 -3.53711,0.44336 l -0.40625,-3.57813 z m -136.80078,0.77734 0.4082,3.28516 c 0,0 -2.61574,-0.53459 -3.95508,-2.58789 z m 66.17578,0 0.4043,3.28516 c 0,0 -2.61184,-0.53459 -3.95117,-2.58789 z m 65.79688,0 0.40429,3.28516 c 0,0 -2.61183,-0.53459 -3.95117,-2.58789 z"
                 transform="matrix(0.93498578,0,0,0.93498578,884.13659,-381.44743)"
                 id="path3719"
                 inkscape:connector-curvature="0"
                 sodipodi:nodetypes="ccccccccccccccccccccccccccccccccccscsccccccccccccccsccccccccccccccccccccccccccccccccccccccccscccccccccccccccccccccccccccccccccccccccccccccccccccsccccccccccccccccccccccccccccccccccccccccscccccccccccccccccccccccccccccccccccccccccccccccccccsccccccccccccccccccccccccccccccccccccccccscccccccccccccccccccccccccccccccccccccccccccccccccccccccscccccccccccccccccccccccccccccccccccccccccccccccccccccccccccccccccccccccccccccccccccccccacc" />
            </g>
          </g>
        </g>
        <path
           inkscape:connector-curvature="0"
           id="path3721"
           d="m 88.397634,-825.22535 0,31.43877 7.845456,0 0,-11.2245 2.443687,11.2245 7.552653,0 -4.13402,-15.49464 3.1844,-10.27172 -6.603033,0 -2.443687,7.53207 0,-13.20448 -7.845456,0 z m 26.290256,5.2055 c -1.72171,0 -3.2349,0.26378 -4.54235,0.79452 -1.29452,0.53075 -2.21655,1.28891 -2.76024,2.27276 -0.54369,0.97088 -0.8135,2.48406 -0.8135,4.54236 0,1.44987 0.25166,2.70533 0.75653,3.76682 0.50486,1.04857 1.9089,2.22065 4.21316,3.51518 2.74439,1.52755 4.26517,2.44638 4.56292,2.75707 0.2848,0.31067 0.42732,1.08254 0.42732,2.31232 0,0.89323 -0.10756,1.48151 -0.32762,1.7663 -0.22004,0.27185 -0.60979,0.40834 -1.16644,0.40834 -0.51781,0 -0.8681,-0.20617 -1.04933,-0.62042 -0.16829,-0.41425 -0.25324,-1.31493 -0.25324,-2.70009 l 0,-1.63336 -6.9528,0 0,1.24401 c 0,2.14891 0.26853,3.75464 0.79926,4.81617 0.53077,1.0615 1.49956,1.9046 2.91059,2.52598 1.42397,0.62137 3.13283,0.93064 5.12637,0.93064 1.79942,0 3.33384,-0.2851 4.60249,-0.85467 1.28156,-0.58256 2.19596,-1.40433 2.73966,-2.46584 0.54368,-1.07444 0.8135,-2.66204 0.8135,-4.75919 0,-1.87706 -0.35473,-3.30686 -1.06674,-4.2907 -0.71196,-0.98385 -2.20699,-2.03153 -4.48536,-3.14483 -1.70878,-0.84144 -2.84141,-1.48284 -3.39807,-1.92298 -0.54369,-0.44014 -0.87269,-0.84195 -0.98918,-1.20443 -0.10363,-0.3754 -0.15669,-0.95607 -0.15669,-1.74572 0,-0.58256 0.11063,-1.01619 0.33078,-1.30098 0.22009,-0.29774 0.55222,-0.44949 0.99235,-0.44949 0.54371,0 0.87716,0.16385 1.00661,0.48747 0.14238,0.31069 0.21367,1.06121 0.21367,2.25218 l 0,1.39911 6.9528,0 0,-1.49882 c 0,-1.29452 -0.0712,-2.24362 -0.21367,-2.85202 -0.12946,-0.60843 -0.51602,-1.26641 -1.16328,-1.97839 -0.63433,-0.71201 -1.55633,-1.28212 -2.76024,-1.70931 -1.19097,-0.44014 -2.6405,-0.65999 -4.34926,-0.65999 z m -86.88713,0.007 c -2.213645,0 -4.011862,0.41075 -5.397006,1.23926 -1.385144,0.82848 -2.311633,1.78678 -2.777645,2.87419 -0.453087,1.07445 -0.680559,2.6089 -0.680559,4.60249 l 0,1.72989 7.35956,0 0,-2.70008 c 0,-1.43694 0.06369,-2.32395 0.193089,-2.66052 0.129452,-0.34953 0.460032,-0.52547 0.990773,-0.52547 0.466029,0 0.798173,0.20934 0.992354,0.62359 0.207124,0.40131 0.310208,1.27624 0.310208,2.62254 0,1.07445 -0.08935,1.78395 -0.270639,2.13347 -0.181241,0.34953 -1.562664,1.03038 -4.13877,2.04011 -2.407812,0.93207 -3.914929,1.74623 -4.523359,2.44527 -0.608429,0.69905 -0.913216,2.01368 -0.913216,3.94251 l 0,2.11766 c 0,2.60199 0.570134,4.29265 1.709314,5.06939 1.152138,0.76374 2.415219,1.14271 3.787405,1.14271 1.048567,0 1.947676,-0.2259 2.698507,-0.67898 0.763757,-0.46603 1.38546,-1.15741 1.86442,-2.07651 l 0,2.29175 7.631787,0 0,-12.93225 c 0,-4.25898 -0.138066,-7.07178 -0.409919,-8.43104 -0.271846,-1.3722 -1.079969,-2.5214 -2.426281,-3.45346 -1.346304,-0.94501 -3.346255,-1.41652 -6.000023,-1.41652 z m 19.052557,0 c -2.213645,0 -4.011861,0.41075 -5.397005,1.23926 -1.385144,0.82848 -2.311633,1.78678 -2.777645,2.87419 -0.453088,1.07445 -0.680559,2.6089 -0.680559,4.60249 l 0,1.72989 7.35956,0 0,-2.70008 c 0,-1.43694 0.0637,-2.32395 0.193088,-2.66052 0.129452,-0.34953 0.460032,-0.52547 0.990774,-0.52547 0.466029,0 0.798172,0.20934 0.992355,0.62359 0.207123,0.40131 0.310208,1.27624 0.310208,2.62254 0,1.07445 -0.08936,1.78395 -0.27064,2.13347 -0.181241,0.34953 -1.562665,1.03038 -4.138769,2.04011 -2.407813,0.93207 -3.91493,1.74623 -4.523359,2.44527 -0.60843,0.69905 -0.913217,2.01368 -0.913217,3.94251 l 0,2.11766 c 0,2.60199 0.570125,4.29265 1.709313,5.06939 1.15213,0.76374 2.415219,1.14271 3.787405,1.14271 1.048568,0 1.947677,-0.2259 2.698507,-0.67898 0.763757,-0.46603 1.385461,-1.15741 1.864422,-2.07651 l 0,2.29175 7.631786,0 0,-12.93225 c 0,-4.25898 -0.138067,-7.07178 -0.40992,-8.43104 -0.271846,-1.3722 -1.079968,-2.5214 -2.42628,-3.45346 -1.346305,-0.94501 -3.346256,-1.41652 -6.000024,-1.41652 z m 24.194752,0 c -1.074458,0 -2.031141,0.24404 -2.872601,0.73596 -0.841445,0.47898 -1.566198,1.20374 -2.174628,2.17462 l 0.134525,-2.44525 -7.748905,0 0,25.76794 7.61438,0 0,-17.86711 c 0,-1.24274 0.01182,-2.05089 0.038,-2.42629 0.02593,-0.38834 0.163956,-0.71128 0.40992,-0.97019 0.245949,-0.27184 0.539964,-0.40992 0.889482,-0.40992 0.556641,0 0.893249,0.25166 1.00976,0.75653 0.129452,0.50486 0.194676,2.02121 0.194676,4.54553 l 0,16.37145 7.611212,0 0,-16.79721 c 0,-2.21362 0.07893,-3.58139 0.234238,-4.09919 0.168276,-0.51782 0.532266,-0.77711 1.088899,-0.77711 0.543716,0 0.884772,0.26851 1.027174,0.79927 0.155343,0.51783 0.232657,1.87636 0.232657,4.07703 l 0,16.79721 7.612787,0 0,-18.31184 c 0,-2.1101 -0.122853,-3.63246 -0.368765,-4.56451 -0.24598,-0.945 -0.81005,-1.73944 -1.690332,-2.38672 -0.867331,-0.64726 -1.96656,-0.9702 -3.299923,-0.9702 -1.00972,0 -1.92856,0.24404 -2.757071,0.73596 -0.828495,0.47898 -1.574569,1.20374 -2.234771,2.17462 -1.203919,-1.94179 -2.853567,-2.91058 -4.950695,-2.91058 z m -42.256535,13.97843 0,5.30203 c 0,1.29454 -0.079,2.09661 -0.234238,2.40729 -0.142392,0.29774 -0.457698,0.44633 -0.949625,0.44633 -0.517792,0 -0.871264,-0.1925 -1.052489,-0.58086 -0.168293,-0.38836 -0.250072,-1.24961 -0.250072,-2.58296 0,-1.16507 0.09859,-2.05972 0.292802,-2.6811 0.207138,-0.62136 0.937923,-1.39163 2.193622,-2.31073 z m 19.052559,0 0,5.30203 c 0,1.29454 -0.07901,2.09661 -0.234239,2.40729 -0.142393,0.29774 -0.457698,0.44633 -0.949624,0.44633 -0.517793,0 -0.871265,-0.1925 -1.052499,-0.58086 -0.168292,-0.38836 -0.250063,-1.24961 -0.250063,-2.58296 0,-1.16507 0.09859,-2.05972 0.292801,-2.6811 0.20714,-0.62136 0.937923,-1.39163 2.193624,-2.31073 z"
           style="color:#000000;clip-rule:nonzero;display:inline;overflow:visible;visibility:visible;opacity:1;isolation:auto;mix-blend-mode:normal;color-interpolation:sRGB;color-interpolation-filters:linearRGB;solid-color:#000000;solid-opacity:1;fill:#ffffff;fill-opacity:1;fill-rule:nonzero;stroke:none;stroke-width:1;stroke-linecap:butt;stroke-linejoin:miter;stroke-miterlimit:4;stroke-dasharray:none;stroke-dashoffset:0;stroke-opacity:1;marker:none;color-rendering:auto;image-rendering:auto;shape-rendering:auto;text-rendering:auto;enable-background:accumulate" />
      </g>
    </g>
  </g>
</svg>
