<?xml version="1.0" encoding="UTF-8" standalone="no"?>
<!-- Created with Inkscape (http://www.inkscape.org/) -->

<svg
   xmlns:dc="http://purl.org/dc/elements/1.1/"
   xmlns:cc="http://creativecommons.org/ns#"
   xmlns:rdf="http://www.w3.org/1999/02/22-rdf-syntax-ns#"
   xmlns:svg="http://www.w3.org/2000/svg"
   xmlns="http://www.w3.org/2000/svg"
   xmlns:sodipodi="http://sodipodi.sourceforge.net/DTD/sodipodi-0.dtd"
   xmlns:inkscape="http://www.inkscape.org/namespaces/inkscape"
   width="62.164955mm"
   height="41.285686mm"
   viewBox="0 0 220.26952 146.28786"
   id="svg2"
   version="1.1"
   inkscape:version="0.91 r13725"
   sodipodi:docname="logo.svg">
  <defs
     id="defs4">
    <inkscape:path-effect
       effect="powerstroke"
       id="path-effect5176"
       is_visible="true"
       offset_points="0,0.5"
       sort_points="true"
       interpolator_type="Linear"
       interpolator_beta="0.2"
       start_linecap_type="zerowidth"
       linejoin_type="round"
       miter_limit="4"
       end_linecap_type="zerowidth"
       cusp_linecap_type="round" />
    <inkscape:path-effect
       effect="spiro"
       id="path-effect5174"
       is_visible="true" />
    <inkscape:path-effect
       effect="powerstroke"
       id="path-effect3344"
       is_visible="true"
       offset_points="0,0.5"
       sort_points="true"
       interpolator_type="Linear"
       interpolator_beta="0.2"
       start_linecap_type="zerowidth"
       linejoin_type="round"
       miter_limit="4"
       end_linecap_type="zerowidth"
       cusp_linecap_type="round" />
    <inkscape:path-effect
       effect="spiro"
       id="path-effect3342"
       is_visible="true" />
  </defs>
  <sodipodi:namedview
     id="base"
     pagecolor="#ffffff"
     bordercolor="#666666"
     borderopacity="1.0"
     inkscape:pageopacity="0.0"
     inkscape:pageshadow="2"
     inkscape:zoom="1.4142136"
     inkscape:cx="41.267042"
     inkscape:cy="18.144166"
     inkscape:document-units="px"
     inkscape:current-layer="layer1"
     showgrid="false"
     inkscape:snap-global="false"
     showguides="true"
     inkscape:guide-bbox="true"
     inkscape:window-width="1680"
     inkscape:window-height="960"
     inkscape:window-x="0"
     inkscape:window-y="0"
     inkscape:window-maximized="1"
     fit-margin-top="0"
     fit-margin-left="0"
     fit-margin-right="0"
     fit-margin-bottom="0"
     showborder="false" />
  <metadata
     id="metadata7">
    <rdf:RDF>
      <cc:Work
         rdf:about="">
        <dc:format>image/svg+xml</dc:format>
        <dc:type
           rdf:resource="http://purl.org/dc/dcmitype/StillImage" />
        <dc:title></dc:title>
      </cc:Work>
    </rdf:RDF>
  </metadata>
  <g
     inkscape:label="Layer 1"
     inkscape:groupmode="layer"
     id="layer1"
     transform="translate(109.57405,485.34592)">
    <g
       id="g3478">
      <rect
         style="color:#000000;clip-rule:nonzero;display:inline;overflow:visible;visibility:visible;opacity:1;isolation:auto;mix-blend-mode:normal;color-interpolation:sRGB;color-interpolation-filters:linearRGB;solid-color:#000000;solid-opacity:1;fill:#ffffff;fill-opacity:1;fill-rule:nonzero;stroke:none;stroke-width:1;stroke-linecap:butt;stroke-linejoin:miter;stroke-miterlimit:4;stroke-dasharray:none;stroke-dashoffset:0;stroke-opacity:1;marker:none;color-rendering:auto;image-rendering:auto;shape-rendering:auto;text-rendering:auto;enable-background:accumulate"
         id="rect3366"
         width="220.2695"
         height="146.28784"
         x="-109.57405"
         y="-485.34592" />
      <path
         sodipodi:nodetypes="ssss"
         inkscape:connector-curvature="0"
         id="path3376"
         d="m 82.5167,-364.28624 c -5.971345,15.73634 -23.706166,4.36969 -24.674434,4.36969 0,0 -16.923577,-27.5243 3.994403,-32.29275 11.957023,-2.72571 23.174319,21.34987 20.680031,27.92306 z"
         style="color:#000000;clip-rule:nonzero;display:inline;overflow:visible;visibility:visible;opacity:1;isolation:auto;mix-blend-mode:normal;color-interpolation:sRGB;color-interpolation-filters:linearRGB;solid-color:#000000;solid-opacity:1;fill:#ffffff;fill-opacity:1;fill-rule:nonzero;stroke:none;stroke-width:1;stroke-linecap:butt;stroke-linejoin:miter;stroke-miterlimit:4;stroke-dasharray:none;stroke-dashoffset:0;stroke-opacity:1;marker:none;color-rendering:auto;image-rendering:auto;shape-rendering:auto;text-rendering:auto;enable-background:accumulate" />
      <path
         sodipodi:nodetypes="ssss"
         inkscape:connector-curvature="0"
         id="path3382"
         d="m -56.377629,-369.82868 c -5.016942,13.2212 -19.917199,3.67128 -20.730709,3.67128 0,0 -14.218675,-23.12508 3.355976,-27.13139 10.045927,-2.29005 19.470359,17.93752 17.374733,23.46011 z"
         style="color:#000000;clip-rule:nonzero;display:inline;overflow:visible;visibility:visible;opacity:1;isolation:auto;mix-blend-mode:normal;color-interpolation:sRGB;color-interpolation-filters:linearRGB;solid-color:#000000;solid-opacity:1;fill:#ffffff;fill-opacity:1;fill-rule:nonzero;stroke:none;stroke-width:1;stroke-linecap:butt;stroke-linejoin:miter;stroke-miterlimit:4;stroke-dasharray:none;stroke-dashoffset:0;stroke-opacity:1;marker:none;color-rendering:auto;image-rendering:auto;shape-rendering:auto;text-rendering:auto;enable-background:accumulate" />
      <path
         style="color:#000000;clip-rule:nonzero;display:inline;overflow:visible;visibility:visible;opacity:1;isolation:auto;mix-blend-mode:normal;color-interpolation:sRGB;color-interpolation-filters:linearRGB;solid-color:#000000;solid-opacity:1;fill:#ffffff;fill-opacity:1;fill-rule:nonzero;stroke:none;stroke-width:1;stroke-linecap:butt;stroke-linejoin:miter;stroke-miterlimit:4;stroke-dasharray:none;stroke-dashoffset:0;stroke-opacity:1;marker:none;color-rendering:auto;image-rendering:auto;shape-rendering:auto;text-rendering:auto;enable-background:accumulate"
         d="m 9.7964615,-369.82868 c -5.0169422,13.2212 -19.9171995,3.67128 -20.7307095,3.67128 0,0 -14.218675,-23.12508 3.355976,-27.13139 10.0459274,-2.29005 19.470359,17.93752 17.3747335,23.46011 z"
         id="path3388"
         inkscape:connector-curvature="0"
         sodipodi:nodetypes="ssss" />
      <path
         sodipodi:nodetypes="ssss"
         inkscape:connector-curvature="0"
         id="path3394"
         d="m 75.592411,-369.82868 c -5.016942,13.2212 -19.917199,3.67128 -20.730709,3.67128 0,0 -14.218675,-23.12508 3.355976,-27.13139 10.045927,-2.29005 19.470359,17.93752 17.374733,23.46011 z"
         style="color:#000000;clip-rule:nonzero;display:inline;overflow:visible;visibility:visible;opacity:1;isolation:auto;mix-blend-mode:normal;color-interpolation:sRGB;color-interpolation-filters:linearRGB;solid-color:#000000;solid-opacity:1;fill:#ffffff;fill-opacity:1;fill-rule:nonzero;stroke:none;stroke-width:1;stroke-linecap:butt;stroke-linejoin:miter;stroke-miterlimit:4;stroke-dasharray:none;stroke-dashoffset:0;stroke-opacity:1;marker:none;color-rendering:auto;image-rendering:auto;shape-rendering:auto;text-rendering:auto;enable-background:accumulate" />
      <path
         sodipodi:nodetypes="ccccccccccccccccccccccccccccccccccscsccccccccccccccsccccccccccccccccccccccccccccccccccccccccscccccccccccccccccccccccccccccccccccccccccccccccccccsccccccccccccccccccccccccccccccccccccccccscccccccccccccccccccccccccccccccccccccccccccccccccccsccccccccccccccccccccccccccccccccccccccccscccccccccccccccccccccccccccccccccccccccccccccccccccccccscccccccccccccccccccccccccccccccccccccccccccccccccccccccccccccccccccccccccccccccccccccccacc"
         inkscape:connector-curvature="0"
         id="path3398"
         d="m -106.72007,-482.67224 0,70.17383 c 0,0 17.13811,7.99451 29.88868,1.82617 2.46424,2.84485 7.25929,4.62191 12.48047,4.625 2.51796,-0.003 4.99019,-0.42154 7.16015,-1.21094 1.43185,4.0094 7.17685,6.86591 13.82031,6.87109 7.21937,-10e-4 13.28428,-3.35652 14.08204,-7.79101 3.7151,1.16409 7.12506,1.50277 10.66796,0.95312 15.89444,11.84247 32.01234,7.69713 33.75977,0.51758 3.33804,4.30872 17.49609,3.61759 19.30273,-3.96094 8.34294,0.8497 22.99656,-3.46217 24.08594,-10.75 l 0.0488,0.002 c 1.8134,0 3.56613,-0.12127 5.25195,-0.32813 0.58808,2.21387 3.514,3.82968 6.93555,3.83008 3.8899,-2.1e-4 7.04266,-2.07202 7.04102,-4.62695 -0.003,-1.16172 -0.67182,-2.28011 -1.87305,-3.13281 2.90028,-1.86345 4.64453,-4.1981 4.64453,-6.74219 -0.007,-1.0763 -0.329,-2.1463 -0.95703,-3.17578 3.38949,-0.61856 6.32728,-1.62827 8.66015,-2.90039 0.70113,0.94672 2.02456,1.53374 3.46094,1.53515 0.58644,-6.4e-4 1.16541,-0.0994 1.69532,-0.28906 0.0234,0.0874 0.0507,0.17337 0.082,0.25781 0.95642,2.36827 4.83791,3.0337 8.66992,1.48633 3.83141,-1.54757 6.16243,-4.72148 5.20703,-7.08984 -0.95608,-2.36919 -4.83902,-3.03471 -8.67188,-1.48633 -1.44621,0.58637 -2.74234,1.43725 -3.70703,2.43359 -0.46034,-0.50885 -1.11707,-0.89825 -1.88086,-1.11523 0.60605,-1.00748 0.93962,-2.06693 0.94141,-3.15625 -0.004,-2.50957 -1.72419,-4.94301 -4.875,-6.89649 8.76157,-1.55875 14.61654,-5.70368 14.625,-10.35351 -0.007,-1.94212 -1.03985,-3.8207 -2.92383,-5.46094 5.06125,-2.23546 7.02834,-8.73821 6.79102,-14.04492 z m 194.79688,48.75586 c -2.68062,2e-4 -4.85352,1.34329 -4.85352,3 0,1.65671 2.1729,2.9998 4.85352,3 2.68062,-2e-4 4.85352,-1.34329 4.85352,-3 0,-1.65671 -2.1729,-2.9998 -4.85352,-3 z m -153.57227,38.30664 c -6.17427,-0.12558 -12.20794,1.55024 -16.52148,3.93359 2.78739,-1.30493 6.1041,-1.08392 8.76172,0.0508 -0.0779,-0.0184 -0.16115,-0.028 -0.24414,-0.0293 -0.60322,-0.005 -1.2497,0.44463 -1.63086,1.13281 -0.51145,0.92377 -0.38352,1.97102 0.28515,2.3418 0.66861,0.3709 1.62609,-0.0749 2.13868,-0.99805 0.46491,-0.83749 0.40995,-1.79648 -0.12891,-2.24219 0.93565,0.44705 1.76733,1.00992 2.45508,1.66016 -0.62593,0.0296 -1.2789,0.49972 -1.66992,1.20508 -0.54672,0.98773 -0.41028,2.10938 0.30468,2.50586 0.71507,0.39709 1.73698,-0.0787 2.28516,-1.06641 0.19043,-0.34328 0.30442,-0.72457 0.33008,-1.08789 1.13226,1.9997 0.95382,4.4516 -1.60547,6.83594 -3.96858,3.69728 -10.0293,-0.68555 -10.0293,-0.68555 -13.30814,0.48625 -15.01815,16.26237 -6.71093,18.20898 3.53638,0.86427 6.9483,-2.01989 9.14843,-2.95507 -0.38323,0.19741 -1.22788,0.7133 -1.84961,1.67578 0,0 -1.3994,4.10457 -1.40039,4.12304 -1.93158,0.23263 -3.8618,0.65327 -5.78515,0.9961 -0.95524,-0.90304 -2.57259,-0.76927 -3.63672,0.29882 -0.12443,0.12593 -0.23723,0.26559 -0.33789,0.41016 -0.31745,-0.28284 -0.84717,-0.38389 -1.375,-0.25781 -0.77032,0.1841 -1.29252,0.7779 -1.16016,1.33203 0.13246,0.55386 0.87039,0.85594 1.64063,0.67188 0.12224,-0.0301 0.23868,-0.0703 0.35156,-0.1211 -0.001,0.14638 0.007,0.29258 0.0293,0.4336 -0.29704,-0.10816 -0.65355,-0.12174 -1.00196,-0.0391 -0.77029,0.18414 -1.29089,0.78192 -1.1582,1.33594 0.0296,0.12425 0.0935,0.23493 0.18359,0.33594 0.30065,0.3361 0.88187,0.47159 1.45703,0.33398 0.50469,-0.12088 0.91721,-0.42507 1.08789,-0.80078 0.0117,0.0151 0.0274,0.0255 0.041,0.0391 0.0647,0.0632 0.13199,0.12421 0.20508,0.17774 -0.13715,0.0738 -0.25882,0.16779 -0.37695,0.27539 -0.58452,0.53461 -0.74996,1.30826 -0.36524,1.72851 0.0693,0.0766 0.15371,0.13794 0.25195,0.18164 l 0,-0.004 c 0.42875,0.19346 1.03404,0.0356 1.49805,-0.38867 0.41905,-0.38436 0.63713,-0.91095 0.55274,-1.3418 0.33218,-0.0213 0.66702,-0.10428 0.98437,-0.24805 -0.0117,0.22388 0.0186,0.4642 0.0937,0.68946 0.2499,0.75138 0.88902,1.21456 1.42969,1.03515 0.54093,-0.17973 0.77901,-0.94171 0.5293,-1.69336 -0.1573,-0.47131 -0.47863,-0.84671 -0.84961,-0.99804 0.28098,-0.37212 0.47437,-0.7982 0.55859,-1.23633 1.61116,-0.35296 3.21258,-0.81106 4.83594,-1.06446 -0.21118,2.12658 -0.0286,4.50933 1.12109,6.66797 l -2.88672,1.25977 -0.36914,5.39453 c -1.82602,0.083 -6.25211,-0.32737 -7.50391,1.60547 l 9.90626,1.9082 0.10742,-6.89453 2.52343,-0.85156 c 4.21501,4.39813 12.00503,5.90844 18.63282,4.36523 3.64594,-0.84892 6.70093,-2.03156 9.24414,-3.46289 l 3.36328,4.52149 5.58398,-3.26563 c 1.3024,1.28258 3.39759,4.75369 5.66602,4.35742 l -4.33399,-8.96875 -6.53125,4.95313 -1.67968,-2.88672 c 8.53973,-5.96663 9.81575,-15.2958 7.125,-23.94922 1.2653,0.52293 2.7181,1.3745 3.81836,1.96094 l 2.08203,1.84375 c -0.0151,0.44588 0.0708,0.90078 0.26172,1.32617 -0.39537,0.0647 -0.79041,0.3647 -1.04883,0.78906 -0.411,0.67707 -0.34245,1.46798 0.14453,1.76367 0.48705,0.29543 1.20999,-0.0147 1.62109,-0.6914 0.12359,-0.20282 0.20699,-0.42577 0.2461,-0.64649 0.27724,0.21112 0.5891,0.37194 0.9082,0.4668 -0.1783,0.40114 -0.089,0.95959 0.23437,1.42774 0.35778,0.51703 0.91396,0.80589 1.375,0.71289 0.10546,-0.0206 0.20636,-0.0621 0.29102,-0.1211 0.4687,-0.32393 0.48198,-1.11806 0.0312,-1.76953 -0.0912,-0.13113 -0.19725,-0.24718 -0.31445,-0.34961 0.083,-0.0358 0.16473,-0.0759 0.24218,-0.12305 0.0169,-0.0117 0.031,-0.0229 0.0469,-0.0351 0.0825,0.40435 0.41974,0.79702 0.88477,1.02734 0.53002,0.26236 1.12226,0.26381 1.49023,0.004 0.1105,-0.0783 0.19531,-0.17855 0.25195,-0.29297 0.25285,-0.51053 -0.1142,-1.20734 -0.82422,-1.55859 -0.32116,-0.1583 -0.6746,-0.22474 -0.98828,-0.18555 0.0543,-0.13213 0.0958,-0.27497 0.12696,-0.41797 0.0986,0.075 0.20586,0.1428 0.31836,0.19922 0.7098,0.35114 1.48952,0.22341 1.74218,-0.28711 0.25255,-0.51067 -0.1202,-1.21133 -0.83007,-1.5625 -0.48646,-0.24053 -1.02784,-0.25597 -1.4004,-0.0508 -0.0658,-0.16348 -0.14499,-0.33001 -0.23828,-0.48047 -0.79922,-1.27848 -2.34404,-1.76307 -3.47656,-1.0957 l -3.05859,-2.16993 c -1.47162,-1.04396 -5.12891,-2.88281 -5.12891,-2.88281 -4.29817,-9.96802 -13.56769,-18.28455 -22.37891,-18.24609 z m 66.17383,0 c -6.17427,-0.12558 -12.20794,1.55024 -16.52148,3.93359 2.78739,-1.30493 6.10409,-1.08392 8.76172,0.0508 -0.0779,-0.0184 -0.1592,-0.028 -0.24219,-0.0293 -0.60322,-0.005 -1.2497,0.44463 -1.63086,1.13281 -0.51145,0.92377 -0.38354,1.97102 0.28516,2.3418 0.66861,0.3709 1.62218,-0.0749 2.13476,-0.99805 0.46492,-0.83749 0.40995,-1.79648 -0.1289,-2.24219 0.93565,0.44705 1.76733,1.00992 2.45507,1.66016 -0.62592,0.0296 -1.27696,0.49972 -1.66796,1.20508 -0.54672,0.98773 -0.41028,2.10938 0.30468,2.50586 0.71507,0.39709 1.73698,-0.0787 2.28516,-1.06641 0.19043,-0.34328 0.30442,-0.72457 0.33008,-1.08789 1.13226,1.9997 0.95185,4.4516 -1.60742,6.83594 -3.96859,3.69728 -10.0293,-0.68555 -10.0293,-0.68555 -13.30814,0.48625 -15.01425,16.26237 -6.70703,18.20898 3.53638,0.86427 6.9444,-2.01989 9.14453,-2.95507 -0.38324,0.19741 -1.22593,0.7133 -1.84766,1.67578 0,0 -1.39745,4.10457 -1.39844,4.12304 -1.93158,0.23263 -3.8618,0.65327 -5.78515,0.9961 -0.95524,-0.90304 -2.57454,-0.76927 -3.63867,0.29882 -0.12443,0.12593 -0.23723,0.26559 -0.33789,0.41016 -0.31744,-0.28284 -0.84717,-0.38389 -1.375,-0.25781 -0.77033,0.1841 -1.29057,0.7779 -1.15821,1.33203 0.13246,0.55386 0.86648,0.85594 1.63672,0.67188 0.12224,-0.0301 0.23868,-0.0703 0.35156,-0.1211 -0.001,0.14638 0.008,0.29258 0.0312,0.4336 -0.29703,-0.10816 -0.65549,-0.12174 -1.0039,-0.0391 -0.7703,0.18416 -1.28699,0.78192 -1.1543,1.33594 0.0296,0.12425 0.0935,0.23493 0.18359,0.33594 0.30065,0.3361 0.87797,0.47159 1.45313,0.33398 0.50468,-0.12088 0.92109,-0.42507 1.0918,-0.80078 0.0117,0.0151 0.0255,0.0255 0.0391,0.0391 0.0647,0.0632 0.13004,0.12421 0.20312,0.17774 -0.13715,0.0738 -0.25882,0.16779 -0.37695,0.27539 -0.58451,0.53461 -0.74605,1.30826 -0.36133,1.72851 0.0693,0.0766 0.1498,0.13794 0.24805,0.18164 l 0,-0.004 c 0.42874,0.19346 1.03599,0.0356 1.5,-0.38867 0.41904,-0.38436 0.63518,-0.909 0.55078,-1.33985 0.33219,-0.0213 0.67093,-0.10623 0.98828,-0.25 -0.0117,0.22388 0.0186,0.4642 0.0937,0.68946 0.2499,0.75138 0.88902,1.21456 1.42969,1.03515 0.54093,-0.17973 0.77708,-0.94171 0.52734,-1.69336 -0.15729,-0.47131 -0.47862,-0.84671 -0.84961,-0.99804 0.28099,-0.37212 0.47438,-0.7982 0.5586,-1.23633 1.61115,-0.35296 3.21453,-0.81106 4.83789,-1.06446 -0.21118,2.12658 -0.0325,4.50933 1.11719,6.66797 l -2.88672,1.25977 -0.36914,5.39453 c -1.82602,0.083 -6.25016,-0.32737 -7.50196,1.60547 l 9.90625,1.9082 0.10938,-6.89453 2.51953,-0.85156 c 4.215,4.39813 12.00697,5.90844 18.63477,4.36523 3.64592,-0.84892 6.70093,-2.03156 9.24414,-3.46289 l 3.36523,4.52149 5.58398,-3.26563 c 1.3024,1.28258 3.39564,4.75369 5.66407,4.35742 l -4.33203,-8.96875 -6.53516,4.95313 -1.67578,-2.88672 c 8.53973,-5.96663 9.81576,-15.2958 7.125,-23.94922 1.2653,0.52293 2.71615,1.3745 3.8164,1.96094 l 2.08399,1.84375 c -0.0151,0.44588 0.0708,0.90078 0.26172,1.32617 -0.39537,0.0647 -0.79041,0.3647 -1.04883,0.78906 -0.411,0.67707 -0.3444,1.46798 0.14258,1.76367 0.48705,0.29543 1.21194,-0.0147 1.62304,-0.6914 0.12359,-0.20282 0.207,-0.42577 0.2461,-0.64649 0.27724,0.21112 0.58522,0.37194 0.90429,0.4668 -0.17828,0.40114 -0.0851,0.95959 0.23829,1.42774 0.35777,0.51703 0.91198,0.80589 1.37304,0.71289 0.10546,-0.0206 0.2044,-0.0621 0.28907,-0.1211 0.4687,-0.32393 0.48386,-1.11806 0.0332,-1.76953 -0.0912,-0.13113 -0.19921,-0.24718 -0.31641,-0.34961 0.083,-0.0358 0.16667,-0.0759 0.24414,-0.12305 0.0169,-0.0117 0.0311,-0.0229 0.0469,-0.0351 0.0824,0.40435 0.42169,0.79702 0.88672,1.02734 0.53003,0.26236 1.11835,0.26381 1.48633,0.004 0.11047,-0.0783 0.19726,-0.17855 0.2539,-0.29297 0.25285,-0.51053 -0.11421,-1.20734 -0.82422,-1.55859 -0.32116,-0.1583 -0.67265,-0.22474 -0.98633,-0.18555 0.0543,-0.13213 0.0958,-0.27497 0.12696,-0.41797 0.0986,0.075 0.20586,0.1428 0.31836,0.19922 0.7098,0.35114 1.48756,0.22341 1.74023,-0.28711 0.25255,-0.51067 -0.11823,-1.21133 -0.82812,-1.5625 -0.48646,-0.24053 -1.0298,-0.25597 -1.40235,-0.0508 -0.0658,-0.16348 -0.145,-0.33001 -0.23828,-0.48047 -0.79922,-1.27848 -2.34404,-1.76307 -3.47656,-1.0957 l -3.05859,-2.16993 c -1.47162,-1.04396 -5.13086,-2.88281 -5.13086,-2.88281 -4.29818,-9.96802 -13.56574,-18.28455 -22.37696,-18.24609 z m 65.79688,0 c -6.17427,-0.12558 -12.20795,1.55024 -16.52149,3.93359 2.78739,-1.30493 6.10214,-1.08392 8.75977,0.0508 -0.0779,-0.0184 -0.15723,-0.028 -0.24024,-0.0293 -0.60321,-0.005 -1.2536,0.44463 -1.63476,1.13281 -0.51145,0.92377 -0.37964,1.97102 0.28906,2.3418 0.66862,0.3709 1.62217,-0.0749 2.13477,-0.99805 0.46491,-0.83749 0.40988,-1.79648 -0.12891,-2.24219 0.93565,0.44705 1.76733,1.00992 2.45508,1.66016 -0.62592,0.0296 -1.27694,0.49972 -1.66797,1.20508 -0.5467,0.98773 -0.41028,2.10938 0.30469,2.50586 0.71506,0.39709 1.73502,-0.0787 2.2832,-1.06641 0.19044,-0.34328 0.30442,-0.72457 0.33008,-1.08789 1.13226,1.9997 0.95381,4.4516 -1.60547,6.83594 -3.96859,3.69728 -10.0293,-0.68555 -10.0293,-0.68555 -13.30814,0.48625 -15.01815,16.26237 -6.71093,18.20898 3.53638,0.86427 6.94831,-2.01989 9.14843,-2.95507 -0.38322,0.19741 -1.22592,0.7133 -1.84765,1.67578 0,0 -1.39746,4.10457 -1.39844,4.12304 -1.93157,0.23263 -3.8657,0.65327 -5.78906,0.9961 -0.95523,-0.90304 -2.5726,-0.76927 -3.63672,0.29882 -0.1244,0.12593 -0.23527,0.26559 -0.33594,0.41016 -0.31743,-0.28284 -0.84912,-0.38389 -1.37695,-0.25781 -0.77033,0.1841 -1.28862,0.7779 -1.15625,1.33203 0.13248,0.55386 0.86648,0.85594 1.63672,0.67188 0.12222,-0.0301 0.23868,-0.0703 0.35156,-0.1211 -10e-4,0.14638 0.007,0.29258 0.0293,0.4336 -0.29704,-0.10816 -0.65353,-0.12174 -1.00196,-0.0391 -0.7703,0.18416 -1.28697,0.78192 -1.15429,1.33594 0.0296,0.12425 0.0935,0.23493 0.18359,0.33594 0.30064,0.3361 0.87796,0.47159 1.45312,0.33398 0.50468,-0.12088 0.92109,-0.42507 1.0918,-0.80078 0.0116,0.0151 0.0255,0.0255 0.0391,0.0391 0.0647,0.0632 0.12998,0.12421 0.20313,0.17774 -0.13711,0.0738 -0.25883,0.16779 -0.37695,0.27539 -0.58452,0.53461 -0.74995,1.30826 -0.36524,1.72851 0.0693,0.0766 0.15371,0.13794 0.25195,0.18164 l 0,-0.004 c 0.42876,0.19346 1.036,0.0356 1.5,-0.38867 0.41905,-0.38436 0.63519,-0.909 0.55079,-1.33985 0.33219,-0.0213 0.67092,-0.10623 0.98828,-0.25 -0.0116,0.22388 0.0164,0.4642 0.0918,0.68946 0.24991,0.75138 0.89098,1.21456 1.43164,1.03515 0.54094,-0.17973 0.77513,-0.94171 0.52539,-1.69336 -0.15728,-0.47131 -0.47666,-0.84671 -0.84765,-0.99804 0.28098,-0.37212 0.47438,-0.7982 0.55859,-1.23633 1.61116,-0.35296 3.21063,-0.81106 4.83399,-1.06446 -0.21119,2.12658 -0.0286,4.50933 1.12109,6.66797 l -2.88672,1.25977 -0.36914,5.39453 c -1.82603,0.083 -6.25017,-0.32737 -7.50195,1.60547 l 9.90429,1.9082 0.11133,-6.89453 2.51953,-0.85156 c 4.215,4.39813 12.00504,5.90844 18.63282,4.36523 3.64596,-0.84892 6.70289,-2.03156 9.24609,-3.46289 l 3.36523,4.52149 5.58008,-3.26563 c 1.3024,1.28258 3.39954,4.75369 5.66797,4.35742 l -4.33203,-8.96875 -6.53516,4.95313 -1.67773,-2.88672 c 8.53973,-5.96663 9.81771,-15.2958 7.12695,-23.94922 1.2653,0.52293 2.7142,1.3745 3.81446,1.96094 l 2.08203,1.84375 c -0.015,0.44588 0.0748,0.90078 0.26562,1.32617 -0.39536,0.0647 -0.79237,0.3647 -1.05078,0.78906 -0.411,0.67707 -0.34447,1.46798 0.14258,1.76367 0.48706,0.29543 1.21193,-0.0147 1.62305,-0.6914 0.12352,-0.20282 0.20893,-0.42577 0.24804,-0.64649 0.27724,0.21112 0.58521,0.37194 0.9043,0.4668 -0.1783,0.40114 -0.085,0.95959 0.23828,1.42774 0.35777,0.51703 0.91199,0.80589 1.37305,0.71289 0.10547,-0.0206 0.2044,-0.0621 0.28906,-0.1211 0.4687,-0.32393 0.48393,-1.11806 0.0332,-1.76953 -0.0912,-0.13113 -0.1992,-0.24718 -0.3164,-0.34961 0.0831,-0.0358 0.16665,-0.0759 0.24414,-0.12305 0.0169,-0.0117 0.0292,-0.0229 0.0449,-0.0351 0.0825,0.40435 0.42366,0.79702 0.88867,1.02734 0.53003,0.26236 1.11836,0.26381 1.48633,0.004 0.11053,-0.0783 0.19727,-0.17855 0.25391,-0.29297 0.25285,-0.51053 -0.11424,-1.20734 -0.82422,-1.55859 -0.32116,-0.1583 -0.67267,-0.22474 -0.98633,-0.18555 0.0543,-0.13213 0.0957,-0.27497 0.12695,-0.41797 0.0987,0.075 0.20195,0.1428 0.31446,0.19922 0.7098,0.35114 1.49146,0.22341 1.74414,-0.28711 0.25254,-0.51067 -0.11828,-1.21133 -0.82813,-1.5625 -0.48646,-0.24053 -1.03174,-0.25597 -1.4043,-0.0508 -0.0657,-0.16348 -0.14303,-0.33001 -0.23632,-0.48047 -0.79923,-1.27848 -2.346,-1.76307 -3.47852,-1.0957 l -3.05859,-2.16993 c -1.47161,-1.04396 -5.12891,-2.88281 -5.12891,-2.88281 -4.29816,-9.96802 -13.56573,-18.28455 -22.37695,-18.24609 z m -141.07227,4.7832 0.01,0 c 0.01,-3.1e-4 0.0173,-3.1e-4 0.0273,0 0.26638,-10e-4 0.48048,0.2102 0.48047,0.47656 1e-5,0.26638 -0.2141,0.48426 -0.48047,0.48243 -0.26506,0 -0.47851,-0.21735 -0.47851,-0.48243 -7.2e-4,-0.25148 0.19065,-0.45749 0.4414,-0.47656 z m 66.17578,0 0.006,0 c 0.01,-3.1e-4 0.0213,-3.1e-4 0.0312,0 0.26638,-10e-4 0.47853,0.2102 0.47852,0.47656 1e-5,0.26638 -0.21215,0.48426 -0.47852,0.48243 -0.26506,0 -0.48047,-0.21735 -0.48047,-0.48243 -7.1e-4,-0.25148 0.19261,-0.45749 0.44336,-0.47656 z m 65.79688,0 0.006,0 c 0.0101,-3.1e-4 0.0212,-3.1e-4 0.0312,0 0.26637,-10e-4 0.47851,0.2102 0.47851,0.47656 0,0.26638 -0.21215,0.48426 -0.47851,0.48243 -0.26508,0 -0.48242,-0.21735 -0.48242,-0.48243 -7.1e-4,-0.25148 0.19457,-0.45749 0.44531,-0.47656 z m -128.85352,1.94922 0.002,0 c 0.0117,-4.2e-4 0.025,-4.2e-4 0.0371,0 0.28329,10e-5 0.51356,0.23036 0.51367,0.51367 -1.1e-4,0.28331 -0.23038,0.51163 -0.51367,0.51172 -0.2833,-8e-5 -0.51357,-0.22841 -0.51368,-0.51172 -7.1e-4,-0.26848 0.20692,-0.49281 0.47461,-0.51367 z m 66.17383,0 0.004,0 c 0.0117,-4.2e-4 0.025,-4.2e-4 0.0371,0 0.28332,10e-5 0.51356,0.23036 0.51367,0.51367 -1.1e-4,0.28331 -0.23035,0.51163 -0.51367,0.51172 -0.2833,-8e-5 -0.51357,-0.22841 -0.51368,-0.51172 -7.1e-4,-0.26848 0.20497,-0.49281 0.47266,-0.51367 z m 65.79492,0 0.006,0 c 0.0116,-4.2e-4 0.0212,-4.2e-4 0.0332,0 0.28333,10e-5 0.51748,0.23036 0.51758,0.51367 -10e-5,0.28331 -0.23425,0.51163 -0.51758,0.51172 -0.28328,-8e-5 -0.51357,-0.22841 -0.51367,-0.51172 -7.2e-4,-0.26848 0.20691,-0.49281 0.47461,-0.51367 z M -60.3353,-373.2406 c 0.0788,-2.5e-4 0.145,0.0106 0.20313,0.0312 1.39501,0.50479 -3.0549,6.89263 -7.22657,7.17969 l -0.40625,-3.74414 3.11914,-1.04297 0.50977,3.35156 0.86328,-0.70508 -0.42578,-3.13867 c 1.74219,-1.38524 2.8114,-1.92998 3.36328,-1.93164 z m 66.17188,0 c 0.0788,-2.5e-4 0.1489,0.0106 0.20703,0.0312 1.39501,0.50479 -3.0588,6.89263 -7.23047,7.17969 l -0.40235,-3.74414 3.11719,-1.04297 0.51172,3.35156 0.86328,-0.70508 -0.42969,-3.13867 c 1.74219,-1.38524 2.81141,-1.92998 3.36329,-1.93164 z m 65.79687,0 c 0.0787,-2.5e-4 0.14891,0.0106 0.20703,0.0312 1.39502,0.50479 -3.0588,6.89263 -7.23047,7.17969 l -0.40234,-3.74414 3.11719,-1.04297 0.50781,3.35156 0.86719,-0.70508 -0.42969,-3.13867 c 1.74219,-1.38524 2.81139,-1.92998 3.36328,-1.93164 z m -140.6875,3.88867 0.40039,3.63672 c -1.17836,0.52152 -2.35682,0.50444 -3.53515,0.44336 l -0.4043,-3.57813 z m 66.17188,0 0.40429,3.63672 c -1.17836,0.52152 -2.35875,0.50444 -3.53711,0.44336 l -0.40625,-3.57813 z m 65.79687,0 0.4043,3.63672 c -1.17836,0.52152 -2.35875,0.50444 -3.53711,0.44336 l -0.40625,-3.57813 z m -136.80078,0.77734 0.4082,3.28516 c 0,0 -2.61574,-0.53459 -3.95508,-2.58789 z m 66.17578,0 0.4043,3.28516 c 0,0 -2.61184,-0.53459 -3.95117,-2.58789 z m 65.79688,0 0.40429,3.28516 c 0,0 -2.61183,-0.53459 -3.95117,-2.58789 z"
         style="color:#000000;clip-rule:nonzero;display:inline;overflow:visible;visibility:visible;opacity:1;isolation:auto;mix-blend-mode:normal;color-interpolation:sRGB;color-interpolation-filters:linearRGB;solid-color:#000000;solid-opacity:1;fill:#729fcf;fill-opacity:1;fill-rule:nonzero;stroke:none;stroke-width:1;stroke-linecap:butt;stroke-linejoin:miter;stroke-miterlimit:4;stroke-dasharray:none;stroke-dashoffset:0;stroke-opacity:1;marker:none;color-rendering:auto;image-rendering:auto;shape-rendering:auto;text-rendering:auto;enable-background:accumulate" />
      <path
         id="path3403"
         transform="translate(-383.22434,-485.34591)"
         d="m 294.11523,14.257812 -5.90039,44.650391 12.02344,0 0.68945,-8.025391 4.16407,0 0.58008,8.025391 11.88671,0 -6.64648,-44.650391 -16.79688,0 z m 97.10547,0 0,44.650391 11.14063,0 0,-15.941406 3.47656,15.941406 10.72656,0 -5.87304,-22.007812 4.52343,-14.589844 -9.37695,0 -3.47656,10.701172 0,-18.753907 -11.14063,0 z m -59.92968,7.390626 c -3.14398,0 -5.69874,0.588938 -7.66602,1.765624 -1.96728,1.176694 -3.28147,2.537625 -3.94336,4.082032 -0.6435,1.52602 -0.96484,3.703742 -0.96484,6.535156 l 0,2.455078 10.45117,0 0,-3.833984 c 0,-2.040827 0.0915,-3.299317 0.27539,-3.777344 0.18386,-0.49642 0.65438,-0.746094 1.4082,-0.746094 0.66189,0 1.13047,0.294466 1.40625,0.882813 0.29418,0.56996 0.44141,1.810536 0.44141,3.722656 0,1.526027 -0.12932,2.538743 -0.38672,3.035156 -0.2574,0.49642 -2.21622,1.460438 -5.875,2.894531 -3.41976,1.323774 -5.56165,2.48373 -6.42578,3.476563 -0.86413,0.992833 -1.29492,2.858169 -1.29492,5.597656 l 0,3.00586 c 0,3.695547 0.80783,6.094118 2.42578,7.197265 1.63633,1.08476 3.43001,1.628906 5.3789,1.628906 1.48925,10e-7 2.76566,-0.323296 3.83204,-0.966796 1.08476,-0.661887 1.96816,-1.645779 2.64843,-2.951172 l 0,3.255859 10.83789,0 0,-18.367187 c 0,-6.048934 -0.19202,-10.040197 -0.57812,-11.970704 -0.3861,-1.948893 -1.53514,-3.584422 -3.44727,-4.908203 -1.91212,-1.34216 -4.75434,-2.013671 -8.52343,-2.013671 z m 34.36328,0 c -1.52602,0 -2.885,0.350168 -4.08008,1.048828 -1.19508,0.680273 -2.22571,1.708957 -3.08984,3.08789 l 0.19335,-3.474609 -11.0039,0 0,36.597656 10.81055,0 0,-25.373047 c 0,-1.76504 0.0179,-2.914079 0.0547,-3.447265 0.0368,-0.551574 0.23075,-1.011187 0.58008,-1.378907 0.34933,-0.3861 0.77116,-0.580078 1.26758,-0.580078 0.79059,0 1.27007,0.359125 1.43555,1.076172 0.18385,0.717047 0.27539,2.867891 0.27539,6.453125 l 0,23.25 10.81054,0 0,-23.855469 c 0,-3.143973 0.10945,-5.084879 0.33008,-5.820312 0.23902,-0.735434 0.75433,-1.103516 1.54492,-1.103516 0.77221,0 1.26065,0.37704 1.46289,1.13086 0.22063,0.735433 0.33008,2.667381 0.33008,5.792968 l 0,23.855469 10.81055,0 0,-26.007812 c 0,-2.996887 -0.17411,-5.156689 -0.52344,-6.480469 -0.34933,-1.34216 -1.15015,-2.473285 -2.40039,-3.392578 -1.23185,-0.919287 -2.79376,-1.378906 -4.6875,-1.378906 -1.43409,0 -2.73932,0.350168 -3.91601,1.048828 -1.1767,0.680273 -2.2342,1.708957 -3.17188,3.08789 -1.70988,-2.757867 -4.0547,-4.136718 -7.0332,-4.136718 z m 63.26562,0 c -2.44531,0 -4.59616,0.377045 -6.45312,1.130859 -1.83858,0.75382 -3.14381,1.829242 -3.91602,3.226562 -0.7722,1.378934 -1.1582,3.529778 -1.1582,6.453125 0,2.059207 0.35912,3.843923 1.07617,5.351563 0.71705,1.489247 2.7117,3.151654 5.98437,4.990234 3.8978,2.169527 6.0576,3.474756 6.48047,3.916016 0.40449,0.44126 0.60743,1.536556 0.60743,3.283203 0,1.26862 -0.1562,2.105272 -0.46875,2.509766 -0.31256,0.3861 -0.86566,0.578125 -1.65625,0.578125 -0.73544,0 -1.23088,-0.294466 -1.48829,-0.882813 -0.23901,-0.588347 -0.35937,-1.864751 -0.35937,-3.832031 l 0,-2.316406 -9.87305,0 0,1.763671 c 0,3.052041 0.37704,5.332211 1.13086,6.839844 0.75382,1.50764 2.13267,2.703418 4.13672,3.585938 2.02244,0.882513 4.44984,1.324218 7.28125,1.324218 2.55563,0 4.7353,-0.40587 6.53711,-1.214843 1.82019,-0.82736 3.11647,-1.99432 3.88867,-3.501953 0.77221,-1.526027 1.1582,-3.779313 1.1582,-6.757813 0,-2.66594 -0.50635,-4.69643 -1.51757,-6.09375 -1.01122,-1.39732 -3.1352,-2.88757 -6.3711,-4.46875 -2.42692,-1.19508 -4.03558,-2.103402 -4.82617,-2.728515 -0.7722,-0.625121 -1.24078,-1.196138 -1.40625,-1.710938 -0.14708,-0.533187 -0.2207,-1.360882 -0.2207,-2.482422 0,-0.82736 0.15619,-1.443169 0.46875,-1.847656 0.31256,-0.422874 0.78113,-0.634766 1.40625,-0.634766 0.7722,0 1.24973,0.229807 1.43359,0.689453 0.20225,0.44126 0.30469,1.507726 0.30469,3.199219 l 0,1.986328 9.87305,0 0,-2.123047 c 0,-1.838587 -0.10049,-3.19056 -0.30274,-4.054687 -0.18386,-0.864134 -0.73696,-1.80128 -1.65625,-2.8125 -0.9009,-1.01122 -2.20613,-1.821001 -3.91601,-2.427734 -1.6915,-0.625114 -3.75081,-0.9375 -6.17774,-0.9375 z m -125.92383,2.591796 c 0.58835,7.427868 1.17728,13.670469 1.76563,18.726563 l -3.97266,0 c 0.29418,-3.952947 1.03034,-10.195548 2.20703,-18.726563 z m 29.70313,17.265625 0,7.529297 c 0,1.83858 -0.1114,2.978662 -0.33203,3.419922 -0.20225,0.422874 -0.6529,0.632813 -1.35157,0.632813 -0.73543,0 -1.23087,-0.274599 -1.48828,-0.826172 -0.23901,-0.551574 -0.35937,-1.774229 -0.35937,-3.667969 0,-1.65472 0.13827,-2.924121 0.41406,-3.806641 0.29417,-0.88252 1.33377,-1.975856 3.11719,-3.28125 z"
         style="font-style:normal;font-variant:normal;font-weight:normal;font-stretch:condensed;font-size:medium;line-height:125%;font-family:Impact;-inkscape-font-specification:'Impact Condensed';letter-spacing:0px;word-spacing:0px;fill:#ffffff;fill-opacity:1;stroke:none;stroke-width:1px;stroke-linecap:butt;stroke-linejoin:miter;stroke-opacity:1"
         inkscape:connector-curvature="0" />
    </g>
  </g>
</svg>
