<?xml version="1.0" encoding="UTF-8" standalone="no"?>
<!-- Created with Inkscape (http://www.inkscape.org/) -->

<svg
   xmlns:dc="http://purl.org/dc/elements/1.1/"
   xmlns:cc="http://creativecommons.org/ns#"
   xmlns:rdf="http://www.w3.org/1999/02/22-rdf-syntax-ns#"
   xmlns:svg="http://www.w3.org/2000/svg"
   xmlns="http://www.w3.org/2000/svg"
   xmlns:sodipodi="http://sodipodi.sourceforge.net/DTD/sodipodi-0.dtd"
   xmlns:inkscape="http://www.inkscape.org/namespaces/inkscape"
   width="34.925003mm"
   height="11.255965mm"
   viewBox="0 0 123.75001 39.883341"
   id="svg2"
   version="1.1"
   inkscape:version="0.91 r13725"
   sodipodi:docname="aamks.svg">
  <defs
     id="defs4">
    <inkscape:path-effect
       effect="powerstroke"
       id="path-effect5176"
       is_visible="true"
       offset_points="0,0.5"
       sort_points="true"
       interpolator_type="Linear"
       interpolator_beta="0.2"
       start_linecap_type="zerowidth"
       linejoin_type="round"
       miter_limit="4"
       end_linecap_type="zerowidth"
       cusp_linecap_type="round" />
    <inkscape:path-effect
       effect="spiro"
       id="path-effect5174"
       is_visible="true" />
    <inkscape:path-effect
       effect="powerstroke"
       id="path-effect3344"
       is_visible="true"
       offset_points="0,0.5"
       sort_points="true"
       interpolator_type="Linear"
       interpolator_beta="0.2"
       start_linecap_type="zerowidth"
       linejoin_type="round"
       miter_limit="4"
       end_linecap_type="zerowidth"
       cusp_linecap_type="round" />
    <inkscape:path-effect
       effect="spiro"
       id="path-effect3342"
       is_visible="true" />
  </defs>
  <sodipodi:namedview
     id="base"
     pagecolor="#ffffff"
     bordercolor="#666666"
     borderopacity="1.0"
     inkscape:pageopacity="0.0"
     inkscape:pageshadow="2"
     inkscape:zoom="1.4142136"
     inkscape:cx="-40.370866"
     inkscape:cy="-108.88154"
     inkscape:document-units="px"
     inkscape:current-layer="layer1"
     showgrid="false"
     inkscape:snap-global="false"
     showguides="true"
     inkscape:guide-bbox="true"
     inkscape:window-width="1676"
     inkscape:window-height="1001"
     inkscape:window-x="106"
     inkscape:window-y="22"
     inkscape:window-maximized="0"
     fit-margin-top="0"
     fit-margin-left="0"
     fit-margin-right="0"
     fit-margin-bottom="0"
     showborder="false" />
  <metadata
     id="metadata7">
    <rdf:RDF>
      <cc:Work
         rdf:about="">
        <dc:format>image/svg+xml</dc:format>
        <dc:type
           rdf:resource="http://purl.org/dc/dcmitype/StillImage" />
        <dc:title></dc:title>
      </cc:Work>
    </rdf:RDF>
  </metadata>
  <g
     inkscape:label="Layer 1"
     inkscape:groupmode="layer"
     id="layer1"
     transform="translate(-215.41256,-25.548204)">
    <path
       style="color:#000000;clip-rule:nonzero;display:inline;overflow:visible;visibility:visible;opacity:1;isolation:auto;mix-blend-mode:normal;color-interpolation:sRGB;color-interpolation-filters:linearRGB;solid-color:#000000;solid-opacity:1;fill:#729fcf;fill-opacity:1;fill-rule:nonzero;stroke:none;stroke-width:1;stroke-linecap:butt;stroke-linejoin:miter;stroke-miterlimit:4;stroke-dasharray:none;stroke-dashoffset:0;stroke-opacity:1;marker:none;color-rendering:auto;image-rendering:auto;shape-rendering:auto;text-rendering:auto;enable-background:accumulate"
       d="M 46.798828 0 L 36.5625 31.806641 L 43.056641 33.277344 L 44.558594 27.482422 L 46.832031 27.998047 L 46.023438 33.947266 L 52.587891 35.435547 L 55.970703 2.078125 L 46.798828 0 z M 17.304688 4.5917969 C 13.622357 4.5169069 10.023762 5.51607 7.4511719 6.9375 C 9.1135719 6.15924 11.090781 6.29199 12.675781 6.96875 C 12.629381 6.95775 12.58075 6.9519719 12.53125 6.9511719 C 12.17149 6.9481719 11.785914 7.2165231 11.558594 7.6269531 C 11.253564 8.1778831 11.329706 8.8023075 11.728516 9.0234375 C 12.127276 9.2446475 12.698196 8.9782944 13.003906 8.4277344 C 13.281176 7.9282544 13.247161 7.3576169 12.925781 7.0917969 C 13.483801 7.3584169 13.980455 7.6922781 14.390625 8.0800781 C 14.017325 8.0977781 13.627731 8.3801112 13.394531 8.8007812 C 13.068471 9.3898712 13.149772 10.058462 13.576172 10.294922 C 14.002642 10.531762 14.612523 10.247223 14.939453 9.6582031 C 15.053033 9.4534731 15.121419 9.2284087 15.136719 9.0117188 C 15.811999 10.204339 15.704094 11.663927 14.177734 13.085938 C 11.810874 15.290998 8.1972656 12.677734 8.1972656 12.677734 C 0.26030563 12.967734 -0.7591075 22.376149 4.1953125 23.537109 C 6.3676425 24.068009 8.4675275 22.21768 9.7734375 21.71875 C 9.7734375 21.71875 9.0432281 22.010031 8.5488281 22.775391 C 4.1716481 32.046711 13.358564 36.13143 20.365234 34.5 C 42.225634 29.41 29.058838 4.5404929 17.304688 4.5917969 z M 11.876953 7.4453125 L 11.880859 7.4453125 C 11.886859 7.4451325 11.892437 7.4451325 11.898438 7.4453125 C 12.057308 7.4443325 12.185557 7.5716088 12.185547 7.7304688 C 12.185557 7.8893388 12.057298 8.0186781 11.898438 8.0175781 C 11.740357 8.0175781 11.611328 7.8885588 11.611328 7.7304688 C 11.610898 7.5804888 11.727403 7.4566825 11.876953 7.4453125 z M 49.642578 8.2753906 C 49.023148 14.654961 48.504208 19.307432 48.080078 22.232422 L 45.910156 21.740234 C 46.979426 18.118284 48.222448 13.630491 49.642578 8.2753906 z M 13.736328 8.6074219 L 13.738281 8.6074219 C 13.745281 8.6071719 13.752566 8.6071719 13.759766 8.6074219 C 13.928736 8.6074819 14.066346 8.7451025 14.066406 8.9140625 C 14.066346 9.0830325 13.928736 9.21869 13.759766 9.21875 C 13.590806 9.2187 13.453185 9.0830325 13.453125 8.9140625 C 13.452695 8.7539425 13.576688 8.6198619 13.736328 8.6074219 z M 94.212891 11.675781 L 94.212891 36.423828 L 100.38867 36.423828 L 100.38867 27.587891 L 102.3125 36.423828 L 108.25781 36.423828 L 105.00391 24.226562 L 107.50977 16.140625 L 102.3125 16.140625 L 100.38867 22.070312 L 100.38867 11.675781 L 94.212891 11.675781 z M 30.871094 15.507812 C 31.365964 16.539243 31.587891 17.382812 31.587891 17.382812 L 33.638672 18.552734 L 34.880859 19.652344 C 34.871859 19.918264 34.923289 20.189659 35.037109 20.443359 C 34.801319 20.481959 34.566229 20.660972 34.412109 20.914062 C 34.166989 21.317862 34.205664 21.788494 34.496094 21.964844 C 34.786574 22.141034 35.219654 21.956304 35.464844 21.552734 C 35.538544 21.431774 35.588008 21.299609 35.611328 21.167969 C 35.776678 21.293879 35.962034 21.388743 36.152344 21.445312 C 36.046004 21.684553 36.100149 22.017675 36.292969 22.296875 C 36.506339 22.605245 36.838301 22.778126 37.113281 22.722656 C 37.176181 22.710356 37.234656 22.685591 37.285156 22.650391 C 37.564686 22.457201 37.573447 21.984243 37.304688 21.595703 C 37.250288 21.517503 37.187088 21.447809 37.117188 21.386719 C 37.166687 21.365319 37.215509 21.3406 37.261719 21.3125 C 37.271819 21.3055 37.279663 21.300369 37.289062 21.292969 C 37.338263 21.534119 37.541009 21.766937 37.818359 21.904297 C 38.134459 22.060767 38.485618 22.06149 38.705078 21.90625 C 38.770978 21.85955 38.821689 21.800662 38.855469 21.732422 C 39.006269 21.427942 38.788684 21.012224 38.365234 20.802734 C 38.173694 20.708334 37.962461 20.668036 37.775391 20.691406 C 37.807791 20.612606 37.832963 20.528639 37.851562 20.443359 C 37.910362 20.488059 37.973926 20.52885 38.041016 20.5625 C 38.464346 20.77192 38.929388 20.695095 39.080078 20.390625 C 39.230698 20.086065 39.009317 19.668424 38.585938 19.458984 C 38.295817 19.315534 37.97219 19.305384 37.75 19.427734 C 37.7108 19.330234 37.663052 19.232318 37.607422 19.142578 C 37.130762 18.380098 36.208633 18.090261 35.533203 18.488281 L 33.708984 17.193359 L 30.871094 15.507812 z M 114.9082 15.773438 C 113.55294 15.773438 112.36121 15.980657 111.33203 16.398438 C 110.31304 16.816227 109.58813 17.41305 109.16016 18.1875 C 108.73218 18.95174 108.51953 20.143462 108.51953 21.763672 C 108.51953 22.904952 108.71782 23.892946 109.11523 24.728516 C 109.51264 25.553906 110.61783 26.477094 112.43164 27.496094 C 114.59192 28.698514 115.78907 29.421456 116.02344 29.666016 C 116.24762 29.910566 116.35938 30.518288 116.35938 31.486328 C 116.35938 32.189438 116.27477 32.652773 116.10156 32.876953 C 115.92834 33.090943 115.62176 33.197266 115.18359 33.197266 C 114.77599 33.197266 114.50008 33.035064 114.35742 32.708984 C 114.22495 32.382904 114.1582 31.674324 114.1582 30.583984 L 114.1582 29.298828 L 108.68555 29.298828 L 108.68555 30.277344 C 108.68555 31.968874 108.89668 33.232769 109.31445 34.068359 C 109.73225 34.903929 110.49475 35.567521 111.60547 36.056641 C 112.72636 36.545761 114.07138 36.789062 115.64062 36.789062 C 117.05705 36.789062 118.26504 36.565537 119.26367 36.117188 C 120.27246 35.658628 120.99194 35.011361 121.41992 34.175781 C 121.84789 33.330021 122.06055 32.080467 122.06055 30.429688 C 122.06055 28.952137 121.78116 27.827174 121.2207 27.052734 C 120.66026 26.278294 119.48289 25.452512 117.68945 24.576172 C 116.34437 23.913822 115.4538 23.40896 115.01562 23.0625 C 114.58765 22.71604 114.32803 22.400564 114.23633 22.115234 C 114.15483 21.819734 114.11328 21.361814 114.11328 20.740234 C 114.11328 20.281674 114.19979 19.940977 114.37305 19.716797 C 114.5463 19.482427 114.80784 19.363281 115.1543 19.363281 C 115.58228 19.363281 115.84537 19.491344 115.94727 19.746094 C 116.05936 19.990654 116.11523 20.582041 116.11523 21.519531 L 116.11523 22.621094 L 121.58789 22.621094 L 121.58789 21.441406 C 121.58789 20.422406 121.53201 19.674232 121.41992 19.195312 C 121.31801 18.716383 121.01341 18.199112 120.50391 17.638672 C 120.0046 17.078212 119.2797 16.629229 118.33203 16.292969 C 117.39455 15.946499 116.25327 15.773438 114.9082 15.773438 z M 61.511719 15.779297 C 59.769229 15.779297 58.354002 16.103699 57.263672 16.755859 C 56.173342 17.408009 55.443002 18.161618 55.076172 19.017578 C 54.719522 19.863348 54.541016 21.071355 54.541016 22.640625 L 54.541016 24.001953 L 60.333984 24.001953 L 60.333984 21.876953 C 60.333984 20.745863 60.384428 20.048143 60.486328 19.783203 C 60.588228 19.508073 60.847845 19.369141 61.265625 19.369141 C 61.632465 19.369141 61.894025 19.533295 62.046875 19.859375 C 62.209915 20.175265 62.291016 20.864068 62.291016 21.923828 C 62.291016 22.769598 62.220825 23.328386 62.078125 23.603516 C 61.935455 23.878646 60.848122 24.414164 58.820312 25.208984 C 56.924982 25.942664 55.738696 26.584506 55.259766 27.134766 C 54.780836 27.685026 54.541016 28.719981 54.541016 30.238281 L 54.541016 31.904297 C 54.541016 33.952487 54.989999 35.283121 55.886719 35.894531 C 56.793629 36.495731 57.787057 36.794922 58.867188 36.794922 C 59.692578 36.794922 60.401167 36.616416 60.992188 36.259766 C 61.593388 35.892926 62.081964 35.34848 62.458984 34.625 L 62.458984 36.429688 L 68.466797 36.429688 L 68.466797 26.25 C 68.466797 22.89749 68.358521 20.683231 68.144531 19.613281 C 67.930541 18.533141 67.294135 17.628211 66.234375 16.894531 C 65.174615 16.150661 63.600659 15.779297 61.511719 15.779297 z M 80.556641 15.779297 C 79.710861 15.779297 78.957282 15.972155 78.294922 16.359375 C 77.632572 16.736405 77.062914 17.306063 76.583984 18.070312 L 76.689453 16.146484 L 70.589844 16.146484 L 70.589844 36.429688 L 76.583984 36.429688 L 76.583984 22.365234 C 76.583984 21.386994 76.592681 20.750578 76.613281 20.455078 C 76.633681 20.149378 76.741937 19.895206 76.935547 19.691406 C 77.129147 19.477416 77.361599 19.369141 77.636719 19.369141 C 78.074889 19.369141 78.339931 19.567434 78.431641 19.964844 C 78.533541 20.362254 78.583984 21.555929 78.583984 23.542969 L 78.583984 36.429688 L 84.576172 36.429688 L 84.576172 23.207031 C 84.576172 21.464551 84.637566 20.388069 84.759766 19.980469 C 84.892226 19.572869 85.179027 19.369141 85.617188 19.369141 C 86.045178 19.369141 86.313691 19.580257 86.425781 19.998047 C 86.548061 20.405657 86.609375 21.474741 86.609375 23.207031 L 86.609375 36.429688 L 92.601562 36.429688 L 92.601562 22.015625 C 92.601562 20.354645 92.504127 19.155555 92.310547 18.421875 C 92.116927 17.678005 91.673389 17.052479 90.980469 16.542969 C 90.297739 16.033479 89.432383 15.779297 88.382812 15.779297 C 87.588003 15.779297 86.865061 15.972155 86.212891 16.359375 C 85.560731 16.736405 84.972815 17.306063 84.453125 18.070312 C 83.505455 16.541812 82.207411 15.779297 80.556641 15.779297 z M 20.503906 17.953125 C 21.335896 18.254183 18.681334 22.063175 16.193359 22.234375 L 15.951172 20.001953 L 17.810547 19.378906 L 18.115234 21.378906 L 18.630859 20.957031 L 18.375 19.085938 C 19.56247 18.141766 20.226576 17.852772 20.503906 17.953125 z M 15.181641 20.251953 L 15.421875 22.421875 C 14.719105 22.732905 14.01527 22.721976 13.3125 22.685547 L 13.070312 20.550781 L 15.181641 20.251953 z M 12.300781 20.716797 L 12.542969 22.675781 C 12.542969 22.675781 10.984327 22.357398 10.185547 21.132812 L 12.300781 20.716797 z M 62.291016 26.783203 L 62.291016 30.957031 C 62.291016 31.976031 62.229612 32.607003 62.107422 32.851562 C 61.995332 33.085932 61.746595 33.203125 61.359375 33.203125 C 60.951785 33.203125 60.67391 33.051794 60.53125 32.746094 C 60.39878 32.440394 60.333984 31.762461 60.333984 30.712891 C 60.333984 29.795801 60.411573 29.090693 60.564453 28.601562 C 60.727503 28.112453 61.302576 27.506683 62.291016 26.783203 z M 7.2050781 26.878906 L 3.9765625 27.455078 C 3.4068725 26.916508 2.4412906 26.993839 1.8066406 27.630859 C 1.7324406 27.705959 1.6655087 27.790733 1.6054688 27.876953 C 1.4161487 27.708273 1.0999563 27.647466 0.78515625 27.722656 C 0.32573625 27.832456 0.01481 28.187098 0.09375 28.517578 C 0.17275 28.847898 0.6109425 29.027759 1.0703125 28.917969 C 1.1432125 28.900069 1.21393 28.876003 1.28125 28.845703 C 1.28042 28.933003 1.2850281 29.019416 1.2988281 29.103516 C 1.1216781 29.039016 0.90896187 29.030778 0.70117188 29.080078 C 0.24176188 29.189908 -0.06742125 29.546533 0.01171875 29.876953 C 0.02941875 29.951053 0.06732375 30.017885 0.12109375 30.078125 C 0.30039375 30.278575 0.64525125 30.359414 0.98828125 30.277344 C 1.2892713 30.205244 1.5368619 30.022898 1.6386719 29.798828 C 1.6456719 29.807828 1.6540094 29.816119 1.6621094 29.824219 C 1.7007094 29.861919 1.7415663 29.897768 1.7851562 29.929688 C 1.7033563 29.973687 1.6290438 30.027627 1.5585938 30.091797 C 1.2099937 30.410637 1.1123469 30.872407 1.3417969 31.123047 C 1.3830969 31.168747 1.4335875 31.206352 1.4921875 31.232422 L 1.4921875 31.230469 C 1.7478875 31.345849 2.1099888 31.251117 2.3867188 30.998047 C 2.6366388 30.768827 2.7651838 30.456179 2.7148438 30.199219 C 2.9129637 30.186519 3.1134644 30.136551 3.3027344 30.050781 C 3.2957344 30.184301 3.314475 30.326598 3.359375 30.460938 C 3.508415 30.909058 3.8904306 31.185125 4.2128906 31.078125 C 4.5355006 30.970935 4.6762837 30.516639 4.5273438 30.068359 C 4.4335438 29.787269 4.2427444 29.562916 4.0214844 29.472656 C 4.1890644 29.250726 4.3032856 28.997628 4.3535156 28.736328 L 7.2207031 28.064453 C 7.1511031 27.540332 7.1941781 26.857183 7.2050781 26.878906 z M 32.009766 30.433594 L 28.113281 33.386719 L 27.246094 31.964844 C 27.246094 31.964844 26.629669 32.390337 26.074219 32.654297 L 27.884766 35.130859 L 31.214844 33.183594 C 31.991594 33.948524 33.24086 36.01758 34.59375 35.78125 L 32.009766 30.433594 z M 7.9511719 30.542969 L 6.4707031 31.203125 L 6.25 34.421875 C 5.16097 34.471375 2.5219606 34.226166 1.7753906 35.378906 L 7.6835938 36.515625 L 7.7480469 32.404297 L 8.9785156 31.947266 C 8.9785156 31.947266 8.3756019 31.217591 7.9511719 30.542969 z M 1.9140625 37.890625 L 1.9140625 38.507812 L 1.9140625 37.890625 z M 2.25 39.132812 L 2.25 39.632812 L 121.96875 39.632812 L 121.96875 39.132812 L 2.25 39.132812 z "
       transform="translate(215.41256,25.548204)"
       id="path3344" />
  </g>
</svg>
