<?xml version="1.0" encoding="UTF-8" standalone="no"?>
<!-- Created with Inkscape (http://www.inkscape.org/) -->

<svg
   xmlns:dc="http://purl.org/dc/elements/1.1/"
   xmlns:cc="http://creativecommons.org/ns#"
   xmlns:rdf="http://www.w3.org/1999/02/22-rdf-syntax-ns#"
   xmlns:svg="http://www.w3.org/2000/svg"
   xmlns="http://www.w3.org/2000/svg"
   xmlns:sodipodi="http://sodipodi.sourceforge.net/DTD/sodipodi-0.dtd"
   xmlns:inkscape="http://www.inkscape.org/namespaces/inkscape"
   width="6.0291476mm"
   height="9.4310608mm"
   viewBox="0 0 6.0291476 9.4310608"
   version="1.1"
   id="svg185"
   inkscape:version="0.92.3 (2405546, 2018-03-11)"
   sodipodi:docname="m3.svg">
  <defs
     id="defs179" />
  <sodipodi:namedview
     id="base"
     pagecolor="#ffffff"
     bordercolor="#666666"
     borderopacity="1.0"
     inkscape:pageopacity="0.0"
     inkscape:pageshadow="2"
     inkscape:zoom="8"
     inkscape:cx="31.497107"
     inkscape:cy="12.127137"
     inkscape:document-units="mm"
     inkscape:current-layer="layer1"
     showgrid="false"
     inkscape:window-width="1680"
     inkscape:window-height="1004"
     inkscape:window-x="0"
     inkscape:window-y="0"
     inkscape:window-maximized="1"
     inkscape:snap-global="false"
     fit-margin-top="0"
     fit-margin-left="0"
     fit-margin-right="0"
     fit-margin-bottom="0" />
  <metadata
     id="metadata182">
    <rdf:RDF>
      <cc:Work
         rdf:about="">
        <dc:format>image/svg+xml</dc:format>
        <dc:type
           rdf:resource="http://purl.org/dc/dcmitype/StillImage" />
        <dc:title></dc:title>
      </cc:Work>
    </rdf:RDF>
  </metadata>
  <g
     inkscape:label="Layer 1"
     inkscape:groupmode="layer"
     id="layer1"
     transform="translate(81.433092,112.73598)">
    <g
       id="g343"
       transform="matrix(0.27708008,0,0,0.27708008,-10.589226,-112.39434)">
      <g
         id="g291"
         transform="matrix(0.26458333,0,0,0.26458333,-347.94509,-102.53833)">
        <path
           inkscape:connector-curvature="0"
           style="opacity:1;vector-effect:none;fill:#ffffff;fill-opacity:1;stroke:none;stroke-width:32.00000001;stroke-linecap:butt;stroke-linejoin:miter;stroke-miterlimit:4;stroke-dasharray:none;stroke-dashoffset:0;stroke-opacity:1;font-variant-east_asian:normal"
           d="m -819.28906,-4.6601562 c -21.5926,0 -38.97461,17.3839742 -38.97461,38.9765622 v 16.521485 c 10.49722,4.70106 24.44011,7.125282 39.23047,7.101562 v -9.111328 c -5.7031,-0.872899 -10.04883,-5.762087 -10.04883,-11.716797 V 20.443359 c 0,-5.954709 4.34573,-10.8438973 10.04883,-11.7167965 V -4.6601562 Z"
           transform="translate(1206.9817,387.54645)"
           id="path285" />
        <path
           inkscape:connector-curvature="0"
           style="opacity:1;vector-effect:none;fill:#ef2929;fill-opacity:1;stroke:none;stroke-width:3.77952761;stroke-linecap:butt;stroke-linejoin:miter;stroke-miterlimit:4;stroke-dasharray:none;stroke-dashoffset:0;stroke-opacity:1;font-variant-east_asian:normal"
           d="M -815.25391,-4.6601562 V 8.7480469 c 5.63422,0.9309135 9.91016,5.7892711 9.91016,11.6953121 v 16.667969 c 0,5.906042 -4.27594,10.764399 -9.91016,11.695313 v 9.072265 c 13.20453,-0.38928 26.88369,-2.707926 39.23047,-7.066406 V 34.316406 c 0,-21.592588 -17.38396,-38.9765622 -38.97656,-38.9765622 z"
           transform="translate(1206.9817,387.54645)"
           id="path287" />
        <path
           inkscape:connector-curvature="0"
           style="opacity:1;vector-effect:none;fill:#ffffff;fill-opacity:1;stroke:none;stroke-width:32;stroke-linecap:butt;stroke-linejoin:miter;stroke-miterlimit:4;stroke-dasharray:none;stroke-dashoffset:0;stroke-opacity:1"
           d="m 430.95898,442.375 c -27.50017,9.40187 -60.48436,9.27057 -82.24023,0.13867 v 30.04102 c 0,21.59259 17.38201,38.97656 38.97461,38.97656 h 4.28906 c 21.5926,0 38.97656,-17.38397 38.97656,-38.97656 z"
           id="path289" />
      </g>
      <path
         transform="translate(-28.597839)"
         sodipodi:type="inkscape:offset"
         inkscape:radius="-1.0083253"
         inkscape:original="M -216.2207 2.2675781 C -217.96049 2.2675781 -219.36133 3.6684122 -219.36133 5.4082031 L -219.36133 9.8183594 C -219.36133 11.55815 -217.96049 12.958984 -216.2207 12.958984 C -214.48091 12.958984 -213.08008 11.55815 -213.08008 9.8183594 L -213.08008 5.4082031 C -213.08008 3.6684122 -214.48091 2.2675781 -216.2207 2.2675781 z "
         style="opacity:1;vector-effect:none;fill:#ffffff;fill-opacity:1;stroke:none;stroke-width:8.46666656;stroke-linecap:butt;stroke-linejoin:miter;stroke-miterlimit:4;stroke-dasharray:none;stroke-dashoffset:0;stroke-opacity:1;font-variant-east_asian:normal"
         id="path293"
         d="m -216.2207,3.2753906 c -1.19854,0 -2.13282,0.9342754 -2.13282,2.1328125 v 4.4101563 c 0,1.1985366 0.93428,2.1328126 2.13282,2.1328126 1.19854,0 2.13281,-0.934272 2.13281,-2.1328126 V 5.4082031 c 0,-1.198541 -0.93427,-2.1328125 -2.13281,-2.1328125 z" />
    </g>
  </g>
</svg>
