<?xml version="1.0" encoding="UTF-8" standalone="no"?>
<!-- Created with Inkscape (http://www.inkscape.org/) -->

<svg
   xmlns:dc="http://purl.org/dc/elements/1.1/"
   xmlns:cc="http://creativecommons.org/ns#"
   xmlns:rdf="http://www.w3.org/1999/02/22-rdf-syntax-ns#"
   xmlns:svg="http://www.w3.org/2000/svg"
   xmlns="http://www.w3.org/2000/svg"
   xmlns:sodipodi="http://sodipodi.sourceforge.net/DTD/sodipodi-0.dtd"
   xmlns:inkscape="http://www.inkscape.org/namespaces/inkscape"
   width="4.3800669mm"
   height="4.3800669mm"
   viewBox="0 0 15.519922 15.519922"
   id="svg2"
   version="1.1"
   inkscape:version="0.91 r13725"
   sodipodi:docname="qmark.svg">
  <defs
     id="defs4" />
  <sodipodi:namedview
     id="base"
     pagecolor="#ffffff"
     bordercolor="#666666"
     borderopacity="1.0"
     inkscape:pageopacity="0.0"
     inkscape:pageshadow="2"
     inkscape:zoom="11.313708"
     inkscape:cx="10.96675"
     inkscape:cy="2.7624814"
     inkscape:document-units="px"
     inkscape:current-layer="layer1"
     showgrid="false"
     fit-margin-top="0"
     fit-margin-left="0"
     fit-margin-right="0"
     fit-margin-bottom="0"
     inkscape:window-width="834"
     inkscape:window-height="672"
     inkscape:window-x="842"
     inkscape:window-y="329"
     inkscape:window-maximized="0" />
  <metadata
     id="metadata7">
    <rdf:RDF>
      <cc:Work
         rdf:about="">
        <dc:format>image/svg+xml</dc:format>
        <dc:type
           rdf:resource="http://purl.org/dc/dcmitype/StillImage" />
        <dc:title></dc:title>
      </cc:Work>
    </rdf:RDF>
  </metadata>
  <g
     inkscape:label="Layer 1"
     inkscape:groupmode="layer"
     id="layer1"
     transform="translate(-37.304475,-63.212314)">
    <g
       style="font-style:normal;font-weight:normal;font-size:75.60902405px;line-height:125%;font-family:Sans;letter-spacing:0px;word-spacing:0px;fill:#ffffff;fill-opacity:1;stroke:none;stroke-width:1px;stroke-linecap:butt;stroke-linejoin:miter;stroke-opacity:1"
       id="text3338" />
    <g
       id="g3369"
       transform="matrix(0.19399903,0,0,0.19399903,212.45788,-56.693923)">
      <circle
         r="40"
         cy="658.07648"
         cx="-862.85712"
         id="path3336"
         style="color:#000000;clip-rule:nonzero;display:inline;overflow:visible;visibility:visible;opacity:1;isolation:auto;mix-blend-mode:normal;color-interpolation:sRGB;color-interpolation-filters:linearRGB;solid-color:#000000;solid-opacity:1;fill:#4e9a06;fill-opacity:1;fill-rule:evenodd;stroke:none;stroke-width:3.16778946;stroke-linecap:butt;stroke-linejoin:miter;stroke-miterlimit:4;stroke-dasharray:none;stroke-dashoffset:0;stroke-opacity:1;color-rendering:auto;image-rendering:auto;shape-rendering:auto;text-rendering:auto;enable-background:accumulate" />
      <g
         id="text3345"
         style="font-style:normal;font-weight:normal;font-size:40px;line-height:125%;font-family:Sans;letter-spacing:0px;word-spacing:0px;fill:#000000;fill-opacity:1;stroke:none;stroke-width:1px;stroke-linecap:butt;stroke-linejoin:miter;stroke-opacity:1">
        <path
           sodipodi:nodetypes="sccccscscccsccccsscssssss"
           inkscape:connector-curvature="0"
           id="path3350"
           d="m -862.44488,631.80587 c -5.74312,0 -10.00947,1.3435 -12.79899,4.03046 -2.769,2.66646 -4.35862,6.19439 -4.76885,10.58379 l 11.93752,1.4768 c 0.26663,-2.39981 0.87173,-4.08173 1.81524,-5.04576 0.96403,-0.96401 2.17417,-1.44604 3.63048,-1.44604 1.35373,0 2.3588,0.31794 3.01516,0.95377 0.67687,0.61535 1.0153,1.48706 1.0153,2.61518 0,1.12813 -0.83069,2.36906 -2.49211,3.72279 -3.11771,2.58442 -5.12782,4.3894 -6.0303,5.41495 -0.88199,1.02556 -1.5486,2.16394 -1.99984,3.41513 -0.45124,1.23067 -0.67688,2.8408 -0.67688,4.83039 l 0,1.16912 11.6914,0 c 0,-1.59986 0.26664,-2.89208 0.79993,-3.87662 0.55381,-1.00503 1.86653,-2.32801 3.93815,-3.96891 2.97414,-2.33829 4.94321,-4.3176 5.90724,-5.93799 0.96402,-1.62038 1.44603,-3.3023 1.44603,-5.04575 0,-4.2048 -1.86652,-7.56864 -5.59956,-10.09152 -2.7485,-1.8665 -6.35848,-2.79979 -10.82992,-2.79979 z m -1.63986,37.75135 c -3.94216,-10e-6 -7.13792,3.19575 -7.13792,7.1379 0,3.94216 3.19576,7.13792 7.13792,7.1379 3.94215,0 7.13789,-3.19575 7.13789,-7.1379 0,-3.94215 -3.19574,-7.13789 -7.13789,-7.1379 z"
           style="font-style:normal;font-variant:normal;font-weight:normal;font-stretch:normal;font-family:'Arial Black';-inkscape-font-specification:'Arial Black, ';fill:#ffffff" />
      </g>
    </g>
  </g>
</svg>
