<?xml version="1.0" encoding="UTF-8" standalone="no"?>
<!-- Created with Inkscape (http://www.inkscape.org/) -->

<svg
   xmlns:dc="http://purl.org/dc/elements/1.1/"
   xmlns:cc="http://creativecommons.org/ns#"
   xmlns:rdf="http://www.w3.org/1999/02/22-rdf-syntax-ns#"
   xmlns:svg="http://www.w3.org/2000/svg"
   xmlns="http://www.w3.org/2000/svg"
   xmlns:sodipodi="http://sodipodi.sourceforge.net/DTD/sodipodi-0.dtd"
   xmlns:inkscape="http://www.inkscape.org/namespaces/inkscape"
   width="58.897343mm"
   height="39.138485mm"
   viewBox="0 0 208.69137 138.67967"
   id="svg2"
   version="1.1"
   inkscape:version="0.91 r13725"
   sodipodi:docname="wiz.svg"
   inkscape:export-filename="/home/mimooh/wiz.png"
   inkscape:export-xdpi="34.490002"
   inkscape:export-ydpi="34.490002">
  <defs
     id="defs4">
    <filter
       inkscape:collect="always"
       style="color-interpolation-filters:sRGB"
       id="filter4492"
       x="-0.058509465"
       width="1.1170189"
       y="-0.093575783"
       height="1.1871516">
      <feGaussianBlur
         inkscape:collect="always"
         stdDeviation="5.1585059"
         id="feGaussianBlur4494" />
    </filter>
  </defs>
  <sodipodi:namedview
     id="base"
     pagecolor="#ffffff"
     bordercolor="#666666"
     borderopacity="1.0"
     inkscape:pageopacity="0.0"
     inkscape:pageshadow="2"
     inkscape:zoom="1.4142136"
     inkscape:cx="-95.064132"
     inkscape:cy="22.899343"
     inkscape:document-units="px"
     inkscape:current-layer="layer1"
     showgrid="false"
     showguides="true"
     inkscape:guide-bbox="true"
     inkscape:window-width="1920"
     inkscape:window-height="1034"
     inkscape:window-x="0"
     inkscape:window-y="0"
     inkscape:window-maximized="1"
     fit-margin-top="0"
     fit-margin-left="0"
     fit-margin-right="0"
     fit-margin-bottom="0">
    <sodipodi:guide
       position="-637.65208,-544.51729"
       orientation="0,1"
       id="guide3383" />
  </sodipodi:namedview>
  <metadata
     id="metadata7">
    <rdf:RDF>
      <cc:Work
         rdf:about="">
        <dc:format>image/svg+xml</dc:format>
        <dc:type
           rdf:resource="http://purl.org/dc/dcmitype/StillImage" />
        <dc:title></dc:title>
      </cc:Work>
    </rdf:RDF>
  </metadata>
  <g
     inkscape:label="Layer 1"
     inkscape:groupmode="layer"
     id="layer1"
     transform="translate(-37.621484,-57.406902)">
    <g
       id="g4496"
       transform="matrix(0.84693142,0,0,0.84693142,341.19063,51.739974)">
      <path
         transform="translate(37.59319,60.398938)"
         d="m -212.13672,-37.986328 a 1.4143552,1.4143552 0 0 0 -1.30859,1.066406 l -3.38477,13.433594 -12.75586,5.40039 a 1.4143552,1.4143552 0 0 0 -0.20117,2.5 l 11.73047,7.3691411 1.19531,13.8007813 a 1.4143552,1.4143552 0 0 0 2.31445,0.9648437 l 10.63477,-8.8789062 7.125,1.6503906 c -6.01729,1.30718438 -11.27043,3.7389738 -15.35351,7.3007813 -5.47729,4.7780182 -8.58373,10.9386382 -10.28321,17.0449222 -5.40215,-2.620137 -11.71951,-4.143721 -18.83008,-4.039063 -0.004,1.3e-5 -0.008,-2.9e-5 -0.0117,0 a 1.4143552,1.4143552 0 0 0 -0.0117,0 c -1.42336,0.02168 -2.80527,0.179063 -4.1543,0.324219 -1.55259,-1.35723 -3.44087,-2.382728 -5.63867,-2.478516 a 1.4143552,1.4143552 0 0 0 -0.002,0 l -2.20312,-0.09375 1.35547,-16.6367185 6.56836,-3.71875 1.74414,4.8515625 -4.5957,7.0429688 a 1.4143552,1.4143552 0 0 0 1.22851,2.1875002 l 8.40234,-0.261719 5.27735,6.546875 a 1.4143552,1.4143552 0 0 0 2.45898,-0.492187 l 2.35156,-8.0742192 7.85743,-2.9941407 a 1.4143552,1.4143552 0 0 0 0.29101,-2.4921875 l -6.95312,-4.7285156 -0.42188,-8.4003906 a 1.4143552,1.4143552 0 0 0 -2.27929,-1.0468754 l -6.64649,5.1523441 -2.6582,-0.71875 2.41406,-1.3671875 a 1.4143552,1.4143552 0 0 0 -0.15234,-2.5351566 l -16.16797,-6.751953 -3.44922,-16.935547 a 1.4143552,1.4143552 0 0 0 -2.45899,-0.638671 l -11.41796,13.289062 -17.17188,-1.949219 a 1.4143552,1.4143552 0 0 0 -1.36719,2.140625 l 9.11133,14.964844 -7.16211,15.7285156 a 1.4143552,1.4143552 0 0 0 1.61328,1.9628904 l 17.04883,-4.0410154 10.61328,9.7187504 -20.74218,-0.890625 c -5.78787,-0.249561 -10.52895,4.768831 -9.95118,10.533203 l 1.1211,11.158203 c -2.54446,-0.433728 -4.76802,-0.74822 -6.9668,-1.056641 0.0586,-0.429418 0.11501,-0.827549 0.17578,-1.302734 2.19635,-17.170091 4.1875,-34.0468751 4.1875,-34.0468751 a 1.4143552,1.4143552 0 0 0 0,-0.00586 c 0.005,-0.044687 0.005,-0.089992 0.01,-0.1347656 a 1.4143552,1.4143552 0 0 0 0,-0.015625 1.4143552,1.4143552 0 0 0 0,-0.00781 c 0,-0.00244 0,-0.00538 0,-0.00781 0.0274,-0.2751366 0.0514,-0.55026752 0.0547,-0.82812502 0.0688,-5.32943728 -3.16741,-9.95030038 -7.05665,-12.13867188 -3.41011,-1.918806 -6.77443,-2.280275 -9.54492,-2.292969 a 1.4143552,1.4143552 0 0 0 -0.002,0 l -0.006,0 c -3.95745,-0.01796 -8.38759,0.121681 -12.93164,3.9003909 -2.05961,1.7131227 -3.30676,4.2143928 -3.44141,6.8886719 l -0.16992,3.33789058 c -1.09805,0.0343133 -2.17387,0.0557232 -3.48047,0.17382812 -2.35818,0.21321923 -4.51649,0.44488117 -6.09961,0.9003906 -1.59828,0.4598678 -3.02128,0.9609461 -4.05078,1.3496094 -1.02703,0.3877314 -1.54897,0.6142142 -1.68164,0.671875 -1.35833,0.5857206 -2.44256,1.5343373 -3.36523,2.6113281 l 0.0254,-0.4941406 a 1.4143552,1.4143552 0 0 0 -0.0488,-0.4511719 c -1.22459,-4.41027696 -5.54229,-7.5391636 -10.3418,-6.9824219 a 1.4143552,1.4143552 0 0 0 -0.002,0 c -12.17863,1.41611986 -22.13432,8.8217571 -22.26953,8.921875 -2.7709,1.8848123 -4.36857,5.0882568 -4.1875,8.4394528 l 3.47656,64.027344 c 0.20244,3.732354 2.56802,7.016962 6.04297,8.392578 a 1.4143552,1.4143552 0 0 0 0.002,0 c 13.90435,5.502057 25.62891,-2.490234 25.62891,-2.490234 a 1.4143552,1.4143552 0 0 0 0.008,-0.0059 c 0.0289,-0.02003 0.0577,-0.03952 0.0859,-0.06055 0.40503,-0.300508 0.56902,-0.550303 0.80469,-0.828125 6.16235,1.246531 13.15923,0.842175 17.85547,-0.296875 0.75212,0.853202 1.62245,1.620957 2.70312,2.171875 1.89091,0.963982 4.08632,1.589629 6.3457,1.933593 2.26045,0.344147 4.59726,0.40433 6.77539,0.06055 1.61856,-0.255358 3.09271,-0.882508 4.38868,-1.789062 l 24.07031,1.34375 c 0.11687,0.0068 0.23469,0.0068 0.35156,0 a 1.4143552,1.4143552 0 0 0 0.004,0 c 0.69851,-0.04284 1.1904,-0.23957 1.69726,-0.40625 0.51886,0.357576 1.02279,0.751762 1.80078,1.003906 a 1.4143552,1.4143552 0 0 0 0.0137,0.0039 c 0.001,4.12e-4 0.003,-4.12e-4 0.004,0 l 0.004,0.002 c 8.60401,2.751027 16.66188,1.08698 16.84765,1.048829 2.98042,-0.486989 5.37382,-2.362376 6.75,-4.84961 1.51331,1.286647 3.28661,2.289842 5.44336,2.384766 8.68692,0.384223 16.23394,-1.408236 22.58399,-4.476563 0.66987,0.83135 1.43179,1.618081 2.44726,2.189453 a 1.4143552,1.4143552 0 0 0 0.0879,0.04297 1.4143552,1.4143552 0 0 0 0.0391,0.01953 c 3.8017,2.128004 8.82497,4.630363 14.3164,6.566407 5.46894,1.928121 11.59435,3.612626 18.21289,2.623047 a 1.4143552,1.4143552 0 0 0 0.0273,-0.0039 c 0.0866,-0.0136 0.15495,-0.0265 0.21289,-0.03711 9.55798,-1.678629 16.20704,-8.866298 19.82422,-16.726563 3.69473,-8.028835 4.44603,-19.091253 -2.92969,-27.083984 -3.52494,-3.819786 -7.89467,-4.954265 -10.78125,-5.578125 -2.90845,-0.628606 -5.392,-0.972282 -6.63086,-1.333984 -0.73861,-0.215655 -1.12111,-0.370733 -1.26758,-0.451172 -0.14646,-0.08044 -0.10509,-0.04587 -0.25781,-0.238282 -0.12126,-0.152789 -0.24984,-0.305462 -0.43164,-0.921874 -0.18181,-0.616413 -0.36783,-1.666636 -0.41406,-3.375 -0.0296,-1.092567 0.0306,-1.811276 0.10156,-2.230469 0.071,-0.419194 0.21,-0.563649 0.0508,-0.34961 -0.25947,0.348808 -0.004,0.0435 1.21484,-0.386718 0.37515,-0.132404 1.98441,-0.323225 3.22071,-0.273438 0.63255,0.02551 1.2346,0.08436 1.67383,0.144531 0.17039,0.02335 0.36647,0.06549 0.50976,0.09766 0.0717,0.01608 0.0505,0.0225 0.26172,0.05273 0.023,0.0033 0.0564,0.0082 0.10547,0.01172 6.02886,2.032854 12.53811,-2.427458 12.64453,-8.876953 l 0.29883,-18.2382816 c 0.0809,-4.9510706 -3.67626,-9.18170597 -8.60157,-9.6894532 -2.13773,-0.2201455 -4.20787,-0.3332034 -6.21679,-0.3320312 -0.62824,3.541e-4 -1.19091,0.1153755 -1.80664,0.1386719 l -4.9375,-12.3046879 7.14453,-11.865234 a 1.4143552,1.4143552 0 0 0 -1.30664,-2.140625 l -13.82031,0.929688 -9.07813,-10.462891 a 1.4143552,1.4143552 0 0 0 -1.13086,-0.484375 z m -64.4082,126.460937 c 0.27113,0.07206 -0.0956,-0.02138 0,0 z"
         id="path4466"
         style="font-style:normal;font-weight:bold;font-size:medium;line-height:125%;font-family:Sans;letter-spacing:0px;word-spacing:0px;fill:#ffffff;fill-opacity:1;stroke:none;stroke-width:1px;stroke-linecap:butt;stroke-linejoin:miter;stroke-opacity:1;filter:url(#filter4492)"
         inkscape:original="M -212.07422 -36.574219 L -215.63086 -22.458984 L -229.03516 -16.783203 L -216.70898 -9.0390625 L -215.45312 5.4628906 L -204.2793 -3.8671875 L -190.09961 -0.58007812 L -195.51953 -14.089844 L -188.01172 -26.558594 L -202.53516 -25.580078 L -212.07422 -36.574219 z M -258.03711 -33.710938 L -269.94336 -19.853516 L -287.85938 -21.888672 L -278.35742 -6.2832031 L -285.83008 10.126953 L -268.05273 5.9140625 L -254.75391 18.091797 L -253.26758 -0.11914062 L -244.58984 -5.0332031 L -242.03906 2.0585938 L -247.01953 9.6914062 L -237.91211 9.4082031 L -232.19336 16.503906 L -229.64648 7.7539062 L -221.13086 4.5078125 L -228.66602 -0.6171875 L -229.12305 -9.7207031 L -236.32617 -4.1367188 L -242.98828 -5.9394531 L -237.57812 -9.0019531 L -254.4375 -16.042969 L -258.03711 -33.710938 z M -306.5625 -12.441406 C -310.4989 -12.459416 -314.36152 -12.383346 -318.58984 -8.8671875 C -320.34538 -7.4069825 -321.40862 -5.2766568 -321.52344 -2.9960938 L -321.75781 1.6191406 C -323.19337 1.6531506 -324.70938 1.6953676 -326.45898 1.8535156 C -328.79477 2.0647106 -330.93795 2.3146371 -332.29492 2.7050781 C -335.39433 3.5968591 -337.85338 4.6642596 -337.85742 4.6660156 C -339.38478 5.3246226 -340.62786 6.4301841 -341.49219 7.7832031 L -342.56641 28.898438 C -342.78097 33.116137 -343.35228 36.4921 -343.84961 36.466797 C -344.34695 36.441517 -344.57589 33.026282 -344.36133 28.808594 L -343.16992 5.4121094 C -344.2115 1.6609394 -347.88747 -1.0203889 -351.98633 -0.54492188 C -363.7084 0.81810913 -373.5442 8.0802501 -373.60742 8.1269531 C -375.98303 9.7327111 -377.35006 12.471906 -377.19531 15.335938 L -373.71875 79.363281 C -373.54614 82.545651 -371.52971 85.344508 -368.56641 86.517578 C -355.34814 91.748148 -344.25391 84.173828 -344.25391 84.173828 A 1.6217834 1.6217834 0 0 0 -344.20508 84.138672 C -343.76038 83.808732 -343.43618 83.354609 -343.06836 82.943359 C -336.70029 84.405579 -328.7483 83.868928 -324.20312 82.611328 C -323.48724 83.616588 -322.54294 84.45813 -321.35742 85.0625 C -319.64396 85.93602 -317.58089 86.531712 -315.44141 86.857422 C -313.30193 87.183152 -311.09563 87.234962 -309.09961 86.919922 C -307.46342 86.661782 -306.00751 86.058567 -304.81641 85.091797 L -280.33789 86.458984 A 1.6217834 1.6217834 0 0 0 -280.15039 86.458984 C -279.46391 86.416884 -278.81607 86.175784 -278.16406 85.964844 C -277.51706 86.409094 -276.8807 86.880027 -276.13086 87.123047 A 1.6217834 1.6217834 0 0 0 -276.12109 87.125 C -267.89698 89.75712 -260.02495 88.150276 -259.94922 88.134766 C -256.78688 87.627966 -254.32892 85.327027 -253.44727 82.404297 C -252.02198 84.244157 -249.92436 85.537204 -247.44141 85.646484 C -238.51559 86.041274 -230.83325 84.132932 -224.49414 80.857422 C -223.78288 81.934212 -222.91825 82.898213 -221.7793 83.539062 A 1.6217834 1.6217834 0 0 0 -221.77734 83.539062 C -218.01645 85.650133 -212.9957 88.149516 -207.55859 90.066406 C -202.16006 91.969706 -196.28404 93.56077 -190.02539 92.625 A 1.6217834 1.6217834 0 0 0 -190.00781 92.623047 C -189.95051 92.614047 -189.88681 92.601944 -189.82031 92.589844 C -180.83114 91.011114 -174.517 84.226003 -171.03711 76.664062 C -167.51636 69.013294 -166.82055 58.608239 -173.7207 51.130859 C -176.94741 47.634249 -180.9327 46.587983 -183.76172 45.976562 C -186.60652 45.361713 -189.02913 45.043778 -190.49023 44.617188 C -192.04057 44.164527 -192.33494 43.942629 -192.72656 43.449219 C -193.10164 42.976629 -193.78182 41.900132 -193.87891 38.3125 C -193.94161 35.993714 -193.63659 35.104116 -193.44727 34.849609 C -193.25794 34.595091 -192.80402 34.40877 -191.56836 33.972656 C -190.76538 33.689255 -189.18529 33.566125 -187.82031 33.621094 C -187.13784 33.648614 -186.49899 33.710594 -186.01172 33.777344 C -185.52444 33.844124 -185.06996 33.984262 -185.26758 33.90625 C -180.00754 35.982386 -174.189 32.093621 -174.0957 26.439453 L -173.79688 8.2011719 C -173.72788 3.9767269 -176.92614 0.37466725 -181.12891 -0.05859375 C -183.22295 -0.27423975 -185.24572 -0.3839535 -187.20117 -0.3828125 C -197.13769 -0.3772125 -205.36988 2.592148 -211.21094 7.6875 C -216.90524 12.654828 -220.02065 19.208307 -221.54102 25.625 C -227.03215 22.640897 -233.67353 20.929759 -241.23242 21.041016 A 1.6217834 1.6217834 0 0 0 -241.25586 21.041016 C -242.76874 21.064056 -244.30168 21.235848 -245.8125 21.398438 C -247.24836 19.964039 -249.0803 18.974222 -251.13281 18.884766 L -278.64453 17.703125 C -283.5867 17.490029 -287.62226 21.761503 -287.12891 26.683594 L -285.82227 39.691406 C -286.19073 39.624506 -286.43822 39.576083 -287.14453 39.453125 C -290.41211 38.88431 -293.179 38.506659 -295.96875 38.115234 C -295.84997 37.254449 -295.73139 36.412626 -295.60742 35.443359 C -293.41222 18.28227 -291.42188 1.4101562 -291.42188 1.4101562 A 1.6217834 1.6217834 0 0 0 -291.42188 1.40625 C -291.38898 1.124807 -291.37059 0.84227375 -291.36719 0.55859375 C -291.30619 -4.1663643 -294.28162 -8.4048882 -297.70312 -10.330078 C -300.83634 -12.09308 -303.90439 -12.429236 -306.56055 -12.441406 L -306.5625 -12.441406 z "
         inkscape:radius="1.4142138"
         sodipodi:type="inkscape:offset" />
      <path
         id="path4381"
         transform="translate(37.59319,60.398938)"
         d="m -212.07422,-36.574219 -3.55664,14.115235 -13.4043,5.675781 12.32618,7.7441405 1.25586,14.5019531 11.17382,-9.3300781 14.17969,3.28710938 -5.41992,-13.50976588 7.50781,-12.46875 -14.52344,0.978516 -9.53906,-10.994141 z m -45.96289,2.863281 -11.90625,13.857422 -17.91602,-2.035156 9.50196,15.6054689 -7.47266,16.4101561 17.77735,-4.2128905 13.29882,12.1777345 1.48633,-18.21093762 8.67774,-4.91406248 2.55078,7.0917969 -4.98047,7.6328124 9.10742,-0.2832031 5.71875,7.0957029 2.54688,-8.7499998 8.51562,-3.2460937 -7.53516,-5.125 -0.45703,-9.1035156 -7.20312,5.5839843 -6.66211,-1.8027343 5.41016,-3.0625 -16.85938,-7.0410159 -3.59961,-17.667969 z m -48.52539,21.269532 c -3.9364,-0.01801 -7.79902,0.05806 -12.02734,3.5742185 -1.75554,1.460205 -2.81878,3.5905307 -2.9336,5.8710937 l -0.23437,4.6152344 c -1.43556,0.03401 -2.95157,0.076227 -4.70117,0.234375 -2.33579,0.211195 -4.47897,0.4611215 -5.83594,0.8515625 -3.09941,0.891781 -5.55846,1.9591815 -5.5625,1.9609375 -1.52736,0.658607 -2.77044,1.7641685 -3.63477,3.1171875 l -1.07422,21.1152349 c -0.21456,4.217699 -0.78587,7.593662 -1.2832,7.568359 -0.49734,-0.02528 -0.72628,-3.440515 -0.51172,-7.658203 l 1.19141,-23.3964846 c -1.04158,-3.75117 -4.71755,-6.4324983 -8.81641,-5.95703128 -11.72207,1.363031 -21.55787,8.62517198 -21.62109,8.67187498 -2.37561,1.605758 -3.74264,4.3449539 -3.58789,7.2089849 l 3.47656,64.027343 c 0.17261,3.18237 2.18904,5.981227 5.15234,7.154297 13.21827,5.23057 24.3125,-2.34375 24.3125,-2.34375 a 1.6217834,1.6217834 0 0 0 0.0488,-0.03516 c 0.4447,-0.32994 0.7689,-0.784063 1.13672,-1.195313 6.36807,1.46222 14.32006,0.925569 18.86524,-0.332031 0.71588,1.00526 1.66018,1.846802 2.8457,2.451172 1.71346,0.87352 3.77653,1.469212 5.91601,1.794922 2.13948,0.32573 4.34578,0.37754 6.3418,0.0625 1.63619,-0.25814 3.0921,-0.861355 4.2832,-1.828125 l 24.47852,1.367187 a 1.6217834,1.6217834 0 0 0 0.1875,0 c 0.68648,-0.0421 1.33432,-0.2832 1.98633,-0.49414 0.647,0.44425 1.28336,0.915183 2.0332,1.158203 a 1.6217834,1.6217834 0 0 0 0.01,0.002 c 8.22411,2.63212 16.09614,1.025276 16.17187,1.009766 3.16234,-0.5068 5.6203,-2.807739 6.50195,-5.730469 1.42529,1.83986 3.52291,3.132907 6.00586,3.242187 8.92582,0.39479 16.60816,-1.513552 22.94727,-4.789062 0.71126,1.07679 1.57589,2.04079 2.71484,2.68164 a 1.6217834,1.6217834 0 0 0 0.002,0 c 3.76089,2.111071 8.78164,4.610454 14.21875,6.527344 5.39853,1.9033 11.27455,3.494364 17.5332,2.558594 a 1.6217834,1.6217834 0 0 0 0.0176,-0.002 c 0.0573,-0.009 0.121,-0.0211 0.1875,-0.0332 8.98917,-1.57873 15.30331,-8.363842 18.7832,-15.925782 3.52075,-7.650769 4.21656,-18.055823 -2.68359,-25.533203 -3.22671,-3.49661 -7.212,-4.542877 -10.04102,-5.154297 -2.8448,-0.61485 -5.26741,-0.932784 -6.72851,-1.359374 -1.55034,-0.45266 -1.84471,-0.674559 -2.23633,-1.167969 -0.37508,-0.47259 -1.05526,-1.549087 -1.15235,-5.136719 -0.0627,-2.318786 0.24232,-3.208384 0.43164,-3.462891 0.18933,-0.254518 0.64325,-0.440839 1.87891,-0.876953 0.80298,-0.283401 2.38307,-0.406531 3.74805,-0.351562 0.68247,0.02752 1.32132,0.0895 1.80859,0.15625 0.48728,0.06678 0.94176,0.206918 0.74414,0.128906 5.26004,2.076136 11.07858,-1.812629 11.17188,-7.466797 l 0.29882,-18.2382811 c 0.069,-4.224445 -3.12926,-7.82650465 -7.33203,-8.25976565 -2.09404,-0.215646 -4.11681,-0.32535975 -6.07226,-0.32421875 -9.93652,0.0056 -18.16871,2.9749605 -24.00977,8.0703125 -5.6943,4.967328 -8.80971,11.520807 -10.33008,17.9375 -5.49113,-2.984103 -12.13251,-4.695241 -19.6914,-4.583984 a 1.6217834,1.6217834 0 0 0 -0.0234,0 c -1.51288,0.02304 -3.04582,0.194832 -4.55664,0.357422 -1.43586,-1.434399 -3.2678,-2.424216 -5.32031,-2.513672 l -27.51172,-1.181641 c -4.94217,-0.213096 -8.97773,4.058378 -8.48438,8.980469 l 1.30664,13.007812 c -0.36846,-0.0669 -0.61595,-0.115323 -1.32226,-0.238281 -3.26758,-0.568815 -6.03447,-0.946466 -8.82422,-1.337891 0.11878,-0.860785 0.23736,-1.702608 0.36133,-2.671875 2.1952,-17.161089 4.18554,-34.0332028 4.18554,-34.0332028 a 1.6217834,1.6217834 0 0 0 0,-0.00391 c 0.0329,-0.281443 0.0513,-0.56397625 0.0547,-0.84765625 0.061,-4.72495805 -2.91442,-8.96348185 -6.33593,-10.88867195 -3.13322,-1.763002 -6.20127,-2.099158 -8.85743,-2.111328 l -0.002,0 z"
         style="font-style:normal;font-weight:bold;font-size:medium;line-height:125%;font-family:Sans;letter-spacing:0px;word-spacing:0px;fill:#000000;fill-opacity:1;stroke:none;stroke-width:1px;stroke-linecap:butt;stroke-linejoin:miter;stroke-opacity:1"
         inkscape:connector-curvature="0" />
      <path
         style="font-style:normal;font-weight:bold;font-size:medium;line-height:125%;font-family:Sans;letter-spacing:0px;word-spacing:0px;fill:#ffffff;fill-opacity:1;stroke:none;stroke-width:1px;stroke-linecap:butt;stroke-linejoin:miter;stroke-opacity:1"
         d="m -277.06169,59.348106 -1.81337,21.852286 c 5.03362,3.235657 13.74548,1.684621 14.25357,1.544649 1.4595,-11.780345 2.67638,-21.893809 2.67638,-21.893798 10e-4,-0.08501 -0.0101,-0.162311 -0.0131,-0.244697 a 7.8072067,3.9550156 6.34661 0 1 -7.98542,2.374862 7.8072067,3.9550156 6.34661 0 1 -7.11805,-3.633302 z m 127.45642,8.839666 c -24.40712,0.01421 -30.22609,19.369176 -29.33084,33.628328 -3.9044,-7.124209 -12.09945,-12.396213 -24.60513,-12.20644 -1.88497,0.02864 -6.41145,0.746485 -8.49229,1.03559 l 2.5431,47.23522 c 21.54754,0.95304 32.6312,-11.85047 33.19355,-24.50901 0.18386,0.37572 0.37362,0.72767 0.56805,1.04652 6.28829,10.31208 18.96288,6.10266 20.36007,13.24858 1.36013,6.95635 -10.95719,5.28673 -16.47333,1.76313 l -8.34591,7.3846 c 6.86859,3.85548 18.78438,9.2878 26.54523,8.12743 10.51375,-1.8465 19.71468,-18.97982 11.50948,-27.8714 -5.56623,-6.03187 -21.80832,0.8467 -22.32201,-18.138144 -0.38726,-14.312036 14.48514,-14.316567 19.78111,-12.226101 l 0.29931,-18.23865 c -1.83734,-0.189214 -3.58019,-0.280616 -5.23039,-0.279653 z m -164.04513,0.179157 c -8.58936,0.998765 -17.99396,7.323418 -17.99396,7.323418 l 3.47601,64.027523 c 9.52566,3.76938 16.51266,-1.36331 16.51266,-1.36331 l 2.98443,-15.1712 3.31869,12.33753 c 9.28667,2.95418 17.97429,0.4457 17.97429,0.4457 l 2.31588,-65.327477 c -3.99505,-1.198517 -12.16711,2.326806 -12.16711,2.326806 l -3.19853,47.497381 -6.61774,-17.40843 -9.16521,13.30976 2.56059,-47.997701 z m 72.24452,17.9 2.39017,23.816431 -23.49745,-5.46855 -1.36768,14.30166 c 2.35007,1.99934 13.51513,-0.0349 13.51513,-0.0349 l -15.8179,19.50582 24.55052,0.31243 c 0.0987,-1.71977 3.38718,-9.64086 4.30185,-11.81755 l 1.29122,12.8597 c 5.61064,1.79568 12.38995,0.72753 12.38995,0.72753 l -1.10332,-18.32167 9.58687,-0.21192 0.56804,-10.48263 -11.60124,0.36266 -0.68821,-8.78504 12.44239,0.38234 0.55275,-15.964283 -27.51309,-1.181972 z m 43.3157,19.796411 c 20.42799,3.26235 11.61342,24.23465 -0.86518,21.04392 l 0.86518,-21.04392 z m -40.61748,7.10276 1.29995,12.93833 -10.37557,2.94729 9.07562,-15.88562 z"
         id="path4383"
         inkscape:connector-curvature="0" />
      <path
         style="opacity:0.5;fill:#ffffff;fill-rule:evenodd;stroke:none;stroke-width:1px;stroke-linecap:butt;stroke-linejoin:miter;stroke-opacity:1"
         d="m -279.24805,84.074771 -3.89516,55.281489 c 0.4065,0.82864 1.00916,1.36443 1.69526,1.54069 l 4.19743,-55.823414 c -1.35546,-0.332922 -1.99753,-0.998765 -1.99753,-0.998765 z"
         id="path4387"
         inkscape:connector-curvature="0"
         sodipodi:nodetypes="ccccc" />
      <ellipse
         style="color:#000000;clip-rule:nonzero;display:inline;overflow:visible;visibility:visible;opacity:0.82999998;isolation:auto;mix-blend-mode:normal;color-interpolation:sRGB;color-interpolation-filters:linearRGB;solid-color:#000000;solid-opacity:1;fill:#ffffff;fill-opacity:1;fill-rule:nonzero;stroke:none;stroke-width:4;stroke-linecap:butt;stroke-linejoin:miter;stroke-miterlimit:4;stroke-dasharray:none;stroke-dashoffset:0;stroke-opacity:1;color-rendering:auto;image-rendering:auto;shape-rendering:auto;text-rendering:auto;enable-background:accumulate"
         id="ellipse4389"
         cx="-261.46234"
         cy="89.832985"
         rx="7.6679511"
         ry="3.9896562"
         transform="matrix(0.99352963,0.11357318,-0.10759144,0.99419519,0,0)" />
      <path
         inkscape:transform-center-y="-0.22715905"
         inkscape:transform-center-x="0.65712544"
         d="m -159.64821,57.718603 -10.6553,-5.664462 -10.94413,5.084079 2.09455,-11.884216 -8.21716,-8.837414 11.94981,-1.680387 5.86564,-10.545901 5.29083,10.845679 11.84233,2.319689 -8.67989,8.383386 z"
         inkscape:randomized="0"
         inkscape:rounded="0"
         inkscape:flatsided="false"
         sodipodi:arg2="1.5976602"
         sodipodi:arg1="0.96934162"
         sodipodi:r2="9.4936895"
         sodipodi:r1="18.380207"
         sodipodi:cy="42.563877"
         sodipodi:cx="-170.04851"
         sodipodi:sides="5"
         id="path4420"
         style="color:#000000;clip-rule:nonzero;display:inline;overflow:visible;visibility:visible;opacity:1;isolation:auto;mix-blend-mode:normal;color-interpolation:sRGB;color-interpolation-filters:linearRGB;solid-color:#000000;solid-opacity:1;fill:#ffffff;fill-opacity:1;fill-rule:nonzero;stroke:none;stroke-width:4;stroke-linecap:butt;stroke-linejoin:miter;stroke-miterlimit:4;stroke-dasharray:none;stroke-dashoffset:0;stroke-opacity:1;color-rendering:auto;image-rendering:auto;shape-rendering:auto;text-rendering:auto;enable-background:accumulate"
         sodipodi:type="star"
         transform="matrix(0.48221611,-0.12869493,0.12869493,0.48221611,-92.819028,2.9829358)" />
      <path
         sodipodi:type="star"
         style="color:#000000;clip-rule:nonzero;display:inline;overflow:visible;visibility:visible;opacity:1;isolation:auto;mix-blend-mode:normal;color-interpolation:sRGB;color-interpolation-filters:linearRGB;solid-color:#000000;solid-opacity:1;fill:#ffffff;fill-opacity:1;fill-rule:nonzero;stroke:none;stroke-width:4;stroke-linecap:butt;stroke-linejoin:miter;stroke-miterlimit:4;stroke-dasharray:none;stroke-dashoffset:0;stroke-opacity:1;color-rendering:auto;image-rendering:auto;shape-rendering:auto;text-rendering:auto;enable-background:accumulate"
         id="path4422"
         sodipodi:sides="5"
         sodipodi:cx="-157.01958"
         sodipodi:cy="46.321411"
         sodipodi:r1="10.821309"
         sodipodi:r2="5.5893903"
         sodipodi:arg1="0.96934162"
         sodipodi:arg2="1.5976602"
         inkscape:flatsided="false"
         inkscape:rounded="0"
         inkscape:randomized="0"
         d="m -150.89642,55.243725 -6.27329,-3.33494 -6.44333,2.993241 1.23316,-6.996808 -4.83784,-5.203009 7.03543,-0.989325 3.45338,-6.208878 3.11497,6.385372 6.97215,1.365712 -5.11027,4.935701 z"
         inkscape:transform-center-x="-0.29512066"
         inkscape:transform-center-y="0.17478561"
         transform="matrix(0.4133588,0.17663813,-0.17663813,0.4133588,-124.23711,71.880255)" />
      <path
         sodipodi:type="star"
         style="color:#000000;clip-rule:nonzero;display:inline;overflow:visible;visibility:visible;opacity:1;isolation:auto;mix-blend-mode:normal;color-interpolation:sRGB;color-interpolation-filters:linearRGB;solid-color:#000000;solid-opacity:1;fill:#ffffff;fill-opacity:1;fill-rule:nonzero;stroke:none;stroke-width:4;stroke-linecap:butt;stroke-linejoin:miter;stroke-miterlimit:4;stroke-dasharray:none;stroke-dashoffset:0;stroke-opacity:1;color-rendering:auto;image-rendering:auto;shape-rendering:auto;text-rendering:auto;enable-background:accumulate"
         id="path4424"
         sodipodi:sides="5"
         sodipodi:cx="-225.45055"
         sodipodi:cy="50.647537"
         sodipodi:r1="21.868929"
         sodipodi:r2="10.885103"
         sodipodi:arg1="0.96934162"
         sodipodi:arg2="1.5876974"
         inkscape:flatsided="false"
         inkscape:rounded="0"
         inkscape:randomized="0"
         d="m -213.07618,68.678761 -12.55833,-7.147675 -13.14086,6.45713 2.91711,-14.152435 -10.20185,-10.502339 14.3612,-1.59901 6.83578,-12.947933 5.9586,13.164192 14.42659,2.500076 -10.67858,9.734929 z"
         inkscape:transform-center-x="-0.91429981"
         inkscape:transform-center-y="-0.232936"
         transform="matrix(0.53138022,0.1210648,-0.1210648,0.53138022,-101.28672,53.503437)" />
    </g>
  </g>
</svg>
