<?xml version="1.0" encoding="UTF-8" standalone="no"?>
<!-- Created with Inkscape (http://www.inkscape.org/) -->

<svg
   xmlns:dc="http://purl.org/dc/elements/1.1/"
   xmlns:cc="http://creativecommons.org/ns#"
   xmlns:rdf="http://www.w3.org/1999/02/22-rdf-syntax-ns#"
   xmlns:svg="http://www.w3.org/2000/svg"
   xmlns="http://www.w3.org/2000/svg"
   xmlns:sodipodi="http://sodipodi.sourceforge.net/DTD/sodipodi-0.dtd"
   xmlns:inkscape="http://www.inkscape.org/namespaces/inkscape"
   width="62.164955mm"
   height="41.285686mm"
   viewBox="0 0 220.26952 146.28786"
   id="svg2"
   version="1.1"
   inkscape:version="0.92.3 (2405546, 2018-03-11)"
   sodipodi:docname="logo.svg">
  <defs
     id="defs4">
    <inkscape:path-effect
       effect="powerstroke"
       id="path-effect5176"
       is_visible="true"
       offset_points="0,0.5"
       sort_points="true"
       interpolator_type="Linear"
       interpolator_beta="0.2"
       start_linecap_type="zerowidth"
       linejoin_type="round"
       miter_limit="4"
       end_linecap_type="zerowidth"
       cusp_linecap_type="round" />
    <inkscape:path-effect
       effect="spiro"
       id="path-effect5174"
       is_visible="true" />
    <inkscape:path-effect
       effect="powerstroke"
       id="path-effect3344"
       is_visible="true"
       offset_points="0,0.5"
       sort_points="true"
       interpolator_type="Linear"
       interpolator_beta="0.2"
       start_linecap_type="zerowidth"
       linejoin_type="round"
       miter_limit="4"
       end_linecap_type="zerowidth"
       cusp_linecap_type="round" />
    <inkscape:path-effect
       effect="spiro"
       id="path-effect3342"
       is_visible="true" />
  </defs>
  <sodipodi:namedview
     id="base"
     pagecolor="#ffffff"
     bordercolor="#666666"
     borderopacity="1.0"
     inkscape:pageopacity="0.0"
     inkscape:pageshadow="2"
     inkscape:zoom="1.6139613"
     inkscape:cx="193.18314"
     inkscape:cy="-85.596064"
     inkscape:document-units="px"
     inkscape:current-layer="layer1"
     showgrid="false"
     inkscape:snap-global="false"
     showguides="true"
     inkscape:guide-bbox="true"
     inkscape:window-width="1680"
     inkscape:window-height="1004"
     inkscape:window-x="0"
     inkscape:window-y="0"
     inkscape:window-maximized="1"
     fit-margin-top="0"
     fit-margin-left="0"
     fit-margin-right="0"
     fit-margin-bottom="0"
     showborder="false" />
  <metadata
     id="metadata7">
    <rdf:RDF>
      <cc:Work
         rdf:about="">
        <dc:format>image/svg+xml</dc:format>
        <dc:type
           rdf:resource="http://purl.org/dc/dcmitype/StillImage" />
        <dc:title />
      </cc:Work>
    </rdf:RDF>
  </metadata>
  <g
     inkscape:label="Layer 1"
     inkscape:groupmode="layer"
     id="layer1"
     transform="translate(109.57405,485.34592)">
    <g
       id="g3478">
      <rect
         style="color:#000000;clip-rule:nonzero;display:inline;overflow:visible;visibility:visible;opacity:1;isolation:auto;mix-blend-mode:normal;color-interpolation:sRGB;color-interpolation-filters:linearRGB;solid-color:#000000;solid-opacity:1;fill:#ffffff;fill-opacity:1;fill-rule:nonzero;stroke:none;stroke-width:1;stroke-linecap:butt;stroke-linejoin:miter;stroke-miterlimit:4;stroke-dasharray:none;stroke-dashoffset:0;stroke-opacity:1;marker:none;color-rendering:auto;image-rendering:auto;shape-rendering:auto;text-rendering:auto;enable-background:accumulate"
         id="rect3366"
         width="220.2695"
         height="146.28784"
         x="-109.57405"
         y="-485.34592" />
      <path
         sodipodi:nodetypes="ssss"
         inkscape:connector-curvature="0"
         id="path3376"
         d="m 82.5167,-364.28624 c -5.971345,15.73634 -23.706166,4.36969 -24.674434,4.36969 0,0 -16.923577,-27.5243 3.994403,-32.29275 11.957023,-2.72571 23.174319,21.34987 20.680031,27.92306 z"
         style="color:#000000;clip-rule:nonzero;display:inline;overflow:visible;visibility:visible;opacity:1;isolation:auto;mix-blend-mode:normal;color-interpolation:sRGB;color-interpolation-filters:linearRGB;solid-color:#000000;solid-opacity:1;fill:#ffffff;fill-opacity:1;fill-rule:nonzero;stroke:none;stroke-width:1;stroke-linecap:butt;stroke-linejoin:miter;stroke-miterlimit:4;stroke-dasharray:none;stroke-dashoffset:0;stroke-opacity:1;marker:none;color-rendering:auto;image-rendering:auto;shape-rendering:auto;text-rendering:auto;enable-background:accumulate" />
      <path
         sodipodi:nodetypes="ssss"
         inkscape:connector-curvature="0"
         id="path3382"
         d="m -56.377629,-369.82868 c -5.016942,13.2212 -19.917199,3.67128 -20.730709,3.67128 0,0 -14.218675,-23.12508 3.355976,-27.13139 10.045927,-2.29005 19.470359,17.93752 17.374733,23.46011 z"
         style="color:#000000;clip-rule:nonzero;display:inline;overflow:visible;visibility:visible;opacity:1;isolation:auto;mix-blend-mode:normal;color-interpolation:sRGB;color-interpolation-filters:linearRGB;solid-color:#000000;solid-opacity:1;fill:#ffffff;fill-opacity:1;fill-rule:nonzero;stroke:none;stroke-width:1;stroke-linecap:butt;stroke-linejoin:miter;stroke-miterlimit:4;stroke-dasharray:none;stroke-dashoffset:0;stroke-opacity:1;marker:none;color-rendering:auto;image-rendering:auto;shape-rendering:auto;text-rendering:auto;enable-background:accumulate" />
      <path
         style="color:#000000;clip-rule:nonzero;display:inline;overflow:visible;visibility:visible;opacity:1;isolation:auto;mix-blend-mode:normal;color-interpolation:sRGB;color-interpolation-filters:linearRGB;solid-color:#000000;solid-opacity:1;fill:#ffffff;fill-opacity:1;fill-rule:nonzero;stroke:none;stroke-width:1;stroke-linecap:butt;stroke-linejoin:miter;stroke-miterlimit:4;stroke-dasharray:none;stroke-dashoffset:0;stroke-opacity:1;marker:none;color-rendering:auto;image-rendering:auto;shape-rendering:auto;text-rendering:auto;enable-background:accumulate"
         d="m 9.7964615,-369.82868 c -5.0169422,13.2212 -19.9171995,3.67128 -20.7307095,3.67128 0,0 -14.218675,-23.12508 3.355976,-27.13139 10.0459274,-2.29005 19.470359,17.93752 17.3747335,23.46011 z"
         id="path3388"
         inkscape:connector-curvature="0"
         sodipodi:nodetypes="ssss" />
      <path
         sodipodi:nodetypes="ssss"
         inkscape:connector-curvature="0"
         id="path3394"
         d="m 75.592411,-369.82868 c -5.016942,13.2212 -19.917199,3.67128 -20.730709,3.67128 0,0 -14.218675,-23.12508 3.355976,-27.13139 10.045927,-2.29005 19.470359,17.93752 17.374733,23.46011 z"
         style="color:#000000;clip-rule:nonzero;display:inline;overflow:visible;visibility:visible;opacity:1;isolation:auto;mix-blend-mode:normal;color-interpolation:sRGB;color-interpolation-filters:linearRGB;solid-color:#000000;solid-opacity:1;fill:#ffffff;fill-opacity:1;fill-rule:nonzero;stroke:none;stroke-width:1;stroke-linecap:butt;stroke-linejoin:miter;stroke-miterlimit:4;stroke-dasharray:none;stroke-dashoffset:0;stroke-opacity:1;marker:none;color-rendering:auto;image-rendering:auto;shape-rendering:auto;text-rendering:auto;enable-background:accumulate" />
      <path
         style="color:#000000;clip-rule:nonzero;display:inline;overflow:visible;visibility:visible;opacity:1;isolation:auto;mix-blend-mode:normal;color-interpolation:sRGB;color-interpolation-filters:linearRGB;solid-color:#000000;solid-opacity:1;fill:#729fcf;fill-opacity:1;fill-rule:nonzero;stroke:none;stroke-width:1;stroke-linecap:butt;stroke-linejoin:miter;stroke-miterlimit:4;stroke-dasharray:none;stroke-dashoffset:0;stroke-opacity:1;marker:none;color-rendering:auto;image-rendering:auto;shape-rendering:auto;text-rendering:auto;enable-background:accumulate"
         d="m 107.71242,-482.67258 v 70.17334 c 0,0 -17.137737,7.99573 -29.888306,1.82739 -2.46424,2.84485 -7.259288,4.62215 -12.480468,4.62524 -2.51796,-0.003 -4.989464,-0.42275 -7.159424,-1.21215 -1.431851,4.0094 -7.177341,6.86676 -13.820801,6.87194 -7.21937,-10e-4 -13.284881,-3.35664 -14.082641,-7.79113 -3.715099,1.16409 -7.124824,1.50179 -10.667724,0.95214 -15.8944419,11.84247 -32.011726,7.69774 -33.759151,0.51819 -3.338043,4.30872 -17.496337,3.61796 -19.302983,-3.96057 -8.342935,0.8497 -22.996312,-3.46229 -24.085687,-10.75012 l -0.04944,0.002 c -1.813397,0 -3.56564,-0.1209 -5.251462,-0.32776 -0.588085,2.21387 -3.514481,3.83017 -6.936038,3.83057 -3.889893,-2.1e-4 -7.04204,-2.07215 -7.040399,-4.62708 0.003,-1.16172 0.671934,-2.28023 1.873162,-3.13293 -2.900278,-1.86345 -4.645378,-4.19785 -4.645378,-6.74194 0.007,-1.0763 0.329606,-2.1474 0.957638,-3.17688 -3.389494,-0.61856 -6.328022,-1.62827 -8.660888,-2.90039 -0.701128,0.94672 -2.024315,1.53484 -3.460696,1.53625 -0.586435,-6.4e-4 -1.165641,-0.0996 -1.695553,-0.28931 -0.0234,0.0874 -0.04927,0.17374 -0.08057,0.25818 -0.956419,2.36827 -4.838034,3.03236 -8.670051,1.48499 -3.8314,-1.54757 -6.16292,-4.72149 -5.20751,-7.08985 0.95607,-2.36919 4.83901,-3.03336 8.671877,-1.48498 1.446206,0.58637 2.741362,1.43713 3.706049,2.43347 0.460341,-0.50885 1.118532,-0.89813 1.882322,-1.11511 -0.606047,-1.00748 -0.939365,-2.06742 -0.941156,-3.15674 0.004,-2.50957 1.723453,-4.9441 4.874269,-6.89758 -8.761575,-1.55875 -14.616181,-5.70296 -14.624641,-10.35279 0.007,-1.94212 1.04022,-3.81996 2.9242,-5.4602 -5.06126,-2.23546 -7.0287,-8.73931 -6.79138,-14.04602 z m -194.796744,48.75549 c 2.680613,2e-4 4.854122,1.34439 4.854122,3.0011 0,1.65671 -2.173509,2.99907 -4.854122,2.99927 -2.680621,-2e-4 -4.852303,-1.34256 -4.852303,-2.99927 0,-1.65671 2.171682,-3.0009 4.852303,-3.0011 z"
         id="path169"
         inkscape:connector-curvature="0" />
      <path
         style="color:#000000;clip-rule:nonzero;display:inline;overflow:visible;visibility:visible;opacity:1;isolation:auto;mix-blend-mode:normal;color-interpolation:sRGB;color-interpolation-filters:linearRGB;solid-color:#000000;solid-opacity:1;fill:#729fcf;fill-opacity:1;fill-rule:nonzero;stroke:none;stroke-width:1.06666672;stroke-linecap:butt;stroke-linejoin:miter;stroke-miterlimit:4;stroke-dasharray:none;stroke-dashoffset:0;stroke-opacity:1;marker:none;color-rendering:auto;image-rendering:auto;shape-rendering:auto;text-rendering:auto;enable-background:accumulate"
         d="M 47.017578 95.71875 C 40.43169 95.584798 33.995641 97.371822 29.394531 99.914062 C 32.367747 98.522137 35.90544 98.758382 38.740234 99.96875 C 38.657141 99.949123 38.568991 99.938887 38.480469 99.9375 C 37.837034 99.932167 37.146805 100.41243 36.740234 101.14648 C 36.194688 102.13184 36.331674 103.24903 37.044922 103.64453 C 37.758106 104.04016 38.779409 103.56282 39.326172 102.57812 C 39.822076 101.6848 39.762284 100.66292 39.1875 100.1875 C 40.185527 100.66435 41.073041 101.2654 41.806641 101.95898 C 41.138982 101.99056 40.442479 102.49176 40.025391 103.24414 C 39.442223 104.29772 39.586985 105.4931 40.349609 105.91602 C 41.112351 106.33958 42.202384 105.83285 42.787109 104.7793 C 42.990235 104.41313 43.113254 104.00668 43.140625 103.61914 C 44.348369 105.75215 44.157644 108.36686 41.427734 110.91016 C 37.194582 114.85392 30.730469 110.17969 30.730469 110.17969 C 16.535119 110.69835 14.711231 127.52518 23.572266 129.60156 C 27.344404 130.52345 30.983273 127.44674 33.330078 126.44922 C 32.921299 126.65979 32.020601 127.21164 31.357422 128.23828 C 31.357422 128.23828 29.864337 132.61506 29.863281 132.63477 C 27.802929 132.8829 25.74298 133.33158 23.691406 133.69727 C 22.672484 132.73402 20.947572 132.87633 19.8125 134.01562 C 19.679775 134.14995 19.560496 134.29892 19.453125 134.45312 C 19.114512 134.15143 18.549347 134.0452 17.986328 134.17969 C 17.164653 134.37606 16.606863 135.00854 16.748047 135.59961 C 16.889338 136.19039 17.676458 136.51274 18.498047 136.31641 C 18.628436 136.2843 18.752642 136.24169 18.873047 136.1875 C 18.87198 136.34364 18.88051 136.49997 18.904297 136.65039 C 18.587454 136.53502 18.207575 136.51927 17.835938 136.60742 C 17.014295 136.80384 16.458073 137.44225 16.599609 138.0332 C 16.631183 138.16574 16.700779 138.28288 16.796875 138.39062 C 17.117568 138.74913 17.736105 138.89483 18.349609 138.74805 C 18.887945 138.61911 19.32966 138.29529 19.511719 137.89453 C 19.524199 137.91064 19.540181 137.92104 19.554688 137.93555 C 19.623701 138.00296 19.695475 138.0679 19.773438 138.125 C 19.627144 138.20372 19.497099 138.3032 19.371094 138.41797 C 18.747606 138.98822 18.572054 139.81345 18.982422 140.26172 C 19.056342 140.34343 19.145211 140.41042 19.25 140.45703 L 19.25 140.45117 C 19.707333 140.65753 20.352712 140.48966 20.847656 140.03711 C 21.294643 139.62713 21.527516 139.06504 21.4375 138.60547 C 21.791825 138.58275 22.149775 138.49515 22.488281 138.3418 C 22.475801 138.5806 22.507784 138.83589 22.587891 139.07617 C 22.854451 139.87764 23.536567 140.37301 24.113281 140.18164 C 24.690273 139.98993 24.944092 139.17676 24.677734 138.375 C 24.509948 137.87227 24.167196 137.47197 23.771484 137.31055 C 24.071196 136.91362 24.277353 136.45953 24.367188 135.99219 C 26.085758 135.6157 27.793807 135.12576 29.525391 134.85547 C 29.300132 137.12382 29.494367 139.6662 30.720703 141.96875 L 27.642578 143.3125 L 27.248047 149.06641 C 25.300292 149.15494 20.579394 148.7176 19.244141 150.7793 L 29.810547 152.81445 L 29.925781 145.46094 L 32.617188 144.55273 C 37.113198 149.24407 45.422545 150.85508 52.492188 149.20898 C 56.38119 148.30347 59.638805 147.04042 62.351562 145.51367 L 65.939453 150.33789 L 71.896484 146.85352 C 73.285711 148.2216 75.519794 151.92464 77.939453 151.50195 L 73.316406 141.93555 L 66.349609 147.21875 L 64.558594 144.13867 C 73.667639 137.77427 75.028337 127.82407 72.158203 118.59375 C 73.507857 119.15154 75.058811 120.06001 76.232422 120.68555 L 78.453125 122.65234 C 78.437018 123.12795 78.528774 123.61266 78.732422 124.06641 C 78.310694 124.13542 77.888929 124.45555 77.613281 124.9082 C 77.174881 125.63041 77.248133 126.47366 77.767578 126.78906 C 78.287098 127.10419 79.057587 126.77455 79.496094 126.05273 C 79.627923 125.83639 79.716095 125.59676 79.757812 125.36133 C 80.053535 125.58652 80.386189 125.75819 80.726562 125.85938 C 80.536376 126.28726 80.631634 126.88345 80.976562 127.38281 C 81.358195 127.93431 81.951583 128.24178 82.443359 128.14258 C 82.55585 128.1206 82.663602 128.07661 82.753906 128.01367 C 83.253853 127.66815 83.267941 126.82185 82.787109 126.12695 C 82.689829 125.98708 82.578138 125.86316 82.453125 125.75391 C 82.541658 125.71572 82.628324 125.67334 82.710938 125.62305 C 82.728964 125.61057 82.744759 125.59895 82.761719 125.58594 C 82.849719 126.01724 83.209046 126.43597 83.705078 126.68164 C 84.270433 126.96149 84.902421 126.96268 85.294922 126.68555 C 85.412789 126.60203 85.502084 126.49509 85.5625 126.37305 C 85.832207 125.82848 85.440948 125.0856 84.683594 124.71094 C 84.341023 124.54208 83.963498 124.46992 83.628906 124.51172 C 83.686826 124.37078 83.732388 124.21894 83.765625 124.06641 C 83.870798 124.14641 83.985469 124.21912 84.105469 124.2793 C 84.862589 124.65385 85.693387 124.51721 85.962891 123.97266 C 86.232277 123.42794 85.83532 122.68122 85.078125 122.30664 C 84.559234 122.05008 83.981382 122.03311 83.583984 122.25195 C 83.513798 122.07757 83.429587 121.90073 83.330078 121.74023 C 82.477577 120.37652 80.829115 119.85845 79.621094 120.57031 L 76.359375 118.25586 C 74.789647 117.1423 70.888672 115.18164 70.888672 115.18164 C 66.303957 104.54909 56.416213 95.677726 47.017578 95.71875 z M 52.521484 119.57812 C 52.605538 119.57786 52.676276 119.58935 52.738281 119.61133 C 54.226292 120.14977 49.479078 126.96529 45.029297 127.27148 L 44.595703 123.27734 L 47.923828 122.16406 L 48.466797 125.74023 L 49.388672 124.98633 L 48.933594 121.63867 C 50.79193 120.16108 51.932812 119.57991 52.521484 119.57812 z M 43.220703 123.72656 L 43.648438 127.60547 C 42.391519 128.16176 41.133839 128.14329 39.876953 128.07812 L 39.447266 124.26172 L 43.220703 123.72656 z M 38.066406 124.55664 L 38.501953 128.06055 C 38.501953 128.06055 35.711833 127.49097 34.283203 125.30078 L 38.066406 124.55664 z "
         transform="matrix(0.93749997,0,0,0.93749997,-109.57405,-485.34592)"
         id="path165" />
      <path
         style="color:#000000;clip-rule:nonzero;display:inline;overflow:visible;visibility:visible;opacity:1;isolation:auto;mix-blend-mode:normal;color-interpolation:sRGB;color-interpolation-filters:linearRGB;solid-color:#000000;solid-opacity:1;fill:#729fcf;fill-opacity:1;fill-rule:nonzero;stroke:none;stroke-width:1.06666672;stroke-linecap:butt;stroke-linejoin:miter;stroke-miterlimit:4;stroke-dasharray:none;stroke-dashoffset:0;stroke-opacity:1;marker:none;color-rendering:auto;image-rendering:auto;shape-rendering:auto;text-rendering:auto;enable-background:accumulate"
         d="M 117.60352 95.71875 C 111.01763 95.584798 104.58158 97.371822 99.980469 99.914062 C 102.95368 98.522137 106.49137 98.758382 109.32617 99.96875 C 109.24308 99.949123 109.15493 99.938887 109.06641 99.9375 C 108.42297 99.932167 107.7347 100.41243 107.32812 101.14648 C 106.78258 102.13184 106.91758 103.24903 107.63086 103.64453 C 108.34404 104.04016 109.36145 103.56282 109.9082 102.57812 C 110.40412 101.6848 110.34626 100.66292 109.77148 100.1875 C 110.76951 100.66435 111.65704 101.2654 112.39062 101.95898 C 111.72298 101.99056 111.02839 102.49176 110.61133 103.24414 C 110.02816 104.29772 110.17292 105.4931 110.93555 105.91602 C 111.69829 106.33958 112.78832 105.83285 113.37305 104.7793 C 113.57617 104.41313 113.69724 104.00668 113.72461 103.61914 C 114.93235 105.75215 114.74161 108.36686 112.01172 110.91016 C 107.77856 114.85392 101.3125 110.17969 101.3125 110.17969 C 87.11715 110.69835 85.297168 127.52518 94.158203 129.60156 C 97.930342 130.52345 101.5653 127.44674 103.91211 126.44922 C 103.50332 126.65979 102.60458 127.21164 101.94141 128.23828 C 101.94141 128.23828 100.45223 132.61506 100.45117 132.63477 C 98.39082 132.8829 96.33087 133.33158 94.279297 133.69727 C 93.260374 132.73402 91.53351 132.87633 90.398438 134.01562 C 90.265712 134.14995 90.14448 134.29892 90.037109 134.45312 C 89.698507 134.15143 89.135284 134.0452 88.572266 134.17969 C 87.75058 134.37606 87.194753 135.00854 87.335938 135.59961 C 87.477228 136.19039 88.260442 136.51274 89.082031 136.31641 C 89.212421 136.2843 89.336626 136.24169 89.457031 136.1875 C 89.455965 136.34364 89.465488 136.49997 89.490234 136.65039 C 89.173402 136.53502 88.791559 136.51927 88.419922 136.60742 C 87.598269 136.80386 87.045964 137.44225 87.1875 138.0332 C 87.219073 138.16574 87.286716 138.28288 87.382812 138.39062 C 87.703506 138.74913 88.32009 138.89483 88.933594 138.74805 C 89.471919 138.61911 89.915566 138.29529 90.097656 137.89453 C 90.110136 137.91064 90.126118 137.92104 90.140625 137.93555 C 90.209638 138.00296 90.27947 138.0679 90.357422 138.125 C 90.211129 138.20372 90.081083 138.3032 89.955078 138.41797 C 89.331601 138.98822 89.157991 139.81345 89.568359 140.26172 C 89.642279 140.34343 89.729184 140.41042 89.833984 140.45703 L 89.833984 140.45117 C 90.291307 140.65753 90.93865 140.48966 91.433594 140.03711 C 91.88057 139.62713 92.111511 139.067 92.021484 138.60742 C 92.37582 138.5847 92.737665 138.49515 93.076172 138.3418 C 93.063692 138.5806 93.095675 138.83589 93.175781 139.07617 C 93.442341 139.87764 94.124457 140.37301 94.701172 140.18164 C 95.278164 139.98993 95.530061 139.17676 95.263672 138.375 C 95.095896 137.87227 94.753145 137.47197 94.357422 137.31055 C 94.657145 136.91362 94.86329 136.45953 94.953125 135.99219 C 96.671685 135.6157 98.381697 135.12576 100.11328 134.85547 C 99.888023 137.12382 100.07835 139.6662 101.30469 141.96875 L 98.224609 143.3125 L 97.832031 149.06641 C 95.884277 149.15494 91.165332 148.7176 89.830078 150.7793 L 100.39648 152.81445 L 100.51367 145.46094 L 103.20117 144.55273 C 107.69717 149.24407 116.00847 150.85508 123.07812 149.20898 C 126.96711 148.30347 130.22474 147.04042 132.9375 145.51367 L 136.52734 150.33789 L 142.48438 146.85352 C 143.8736 148.2216 146.10573 151.92464 148.52539 151.50195 L 143.9043 141.93555 L 136.93359 147.21875 L 135.14648 144.13867 C 144.25553 137.77427 145.61624 127.82407 142.74609 118.59375 C 144.09575 119.15154 145.64281 120.06001 146.81641 120.68555 L 149.03906 122.65234 C 149.02296 123.12795 149.11471 123.61266 149.31836 124.06641 C 148.89663 124.13542 148.47682 124.45555 148.20117 124.9082 C 147.76277 125.63041 147.83212 126.47366 148.35156 126.78906 C 148.87108 127.10419 149.64548 126.77455 150.08398 126.05273 C 150.21581 125.83639 150.304 125.59676 150.3457 125.36133 C 150.64143 125.58652 150.97021 125.75819 151.31055 125.85938 C 151.12038 126.28726 151.2195 126.88345 151.56445 127.38281 C 151.94607 127.93431 152.5375 128.24178 153.0293 128.14258 C 153.14179 128.1206 153.24758 128.07661 153.33789 128.01367 C 153.83784 127.66815 153.85375 126.82185 153.37305 126.12695 C 153.27577 125.98708 153.16017 125.86316 153.03516 125.75391 C 153.12369 125.71572 153.21424 125.67334 153.29688 125.62305 C 153.3149 125.61057 153.32885 125.59895 153.3457 125.58594 C 153.4336 126.01724 153.79694 126.43597 154.29297 126.68164 C 154.85833 126.96149 155.48444 126.96268 155.87695 126.68555 C 155.99479 126.60203 156.08802 126.49509 156.14844 126.37305 C 156.41814 125.82848 156.02688 125.0856 155.26953 124.71094 C 154.92696 124.54208 154.55139 124.46992 154.2168 124.51172 C 154.27472 124.37078 154.32028 124.21894 154.35352 124.06641 C 154.45869 124.14641 154.57141 124.21912 154.69141 124.2793 C 155.44853 124.65385 156.27931 124.51721 156.54883 123.97266 C 156.81821 123.42794 156.42323 122.68122 155.66602 122.30664 C 155.14712 122.05008 154.56731 122.03311 154.16992 122.25195 C 154.09974 122.07757 154.01551 121.90073 153.91602 121.74023 C 153.06351 120.37652 151.41505 119.85845 150.20703 120.57031 L 146.94336 118.25586 C 145.37363 117.1423 141.4707 115.18164 141.4707 115.18164 C 136.88598 104.54909 127.00215 95.677726 117.60352 95.71875 z M 123.10547 119.57812 C 123.18952 119.57786 123.26417 119.58935 123.32617 119.61133 C 124.81418 120.14977 120.06306 126.96529 115.61328 127.27148 L 115.18359 123.27734 L 118.50977 122.16406 L 119.05469 125.74023 L 119.97461 124.98633 L 119.51758 121.63867 C 121.37591 120.16108 122.5168 119.57991 123.10547 119.57812 z M 113.80469 123.72656 L 114.23633 127.60547 C 112.97941 128.16176 111.71981 128.14329 110.46289 128.07812 L 110.0293 124.26172 L 113.80469 123.72656 z M 108.6543 124.55664 L 109.08594 128.06055 C 109.08594 128.06055 106.29971 127.49097 104.87109 125.30078 L 108.6543 124.55664 z "
         transform="matrix(0.93749997,0,0,0.93749997,-109.57405,-485.34592)"
         id="path163" />
      <path
         style="color:#000000;clip-rule:nonzero;display:inline;overflow:visible;visibility:visible;opacity:1;isolation:auto;mix-blend-mode:normal;color-interpolation:sRGB;color-interpolation-filters:linearRGB;solid-color:#000000;solid-opacity:1;fill:#729fcf;fill-opacity:1;fill-rule:nonzero;stroke:none;stroke-width:1;stroke-linecap:butt;stroke-linejoin:miter;stroke-miterlimit:4;stroke-dasharray:none;stroke-dashoffset:0;stroke-opacity:1;marker:none;color-rendering:auto;image-rendering:auto;shape-rendering:auto;text-rendering:auto;enable-background:accumulate"
         d="m -74.59702,-390.82654 h 0.01 c 0.01,-3.1e-4 0.0173,-3.1e-4 0.0273,0 0.26638,-10e-4 0.48048,0.2102 0.48047,0.47656 1e-5,0.26638 -0.2141,0.48426 -0.48047,0.48243 -0.26506,0 -0.47851,-0.21735 -0.47851,-0.48243 -7.2e-4,-0.25148 0.19065,-0.45749 0.4414,-0.47656 z"
         id="path159" />
      <path
         style="color:#000000;clip-rule:nonzero;display:inline;overflow:visible;visibility:visible;opacity:1;isolation:auto;mix-blend-mode:normal;color-interpolation:sRGB;color-interpolation-filters:linearRGB;solid-color:#000000;solid-opacity:1;fill:#729fcf;fill-opacity:1;fill-rule:nonzero;stroke:none;stroke-width:1;stroke-linecap:butt;stroke-linejoin:miter;stroke-miterlimit:4;stroke-dasharray:none;stroke-dashoffset:0;stroke-opacity:1;marker:none;color-rendering:auto;image-rendering:auto;shape-rendering:auto;text-rendering:auto;enable-background:accumulate"
         d="m -8.42124,-390.82654 h 0.006 c 0.01,-3.1e-4 0.0213,-3.1e-4 0.0312,0 0.26638,-10e-4 0.47853,0.2102 0.47852,0.47656 1e-5,0.26638 -0.21215,0.48426 -0.47852,0.48243 -0.26506,0 -0.48047,-0.21735 -0.48047,-0.48243 -7.1e-4,-0.25148 0.19261,-0.45749 0.44336,-0.47656 z"
         id="path157" />
      <path
         style="color:#000000;clip-rule:nonzero;display:inline;overflow:visible;visibility:visible;opacity:1;isolation:auto;mix-blend-mode:normal;color-interpolation:sRGB;color-interpolation-filters:linearRGB;solid-color:#000000;solid-opacity:1;fill:#729fcf;fill-opacity:1;fill-rule:nonzero;stroke:none;stroke-width:1;stroke-linecap:butt;stroke-linejoin:miter;stroke-miterlimit:4;stroke-dasharray:none;stroke-dashoffset:0;stroke-opacity:1;marker:none;color-rendering:auto;image-rendering:auto;shape-rendering:auto;text-rendering:auto;enable-background:accumulate"
         d="m 57.37564,-390.82654 h 0.006 c 0.0101,-3.1e-4 0.0212,-3.1e-4 0.0312,0 0.26637,-10e-4 0.47851,0.2102 0.47851,0.47656 0,0.26638 -0.21215,0.48426 -0.47851,0.48243 -0.26508,0 -0.48242,-0.21735 -0.48242,-0.48243 -7.1e-4,-0.25148 0.19457,-0.45749 0.44531,-0.47656 z"
         id="path155" />
      <path
         style="color:#000000;clip-rule:nonzero;display:inline;overflow:visible;visibility:visible;opacity:1;isolation:auto;mix-blend-mode:normal;color-interpolation:sRGB;color-interpolation-filters:linearRGB;solid-color:#000000;solid-opacity:1;fill:#729fcf;fill-opacity:1;fill-rule:nonzero;stroke:none;stroke-width:1;stroke-linecap:butt;stroke-linejoin:miter;stroke-miterlimit:4;stroke-dasharray:none;stroke-dashoffset:0;stroke-opacity:1;marker:none;color-rendering:auto;image-rendering:auto;shape-rendering:auto;text-rendering:auto;enable-background:accumulate"
         d="m -71.47788,-388.87732 h 0.002 c 0.0117,-4.2e-4 0.025,-4.2e-4 0.0371,0 0.28329,10e-5 0.51356,0.23036 0.51367,0.51367 -1.1e-4,0.28331 -0.23038,0.51163 -0.51367,0.51172 -0.2833,-8e-5 -0.51357,-0.22841 -0.51368,-0.51172 -7.1e-4,-0.26848 0.20692,-0.49281 0.47461,-0.51367 z"
         id="path153" />
      <path
         style="color:#000000;clip-rule:nonzero;display:inline;overflow:visible;visibility:visible;opacity:1;isolation:auto;mix-blend-mode:normal;color-interpolation:sRGB;color-interpolation-filters:linearRGB;solid-color:#000000;solid-opacity:1;fill:#729fcf;fill-opacity:1;fill-rule:nonzero;stroke:none;stroke-width:1;stroke-linecap:butt;stroke-linejoin:miter;stroke-miterlimit:4;stroke-dasharray:none;stroke-dashoffset:0;stroke-opacity:1;marker:none;color-rendering:auto;image-rendering:auto;shape-rendering:auto;text-rendering:auto;enable-background:accumulate"
         d="m -5.30405,-388.87732 h 0.004 c 0.0117,-4.2e-4 0.025,-4.2e-4 0.0371,0 0.28332,10e-5 0.51356,0.23036 0.51367,0.51367 -1.1e-4,0.28331 -0.23035,0.51163 -0.51367,0.51172 -0.2833,-8e-5 -0.51357,-0.22841 -0.51368,-0.51172 -7.1e-4,-0.26848 0.20497,-0.49281 0.47266,-0.51367 z"
         id="path151" />
      <path
         style="color:#000000;clip-rule:nonzero;display:inline;overflow:visible;visibility:visible;opacity:1;isolation:auto;mix-blend-mode:normal;color-interpolation:sRGB;color-interpolation-filters:linearRGB;solid-color:#000000;solid-opacity:1;fill:#729fcf;fill-opacity:1;fill-rule:nonzero;stroke:none;stroke-width:1;stroke-linecap:butt;stroke-linejoin:miter;stroke-miterlimit:4;stroke-dasharray:none;stroke-dashoffset:0;stroke-opacity:1;marker:none;color-rendering:auto;image-rendering:auto;shape-rendering:auto;text-rendering:auto;enable-background:accumulate"
         d="m 60.49087,-388.87732 h 0.006 c 0.0116,-4.2e-4 0.0212,-4.2e-4 0.0332,0 0.28333,10e-5 0.51748,0.23036 0.51758,0.51367 -10e-5,0.28331 -0.23425,0.51163 -0.51758,0.51172 -0.28328,-8e-5 -0.51357,-0.22841 -0.51367,-0.51172 -7.2e-4,-0.26848 0.20691,-0.49281 0.47461,-0.51367 z"
         id="path149" />
      <path
         style="color:#000000;clip-rule:nonzero;display:inline;overflow:visible;visibility:visible;opacity:1;isolation:auto;mix-blend-mode:normal;color-interpolation:sRGB;color-interpolation-filters:linearRGB;solid-color:#000000;solid-opacity:1;fill:#729fcf;fill-opacity:1;fill-rule:nonzero;stroke:none;stroke-width:1.06666672;stroke-linecap:butt;stroke-linejoin:miter;stroke-miterlimit:4;stroke-dasharray:none;stroke-dashoffset:0;stroke-opacity:1;marker:none;color-rendering:auto;image-rendering:auto;shape-rendering:auto;text-rendering:auto;enable-background:accumulate"
         d="M 187.78516 95.71875 C 181.19927 95.584798 174.76322 97.371822 170.16211 99.914062 C 173.13533 98.522137 176.67105 98.758382 179.50586 99.96875 C 179.42277 99.949123 179.33854 99.938887 179.25 99.9375 C 178.60658 99.932167 177.91243 100.41243 177.50586 101.14648 C 176.96031 102.13184 177.10117 103.24903 177.81445 103.64453 C 178.52765 104.04016 179.54502 103.56282 180.0918 102.57812 C 180.5877 101.6848 180.52979 100.66292 179.95508 100.1875 C 180.9531 100.66435 181.84062 101.2654 182.57422 101.95898 C 181.90657 101.99056 181.21202 102.49176 180.79492 103.24414 C 180.21178 104.29772 180.35651 105.4931 181.11914 105.91602 C 181.88187 106.33958 182.96996 105.83285 183.55469 104.7793 C 183.75782 104.41313 183.87888 104.00668 183.90625 103.61914 C 185.11399 105.75215 184.92326 108.36686 182.19336 110.91016 C 177.9602 114.85392 171.49609 110.17969 171.49609 110.17969 C 157.30074 110.69835 155.47686 127.52518 164.33789 129.60156 C 168.11003 130.52345 171.74891 127.44674 174.0957 126.44922 C 173.68694 126.65979 172.78818 127.21164 172.125 128.23828 C 172.125 128.23828 170.63581 132.61506 170.63477 132.63477 C 168.57442 132.8829 166.51057 133.33158 164.45898 133.69727 C 163.44007 132.73402 161.71514 132.87633 160.58008 134.01562 C 160.44738 134.14995 160.32808 134.29892 160.2207 134.45312 C 159.88211 134.15143 159.31497 134.0452 158.75195 134.17969 C 157.93027 134.37606 157.37834 135.00854 157.51953 135.59961 C 157.66084 136.19039 158.44404 136.51274 159.26562 136.31641 C 159.39599 136.2843 159.52022 136.24169 159.64062 136.1875 C 159.63956 136.34364 159.64809 136.49997 159.67188 136.65039 C 159.35503 136.53502 158.97517 136.51927 158.60352 136.60742 C 157.78186 136.80386 157.22957 137.44225 157.37109 138.0332 C 157.40267 138.16574 157.47031 138.28288 157.56641 138.39062 C 157.88709 138.74913 158.50368 138.89483 159.11719 138.74805 C 159.65551 138.61911 160.09916 138.29529 160.28125 137.89453 C 160.29362 137.91064 160.30971 137.92104 160.32422 137.93555 C 160.39323 138.00296 160.46299 138.0679 160.54102 138.125 C 160.39476 138.20372 160.26467 138.3032 160.13867 138.41797 C 159.51518 138.98822 159.33769 139.81345 159.74805 140.26172 C 159.82197 140.34343 159.91279 140.41042 160.01758 140.45703 L 160.01758 140.45117 C 160.47492 140.65753 161.12225 140.48966 161.61719 140.03711 C 162.06417 139.62713 162.2951 139.067 162.20508 138.60742 C 162.55941 138.5847 162.92125 138.49515 163.25977 138.3418 C 163.24739 138.5806 163.277 138.83589 163.35742 139.07617 C 163.62399 139.87764 164.30806 140.37301 164.88477 140.18164 C 165.46177 139.98993 165.70975 139.17676 165.44336 138.375 C 165.27559 137.87227 164.93674 137.47197 164.54102 137.31055 C 164.84073 136.91362 165.04689 136.45953 165.13672 135.99219 C 166.85529 135.6157 168.56138 135.12576 170.29297 134.85547 C 170.0677 137.12382 170.26195 139.6662 171.48828 141.96875 L 168.4082 143.3125 L 168.01562 149.06641 C 166.06786 149.15494 161.3489 148.7176 160.01367 150.7793 L 170.57812 152.81445 L 170.69727 145.46094 L 173.38477 144.55273 C 177.88077 149.24407 186.19013 150.85508 193.25977 149.20898 C 197.14879 148.30347 200.40835 147.04042 203.12109 145.51367 L 206.71094 150.33789 L 212.66211 146.85352 C 214.05134 148.2216 216.28933 151.92464 218.70898 151.50195 L 214.08789 141.93555 L 207.11719 147.21875 L 205.32812 144.13867 C 214.43717 137.77427 215.79983 127.82407 212.92969 118.59375 C 214.27934 119.15154 215.82444 120.06001 216.99805 120.68555 L 219.21875 122.65234 C 219.20275 123.12795 219.29841 123.61266 219.50195 124.06641 C 219.08024 124.13542 218.6565 124.45555 218.38086 124.9082 C 217.94246 125.63041 218.01368 126.47366 218.5332 126.78906 C 219.05273 127.10419 219.8271 126.77455 220.26562 126.05273 C 220.39738 125.83639 220.48758 125.59676 220.5293 125.36133 C 220.82502 125.58652 221.15378 125.75819 221.49414 125.85938 C 221.30395 126.28726 221.40321 126.88345 221.74805 127.38281 C 222.12967 127.93431 222.72109 128.24178 223.21289 128.14258 C 223.32539 128.1206 223.43118 128.07661 223.52148 128.01367 C 224.02143 127.66815 224.03742 126.82185 223.55664 126.12695 C 223.45936 125.98708 223.34376 125.86316 223.21875 125.75391 C 223.30739 125.71572 223.39781 125.67334 223.48047 125.62305 C 223.4985 125.61057 223.5106 125.59895 223.52734 125.58594 C 223.61534 126.01724 223.9786 126.43597 224.47461 126.68164 C 225.03997 126.96149 225.66805 126.96268 226.06055 126.68555 C 226.17845 126.60203 226.27162 126.49509 226.33203 126.37305 C 226.60174 125.82848 226.21044 125.0856 225.45312 124.71094 C 225.11055 124.54208 224.73496 124.46992 224.40039 124.51172 C 224.45831 124.37078 224.50182 124.21894 224.53516 124.06641 C 224.64044 124.14641 224.75108 124.21912 224.87109 124.2793 C 225.62821 124.65385 226.4629 124.51721 226.73242 123.97266 C 227.0018 123.42794 226.60483 122.68122 225.84766 122.30664 C 225.32877 122.05008 224.74701 122.03311 224.34961 122.25195 C 224.27953 122.07757 224.19717 121.90073 224.09766 121.74023 C 223.24514 120.37652 221.59669 119.85845 220.38867 120.57031 L 217.125 118.25586 C 215.55528 117.1423 211.6543 115.18164 211.6543 115.18164 C 207.06959 104.54909 197.18379 95.677726 187.78516 95.71875 z M 193.28711 119.57812 C 193.37106 119.57786 193.44777 119.58935 193.50977 119.61133 C 194.99779 120.14977 190.24666 126.96529 185.79688 127.27148 L 185.36719 123.27734 L 188.69141 122.16406 L 189.23438 125.74023 L 190.1582 124.98633 L 189.70117 121.63867 C 191.55951 120.16108 192.69843 119.57991 193.28711 119.57812 z M 183.98828 123.72656 L 184.41992 127.60547 C 183.163 128.16176 181.9034 128.14329 180.64648 128.07812 L 180.21289 124.26172 L 183.98828 123.72656 z M 178.83789 124.55664 L 179.26953 128.06055 C 179.26953 128.06055 176.48332 127.49097 175.05469 125.30078 L 178.83789 124.55664 z "
         transform="matrix(0.93749997,0,0,0.93749997,-109.57405,-485.34592)"
         id="path161" />
      <path
         id="path3403"
         d="m -46.996112,-471.0881 -5.90039,44.65039 h 12.02344 l 0.68945,-8.02539 h 4.16407 l 0.58008,8.02539 h 11.88671 l -6.64648,-44.65039 z m 97.10547,0 v 44.65039 h 11.14063 v -15.9414 l 3.47656,15.9414 h 10.72656 l -5.87304,-22.00781 4.52343,-14.58984 h -9.37695 l -3.47656,10.70117 v -18.75391 z m -59.9296805,7.39063 c -3.1439795,0 -5.6987395,0.58894 -7.6660195,1.76562 -1.96728,1.1767 -3.28147,2.53763 -3.94336,4.08203 -0.6435,1.52602 -0.96484,3.70375 -0.96484,6.53516 v 2.45508 h 10.45117 v -3.83399 c 0,-2.04082 0.0915,-3.29931 0.27539,-3.77734 0.18386,-0.49642 0.65438,-0.74609 1.4082,-0.74609 0.6618895,0 1.1304695,0.29446 1.4062495,0.88281 0.29418,0.56996 0.44141,1.81054 0.44141,3.72266 0,1.52602 -0.12932,2.53874 -0.38672,3.03515 -0.2574,0.49642 -2.2162195,1.46044 -5.8749995,2.89453 -3.41976,1.32378 -5.56165,2.48373 -6.42578,3.47657 -0.86413,0.99283 -1.29492,2.85816 -1.29492,5.59765 v 3.00586 c 0,3.69555 0.80783,6.09412 2.42578,7.19727 1.63633,1.08476 3.43001,1.6289 5.3789,1.6289 1.48925,0 2.76566,-0.32329 3.83204,-0.96679 1.0847595,-0.66189 1.9681595,-1.64578 2.6484295,-2.95118 v 3.25586 h 10.83789 v -18.36718 c 0,-6.04894 -0.19202,-10.0402 -0.57812,-11.97071 -0.3861,-1.94889 -1.53514,-3.58442 -3.44727,-4.9082 -1.91212,-1.34216 -4.75434,-2.01367 -8.52343,-2.01367 z m 34.3632805,0 c -1.52602,0 -2.885,0.35017 -4.08008,1.04883 -1.19508,0.68027 -2.22571,1.70895 -3.08984,3.08789 l 0.19335,-3.47461 H 6.5624875 v 36.59765 H 17.373038 v -25.37304 c 0,-1.76504 0.0179,-2.91408 0.0547,-3.44727 0.0368,-0.55157 0.23075,-1.01119 0.58008,-1.37891 0.34933,-0.3861 0.77116,-0.58007 1.26758,-0.58007 0.79059,0 1.27007,0.35912 1.43555,1.07617 0.18385,0.71705 0.27539,2.86789 0.27539,6.45312 v 23.25 h 10.81054 v -23.85547 c 0,-3.14397 0.10945,-5.08487 0.33008,-5.82031 0.23902,-0.73543 0.75433,-1.10351 1.54492,-1.10351 0.77221,0 1.26065,0.37704 1.46289,1.13086 0.22063,0.73543 0.33008,2.66738 0.33008,5.79296 v 23.85547 h 10.81055 v -26.00781 c 0,-2.99689 -0.17411,-5.15669 -0.52344,-6.48047 -0.34933,-1.34216 -1.15015,-2.47328 -2.40039,-3.39258 -1.23185,-0.91928 -2.79376,-1.3789 -4.6875,-1.3789 -1.43409,0 -2.73932,0.35017 -3.91601,1.04883 -1.1767,0.68027 -2.2342,1.70895 -3.17188,3.08789 -1.70988,-2.75787 -4.0547,-4.13672 -7.0332,-4.13672 z m 63.26562,0 c -2.44531,0 -4.59616,0.37704 -6.45312,1.13086 -1.83858,0.75382 -3.14381,1.82924 -3.91602,3.22656 -0.7722,1.37893 -1.1582,3.52978 -1.1582,6.45312 0,2.05921 0.35912,3.84393 1.07617,5.35157 0.71705,1.48924 2.7117,3.15165 5.98437,4.99023 3.8978,2.16953 6.0576,3.47476 6.48047,3.91602 0.40449,0.44126 0.60743,1.53655 0.60743,3.2832 0,1.26862 -0.1562,2.10527 -0.46875,2.50977 -0.31256,0.3861 -0.86566,0.57812 -1.65625,0.57812 -0.73544,0 -1.23088,-0.29446 -1.48829,-0.88281 -0.23901,-0.58835 -0.35937,-1.86475 -0.35937,-3.83203 v -2.31641 h -9.87305 v 1.76367 c 0,3.05204 0.37704,5.33221 1.13086,6.83985 0.75382,1.50764 2.13267,2.70341 4.13672,3.58593 2.02244,0.88252 4.44984,1.32422 7.28125,1.32422 2.55563,0 4.7353,-0.40587 6.53711,-1.21484 1.82019,-0.82736 3.11647,-1.99432 3.88867,-3.50195 0.772212,-1.52603 1.158202,-3.77932 1.158202,-6.75782 0,-2.66594 -0.50635,-4.69643 -1.517572,-6.09375 -1.01122,-1.39732 -3.1352,-2.88757 -6.3711,-4.46875 -2.42692,-1.19508 -4.03558,-2.1034 -4.82617,-2.72851 -0.7722,-0.62512 -1.24078,-1.19614 -1.40625,-1.71094 -0.14708,-0.53319 -0.2207,-1.36088 -0.2207,-2.48242 0,-0.82736 0.15619,-1.44317 0.46875,-1.84766 0.31256,-0.42287 0.78113,-0.63476 1.40625,-0.63476 0.7722,0 1.24973,0.2298 1.43359,0.68945 0.20225,0.44126 0.30469,1.50773 0.30469,3.19922 v 1.98633 h 9.87305 v -2.12305 c 0,-1.83859 -0.10049,-3.19056 -0.30274,-4.05469 -0.18386,-0.86413 -0.73696,-1.80128 -1.65625,-2.8125 -0.9009,-1.01122 -2.20613,-1.821 -3.91601,-2.42773 -1.6915,-0.62512 -3.75081,-0.9375 -6.17774,-0.9375 z m -125.92383,2.59179 c 0.58835,7.42787 1.17728,13.67047 1.76563,18.72657 h -3.97266 c 0.29418,-3.95295 1.03034,-10.19555 2.20703,-18.72657 z m 29.7031295,17.26563 v 7.5293 c 0,1.83858 -0.1114,2.97866 -0.33203,3.41992 -0.20225,0.42287 -0.6529,0.63281 -1.3515695,0.63281 -0.73543,0 -1.23087,-0.2746 -1.48828,-0.82617 -0.23901,-0.55157 -0.35937,-1.77423 -0.35937,-3.66797 0,-1.65472 0.13827,-2.92412 0.41406,-3.80664 0.29417,-0.88252 1.33377,-1.97586 3.1171895,-3.28125 z"
         style="font-style:normal;font-variant:normal;font-weight:normal;font-stretch:condensed;font-size:medium;line-height:125%;font-family:Impact;-inkscape-font-specification:'Impact Condensed';letter-spacing:0px;word-spacing:0px;fill:#ffffff;fill-opacity:1;stroke:none;stroke-width:1px;stroke-linecap:butt;stroke-linejoin:miter;stroke-opacity:1"
         inkscape:connector-curvature="0" />
    </g>
  </g>
</svg>
