<?xml version="1.0" encoding="UTF-8" standalone="no"?>
<!-- Created with Inkscape (http://www.inkscape.org/) -->

<svg
   xmlns:dc="http://purl.org/dc/elements/1.1/"
   xmlns:cc="http://creativecommons.org/ns#"
   xmlns:rdf="http://www.w3.org/1999/02/22-rdf-syntax-ns#"
   xmlns:svg="http://www.w3.org/2000/svg"
   xmlns="http://www.w3.org/2000/svg"
   xmlns:sodipodi="http://sodipodi.sourceforge.net/DTD/sodipodi-0.dtd"
   xmlns:inkscape="http://www.inkscape.org/namespaces/inkscape"
   width="6.8103747mm"
   height="5.4196687mm"
   viewBox="0 0 24.131249 19.20355"
   id="svg3441"
   version="1.1"
   inkscape:version="0.91 r13725"
   sodipodi:docname="home.svg">
  <defs
     id="defs3443" />
  <sodipodi:namedview
     id="base"
     pagecolor="#ffffff"
     bordercolor="#666666"
     borderopacity="1.0"
     inkscape:pageopacity="0.0"
     inkscape:pageshadow="2"
     inkscape:zoom="7.9195959"
     inkscape:cx="44.799536"
     inkscape:cy="-9.9133529"
     inkscape:document-units="px"
     inkscape:current-layer="layer1"
     showgrid="false"
     fit-margin-top="0"
     fit-margin-left="0"
     fit-margin-right="0"
     fit-margin-bottom="0"
     inkscape:window-width="1920"
     inkscape:window-height="1060"
     inkscape:window-x="1366"
     inkscape:window-y="0"
     inkscape:window-maximized="1" />
  <metadata
     id="metadata3446">
    <rdf:RDF>
      <cc:Work
         rdf:about="">
        <dc:format>image/svg+xml</dc:format>
        <dc:type
           rdf:resource="http://purl.org/dc/dcmitype/StillImage" />
        <dc:title></dc:title>
      </cc:Work>
    </rdf:RDF>
  </metadata>
  <g
     inkscape:label="Layer 1"
     inkscape:groupmode="layer"
     id="layer1"
     transform="translate(-645.07723,354.38243)">
    <g
       id="g3423"
       transform="matrix(0.43843724,0,0,0.43843724,636.10647,-365.82564)"
       style="fill:#ffffff">
      <path
         style="fill:#ffffff"
         d="m 67.6,51.3 0,16.4 c 0,0.6 -0.2,1.1 -0.6,1.5 -0.4,0.4 -0.9,0.6 -1.5,0.6 l -13.1,0 0,-13 -8.7,0 0,13.1 -13.2,0 c -0.6,0 -1.1,-0.2 -1.5,-0.6 -0.4,-0.4 -0.6,-0.9 -0.6,-1.5 l 0,-16.5 c 0,0 0,-0.1 0,-0.1 0,0 0,-0.1 0,-0.1 L 48,35 67.6,51.2 c 0,0 0,0 0,0.1 z m 7.7,-2.3 -2.1,2.5 c -0.2,0.2 -0.4,0.3 -0.7,0.4 l -0.1,0 c -0.3,0 -0.5,-0.1 -0.7,-0.2 L 48,31.9 24.4,51.6 c -0.3,0.2 -0.5,0.3 -0.8,0.2 -0.3,0 -0.5,-0.2 -0.7,-0.4 L 20.7,49 c -0.2,-0.2 -0.3,-0.5 -0.2,-0.8 0,-0.3 0.1,-0.6 0.4,-0.7 L 45.4,27 c 0.7,-0.6 1.6,-0.9 2.6,-0.9 1,0 1.9,0.3 2.6,0.9 l 8.3,7 0,-6.7 c 0,-0.3 0.1,-0.6 0.3,-0.8 0.2,-0.2 0.5,-0.3 0.8,-0.3 l 6.5,0 c 0.3,0 0.6,0.1 0.8,0.3 0.2,0.2 0.3,0.5 0.3,0.8 l 0,13.9 7.5,6.2 c 0.2,0.2 0.4,0.4 0.4,0.7 0,0.3 -0.1,0.6 -0.2,0.9 z"
         class="st0"
         id="path3425"
         inkscape:connector-curvature="0" />
    </g>
  </g>
</svg>
