<?xml version="1.0" encoding="UTF-8" standalone="no"?>
<!-- Created with Inkscape (http://www.inkscape.org/) -->

<svg
   xmlns:dc="http://purl.org/dc/elements/1.1/"
   xmlns:cc="http://creativecommons.org/ns#"
   xmlns:rdf="http://www.w3.org/1999/02/22-rdf-syntax-ns#"
   xmlns:svg="http://www.w3.org/2000/svg"
   xmlns="http://www.w3.org/2000/svg"
   xmlns:sodipodi="http://sodipodi.sourceforge.net/DTD/sodipodi-0.dtd"
   xmlns:inkscape="http://www.inkscape.org/namespaces/inkscape"
   width="136.14696mm"
   height="159.0172mm"
   viewBox="0 0 136.14696 159.0172"
   version="1.1"
   id="svg127"
   inkscape:version="0.92.3 (2405546, 2018-03-11)"
   sodipodi:docname="fire.svg">
  <defs
     id="defs121" />
  <sodipodi:namedview
     id="base"
     pagecolor="#ffffff"
     bordercolor="#666666"
     borderopacity="1.0"
     inkscape:pageopacity="0.0"
     inkscape:pageshadow="2"
     inkscape:zoom="0.25000001"
     inkscape:cx="-117.43384"
     inkscape:cy="-76.192948"
     inkscape:document-units="mm"
     inkscape:current-layer="layer1"
     showgrid="false"
     fit-margin-top="0"
     fit-margin-left="0"
     fit-margin-right="0"
     fit-margin-bottom="0"
     inkscape:window-width="1600"
     inkscape:window-height="854"
     inkscape:window-x="0"
     inkscape:window-y="0"
     inkscape:window-maximized="1"
     inkscape:snap-global="false" />
  <metadata
     id="metadata124">
    <rdf:RDF>
      <cc:Work
         rdf:about="">
        <dc:format>image/svg+xml</dc:format>
        <dc:type
           rdf:resource="http://purl.org/dc/dcmitype/StillImage" />
        <dc:title></dc:title>
      </cc:Work>
    </rdf:RDF>
  </metadata>
  <g
     inkscape:label="Layer 1"
     inkscape:groupmode="layer"
     id="layer1"
     transform="translate(-373.17128,-93.883965)">
    <g
       id="g149"
       transform="translate(328.70927,37.907403)">
      <path
         sodipodi:nodetypes="cccccccccccccc"
         inkscape:connector-curvature="0"
         id="path10"
         d="m 65.065145,147.07462 -13.493749,30.95625 8.995833,25.92916 11.37708,6.33671 c 0,0 23.647996,5.05139 44.227751,4.67722 20.76684,-0.37418 35.14725,-4.67722 35.14725,-4.67722 l 10.31875,-17.97837 -17.72708,-44.45 -20.10834,4.23333 -0.79375,-19.31458 -22.225,3.70416 -2.910414,-16.66875 -21.695833,32.27917 z"
         style="fill:#f57900;fill-rule:evenodd;stroke:none;stroke-width:0.26458332px;stroke-linecap:butt;stroke-linejoin:miter;stroke-opacity:1" />
      <path
         sodipodi:type="inkscape:offset"
         inkscape:radius="0"
         inkscape:original="M 108.58594 55.976562 C 133.94635 97.480179 104.9875 138.08922 103.88281 116.89453 C 103.93431 97.400245 90.541016 78.697266 90.541016 78.697266 C 95.845813 111.04451 72.589844 141.00781 72.589844 141.00781 C 72.589844 141.00781 69.658624 126.44125 55.566406 118.25 C 66.523665 141.96045 9.9479072 199.68313 80.785156 212.61914 C 65.63271 203.47534 48.762629 192.82057 61.671875 160.94141 C 61.671875 160.94141 59.479916 196.55563 99.519531 198.19336 C 78.32135 188.60467 76.61748 168.81484 95.363281 128.01953 C 91.159449 169.31941 106.5913 155.08885 115.69727 138.58203 C 112.64222 179.68387 135.75522 196.00962 140.91211 153.87695 C 146.39032 176.77759 164.71149 198.87336 146.5625 212.50195 C 180.67265 200.03883 192.45105 166.30995 166.57422 143.52148 C 167.91319 155.4756 159.45062 167.04865 156.81055 174.07227 C 145.9134 158.61364 181.07305 122.94014 143.13086 84.5625 C 151.82935 104.60135 141.95836 149.06352 130.98438 144.84375 C 121.03677 141.01864 156.05235 96.86121 108.58594 55.976562 z M 108.06445 156.80469 C 100.24959 179.35594 95.588657 182.32902 94.871094 161.17578 C 83.925802 195.12121 118.85526 194.80172 111.83398 201.60547 C 105.44144 207.79999 87.783768 208.58625 82.080078 205.06641 C 94.838973 214.49749 164.22525 225.86098 142.56445 177.88672 C 141.76044 198.62424 100.45704 188.37874 108.06445 156.80469 z "
         style="opacity:1;fill:#a40000;fill-opacity:1;stroke:none;stroke-width:2.70638704"
         id="path12"
         d="m 108.58594,55.976562 c 25.36041,41.503617 -3.59844,82.112658 -4.70313,60.917968 0.0515,-19.494285 -13.341794,-38.197264 -13.341794,-38.197264 5.304797,32.347244 -17.951172,62.310544 -17.951172,62.310544 0,0 -2.93122,-14.56656 -17.023438,-22.75781 10.957259,23.71045 -45.6184988,81.43313 25.21875,94.36914 -15.152446,-9.1438 -32.022527,-19.79857 -19.113281,-51.67773 0,0 -2.191959,35.61422 37.847656,37.25195 -21.198181,-9.58869 -22.902051,-29.37852 -4.15625,-70.17383 -4.203832,41.29988 11.228019,27.06932 20.333989,10.5625 -3.05505,41.10184 20.05795,57.42759 25.21484,15.29492 5.47821,22.90064 23.79938,44.99641 5.65039,58.625 34.11015,-12.46312 45.88855,-46.192 20.01172,-68.98047 1.33897,11.95412 -7.1236,23.52717 -9.76367,30.55079 -10.89715,-15.45863 24.2625,-51.13213 -13.67969,-89.50977 8.69849,20.03885 -1.1725,64.50102 -12.14648,60.28125 -9.94761,-3.82511 25.06797,-47.98254 -22.39844,-88.867188 z m -0.52149,100.828128 c -7.81486,22.55125 -12.475793,25.52433 -13.193356,4.37109 -10.945292,33.94543 23.984166,33.62594 16.962886,40.42969 -6.39254,6.19452 -24.050212,6.98078 -29.753902,3.46094 12.758895,9.43108 82.145172,20.79457 60.484372,-27.17969 -0.80401,20.73752 -42.10741,10.49202 -34.5,-21.08203 z" />
    </g>
  </g>
</svg>
