<?xml version="1.0" encoding="UTF-8" standalone="no"?>
<!-- Created with Inkscape (http://www.inkscape.org/) -->

<svg
   width="100"
   height="100"
   viewBox="0 0 26.458334 26.458334"
   version="1.1"
   id="fire.svg"
   inkscape:version="1.3 (1:1.3+202307231459+0e150ed6c4)"
   sodipodi:docname="fire.svg"
   xmlns:inkscape="http://www.inkscape.org/namespaces/inkscape"
   xmlns:sodipodi="http://sodipodi.sourceforge.net/DTD/sodipodi-0.dtd"
   xmlns="http://www.w3.org/2000/svg"
   xmlns:svg="http://www.w3.org/2000/svg"
   xmlns:rdf="http://www.w3.org/1999/02/22-rdf-syntax-ns#"
   xmlns:cc="http://creativecommons.org/ns#"
   xmlns:dc="http://purl.org/dc/elements/1.1/">
  <defs
     id="defs121" />
  <sodipodi:namedview
     id="base"
     pagecolor="#ffffff"
     bordercolor="#666666"
     borderopacity="1.0"
     inkscape:pageopacity="0.0"
     inkscape:pageshadow="2"
     inkscape:zoom="4"
     inkscape:cx="42.875"
     inkscape:cy="54"
     inkscape:document-units="mm"
     inkscape:current-layer="g149"
     showgrid="false"
     fit-margin-top="0"
     fit-margin-left="0"
     fit-margin-right="0"
     fit-margin-bottom="0"
     inkscape:window-width="1292"
     inkscape:window-height="704"
     inkscape:window-x="74"
     inkscape:window-y="27"
     inkscape:window-maximized="1"
     inkscape:snap-global="false"
     inkscape:showpageshadow="2"
     inkscape:pagecheckerboard="0"
     inkscape:deskcolor="#d1d1d1" />
  <metadata
     id="metadata124">
    <rdf:RDF>
      <cc:Work
         rdf:about="">
        <dc:format>image/svg+xml</dc:format>
        <dc:type
           rdf:resource="http://purl.org/dc/dcmitype/StillImage" />
      </cc:Work>
    </rdf:RDF>
  </metadata>
  <g
     inkscape:label="Layer 1"
     inkscape:groupmode="layer"
     id="layer1"
     transform="translate(-373.17128,-93.883965)">
    <g
       id="g149"
       transform="translate(328.70927,37.907403)">
      <g
         id="g1"
         transform="matrix(0.19314369,0,0,0.21587734,90.191712,121.46052)">
        <path
           sodipodi:nodetypes="cccccccccccccc"
           inkscape:connector-curvature="0"
           id="path10"
           d="m -221.58993,-242.35416 -7.31919,23.64526 7.71543,23.26987 c 16.45261,10.14452 38.03405,14.50409 56.18472,14.79139 18.61986,-0.05 32.43086,-4.07006 47.019,-13.64358 l 7.83221,-28.05105 -15.316,8.35223 -11.09578,-34.88136 -20.10834,4.23333 0.36493,-21.84172 -24.40368,22.10698 -13.36594,-22.13545 -11.74382,27.38231 z"
           style="fill:#f57900;fill-rule:evenodd;stroke:none;stroke-width:0.264583px;stroke-linecap:butt;stroke-linejoin:miter;stroke-opacity:1" />
        <path
           style="opacity:1;fill:#a40000;fill-opacity:1;stroke:none;stroke-width:2.70639"
           d="m -164.8992,-303.12081 c -0.28624,25.58226 -5.86365,42.61468 -13.02134,40.87065 -3.5882,-0.8743 -6.96362,-9.48263 -11.49331,-18.04364 -11.2894,-19.5765 -16.16252,-16.63479 -16.16252,-16.63479 9.09251,29.76514 -5.51736,52.58785 -6.85777,53.50162 0,0 -0.054,-1.15583 -0.21163,-3.11654 -0.77579,-9.64938 -3.6279,-22.76709 -15.34022,-29.575 10.95725,23.71045 -40.4703,77.80321 30.36695,90.73922 -15.15244,-9.1438 -34.09885,-18.53991 -21.18961,-50.41907 0,0 -2.19195,35.61422 37.84766,37.25195 -21.19818,-9.58869 -30.84031,-21.88171 -12.0945,-62.67702 -4.20384,41.29988 16.98437,27.54504 28.27224,3.06569 -3.05505,41.10184 16.11827,53.88187 29.54849,16.87079 3.15282,13.17977 -2.5202,16.44379 8.48612,35.70303 1.15779,2.02594 5.44831,-2.96552 12.63429,-13.01181 3.54067,16.59225 -11.20214,28.65826 -20.42435,32.83955 34.11015,-12.46312 44.116521,-41.93878 23.69032,-68.13915 1.33897,11.95412 -10.18152,24.20421 -12.82159,31.22783 -10.89715,-15.45863 30.732681,-34.24302 -7.20951,-72.62066 8.69849,20.03885 -7.64268,47.61191 -18.61666,43.39214 -9.94761,-3.82511 14.37683,-8.31535 -15.40306,-51.22479 z m -5.6929,63.60828 c -7.81486,22.55125 -17.11085,28.4154 -17.82841,7.26216 -10.9453,33.94543 26.79525,30.31232 19.77397,37.11607 -6.39254,6.19452 -41.26237,-2.93492 -46.96606,-6.45476 24.73257,27.67223 98.85207,33.07408 77.19127,-14.90018 -0.80401,20.73752 -39.77818,8.55076 -32.17077,-23.02329 z"
           id="path12"
           inkscape:connector-curvature="0"
           sodipodi:nodetypes="cscccscccccccscccccsccccccc"
           inkscape:export-filename="path12.png"
           inkscape:export-xdpi="95.876251"
           inkscape:export-ydpi="95.876251" />
      </g>
    </g>
  </g>
</svg>
